if (_typeface_js && _typeface_js.loadFace) _typeface_js.loadFace({"glyphs":{"0":{"ha":772,"x_min":54,"x_max":718,"o":"m 718 478 q 634 113 718 239 q 385 -14 549 -14 q 137 112 220 -14 q 54 478 54 237 q 135 847 54 724 q 389 970 215 970 q 638 846 557 970 q 718 478 718 722 m 594 478 q 546 778 594 685 q 389 871 498 871 q 227 779 276 871 q 178 478 178 688 q 228 180 178 275 q 386 86 277 86 q 544 182 494 86 q 594 478 594 279 z "},"1":{"ha":772,"x_min":106,"x_max":705,"o":"m 106 0 l 106 104 l 349 104 l 349 839 l 134 685 l 134 800 l 359 956 l 472 956 l 472 104 l 705 104 l 705 0 l 106 0 z "},"2":{"ha":772,"x_min":70,"x_max":703,"o":"m 70 0 l 70 86 q 154 226 104 165 q 259 336 204 287 q 368 427 314 385 q 465 511 422 469 q 535 600 509 553 q 562 704 562 646 q 516 826 562 783 q 388 869 470 869 q 259 827 310 869 q 200 708 209 785 l 75 720 q 173 902 89 834 q 388 970 256 970 q 610 902 532 970 q 688 708 688 833 q 662 597 688 652 q 587 488 637 543 q 395 317 536 433 q 271 202 317 254 q 204 104 224 151 l 703 104 l 703 0 l 70 0 z "},"3":{"ha":772,"x_min":53,"x_max":711,"o":"m 711 264 q 627 59 711 132 q 387 -14 543 -14 q 156 52 242 -14 q 53 245 69 117 l 179 257 q 387 87 203 87 q 532 133 479 87 q 585 268 585 178 q 525 390 585 346 q 351 433 465 433 l 282 433 l 282 539 l 349 539 q 504 583 449 539 q 559 704 559 627 q 514 825 559 781 q 380 869 469 869 q 250 828 300 869 q 192 711 200 787 l 69 721 q 166 904 83 838 q 382 970 250 970 q 605 903 526 970 q 685 717 685 836 q 634 568 685 625 q 485 490 583 511 l 485 488 q 652 416 592 476 q 711 264 711 355 z "},"4":{"ha":772,"x_min":32,"x_max":732,"o":"m 597 216 l 597 0 l 482 0 l 482 216 l 32 216 l 32 311 l 469 956 l 597 956 l 597 313 l 732 313 l 732 216 l 597 216 m 482 818 q 463 782 481 814 q 437 737 446 750 l 192 376 l 155 326 l 144 313 l 482 313 l 482 818 z "},"5":{"ha":772,"x_min":56,"x_max":714,"o":"m 714 311 q 624 73 714 160 q 375 -14 534 -14 q 159 45 241 -14 q 56 214 77 103 l 179 228 q 378 86 218 86 q 532 145 476 86 q 587 309 587 205 q 531 454 587 399 q 380 510 475 510 q 288 494 331 510 q 203 441 245 479 l 83 441 l 115 956 l 659 956 l 659 852 l 227 852 l 208 549 q 406 610 288 610 q 630 527 547 610 q 714 311 714 444 z "},"6":{"ha":772,"x_min":71,"x_max":711,"o":"m 711 313 q 629 74 711 161 q 403 -14 547 -14 q 156 106 241 -14 q 71 456 71 227 q 159 837 71 704 q 412 970 248 970 q 685 775 629 970 l 568 754 q 411 871 532 871 q 249 773 307 871 q 192 492 192 676 q 286 586 225 553 q 424 618 346 618 q 634 535 556 618 q 711 313 711 452 m 587 307 q 536 467 587 411 q 395 524 486 524 q 257 474 309 524 q 204 336 204 424 q 259 155 204 226 q 399 85 313 85 q 537 144 487 85 q 587 307 587 203 z "},"7":{"ha":772,"x_min":71,"x_max":703,"o":"m 703 857 q 496 506 556 633 q 405 256 435 379 q 375 0 375 132 l 248 0 q 325 386 248 183 q 585 852 403 588 l 71 852 l 71 956 l 703 956 l 703 857 z "},"8":{"ha":772,"x_min":60,"x_max":712,"o":"m 712 267 q 628 60 712 134 q 387 -14 544 -14 q 147 59 233 -14 q 60 265 60 132 q 114 422 60 359 q 251 500 168 486 l 251 503 q 128 582 173 521 q 83 725 83 643 q 164 902 83 834 q 384 970 246 970 q 607 903 525 970 q 688 724 688 837 q 643 581 688 642 q 519 504 597 519 l 519 501 q 661 424 610 486 q 712 267 712 361 m 562 717 q 384 879 562 879 q 253 838 298 879 q 208 717 208 798 q 254 592 208 635 q 385 549 300 549 q 516 588 471 549 q 562 717 562 628 m 585 278 q 532 412 585 367 q 384 457 479 457 q 239 409 291 457 q 186 275 186 360 q 388 78 186 78 q 536 126 488 78 q 585 278 585 174 z "},"9":{"ha":772,"x_min":65,"x_max":707,"o":"m 707 497 q 617 119 707 251 q 361 -14 527 -14 q 181 34 249 -14 q 85 186 114 81 l 201 204 q 363 85 238 85 q 526 182 468 85 q 586 461 583 280 q 493 363 559 400 q 349 326 427 326 q 142 414 220 326 q 65 648 65 503 q 149 884 65 798 q 383 970 233 970 q 625 852 543 970 q 707 497 707 734 m 574 615 q 521 801 574 730 q 379 871 468 871 q 240 811 291 871 q 189 648 189 751 q 240 483 189 544 q 378 422 291 422 q 476 447 431 422 q 548 515 522 471 q 574 615 574 559 z "}," ":{"ha":386,"x_min":0,"x_max":0,"o":""},"!":{"ha":386,"x_min":125,"x_max":260,"o":"m 243 269 l 143 269 l 127 956 l 260 956 l 243 269 m 125 0 l 125 136 l 257 136 l 257 0 l 125 0 z "},"\"":{"ha":493,"x_min":59,"x_max":434,"o":"m 419 655 l 323 655 l 309 956 l 434 956 l 419 655 m 169 655 l 73 655 l 59 956 l 184 956 l 169 655 z "},"#":{"ha":772,"x_min":6,"x_max":766,"o":"m 608 600 l 555 350 l 731 350 l 731 277 l 539 277 l 479 0 l 405 0 l 463 277 l 217 277 l 160 0 l 85 0 l 142 277 l 6 277 l 6 350 l 159 350 l 212 600 l 41 600 l 41 673 l 227 673 l 287 950 l 361 950 l 302 673 l 548 673 l 608 950 l 682 950 l 623 673 l 766 673 l 766 600 l 608 600 m 288 600 l 234 350 l 479 350 l 532 600 l 288 600 z "},"$":{"ha":772,"x_min":15,"x_max":750,"o":"m 351 14 q 15 257 62 26 l 130 282 q 201 161 147 201 q 351 114 255 120 l 351 450 q 185 504 231 480 q 112 558 140 528 q 71 625 83 589 q 58 709 58 660 q 135 874 58 814 q 351 939 211 933 l 351 1028 l 435 1028 l 435 939 q 631 882 562 933 q 729 722 701 831 l 611 700 q 556 799 597 764 q 435 842 515 835 l 435 541 q 608 488 557 512 q 689 435 659 465 q 734 364 719 405 q 750 269 750 323 q 668 89 750 157 q 435 14 586 21 l 435 -96 l 351 -96 l 351 14 m 633 267 q 616 340 633 311 q 565 387 598 368 q 435 431 532 406 l 435 113 q 582 159 531 119 q 633 267 633 198 m 175 711 q 192 643 175 671 q 242 596 209 615 q 351 558 276 577 l 351 844 q 175 711 175 834 z "},"%":{"ha":1235,"x_min":50,"x_max":1185,"o":"m 1185 294 q 1131 70 1185 149 q 968 -8 1076 -8 q 809 68 863 -8 q 755 294 755 144 q 807 525 755 449 q 971 600 859 600 q 1134 523 1082 600 q 1185 294 1185 445 m 357 0 l 252 0 l 878 956 l 984 956 l 357 0 m 267 964 q 427 888 375 964 q 479 661 479 812 q 426 435 479 514 q 264 355 372 355 q 103 434 157 355 q 50 661 50 513 q 102 888 50 812 q 267 964 154 964 m 1085 294 q 1059 470 1085 416 q 971 525 1033 525 q 882 471 909 525 q 854 294 854 418 q 881 122 854 178 q 970 66 908 66 q 1057 123 1029 66 q 1085 294 1085 180 m 380 661 q 354 836 380 781 q 267 890 328 890 q 176 837 203 890 q 149 661 149 783 q 176 488 149 544 q 266 432 203 432 q 352 489 325 432 q 380 661 380 546 z "},"&":{"ha":926,"x_min":49,"x_max":905,"o":"m 809 -8 q 607 78 689 -8 q 491 10 556 34 q 355 -14 426 -14 q 129 57 209 -14 q 49 252 49 127 q 281 543 49 440 q 243 642 259 585 q 227 747 227 700 q 289 905 227 849 q 465 961 351 961 q 630 909 567 961 q 692 768 692 858 q 630 626 692 688 q 415 503 568 564 q 614 223 490 363 q 730 501 690 336 l 828 472 q 684 154 785 303 q 825 87 749 87 q 905 98 873 87 l 905 7 q 809 -8 867 -8 m 589 768 q 555 848 589 817 q 463 879 522 879 q 364 844 398 879 q 330 747 330 809 q 374 582 330 670 q 505 644 463 618 q 568 701 547 671 q 589 768 589 732 m 539 147 q 323 457 405 306 q 163 253 163 389 q 215 123 163 171 q 359 75 268 75 q 455 94 407 75 q 539 147 503 113 z "},"'":{"ha":265,"x_min":71,"x_max":195,"o":"m 180 655 l 85 655 l 71 956 l 195 956 l 180 655 z "},"(":{"ha":463,"x_min":86,"x_max":454,"o":"m 86 361 q 148 713 86 557 q 336 1006 209 869 l 454 1006 q 268 707 328 865 q 209 359 209 548 q 268 14 209 172 q 454 -288 326 -144 l 336 -288 q 147 7 208 -149 q 86 358 86 163 l 86 361 z "},")":{"ha":463,"x_min":8,"x_max":376,"o":"m 376 358 q 315 6 376 162 q 126 -288 254 -150 l 8 -288 q 195 13 136 -145 q 254 359 254 170 q 194 707 254 549 q 8 1006 135 865 l 126 1006 q 315 712 254 868 q 376 361 376 555 l 376 358 z "},"*":{"ha":541,"x_min":22,"x_max":519,"o":"m 309 755 l 488 825 l 519 736 l 328 686 l 453 517 l 372 468 l 271 643 l 165 469 l 84 518 l 212 686 l 22 736 l 53 827 l 234 754 l 226 956 l 318 956 l 309 755 z "},"+":{"ha":811,"x_min":68,"x_max":743,"o":"m 455 412 l 455 122 l 355 122 l 355 412 l 68 412 l 68 511 l 355 511 l 355 802 l 455 802 l 455 511 l 743 511 l 743 412 l 455 412 z "},",":{"ha":386,"x_min":125,"x_max":261,"o":"m 261 149 l 261 35 q 248 -85 261 -37 q 208 -178 235 -134 l 125 -178 q 189 0 189 -85 l 129 0 l 129 149 l 261 149 z "},"-":{"ha":463,"x_min":62,"x_max":401,"o":"m 62 315 l 62 423 l 401 423 l 401 315 l 62 315 z "},".":{"ha":386,"x_min":127,"x_max":259,"o":"m 127 0 l 127 149 l 259 149 l 259 0 l 127 0 z "},"/":{"ha":386,"x_min":0,"x_max":386,"o":"m 0 -14 l 279 1006 l 386 1006 l 110 -14 l 0 -14 z "},":":{"ha":386,"x_min":127,"x_max":259,"o":"m 127 593 l 127 734 l 259 734 l 259 593 l 127 593 m 127 0 l 127 140 l 259 140 l 259 0 l 127 0 z "},";":{"ha":386,"x_min":125,"x_max":261,"o":"m 261 140 l 261 35 q 248 -85 261 -37 q 208 -178 235 -134 l 125 -178 q 189 0 189 -85 l 129 0 l 129 140 l 261 140 m 129 593 l 129 734 l 261 734 l 261 593 l 129 593 z "},"<":{"ha":811,"x_min":68,"x_max":743,"o":"m 68 387 l 68 526 l 743 810 l 743 705 l 161 457 l 743 208 l 743 104 l 68 387 z "},"=":{"ha":811,"x_min":68,"x_max":743,"o":"m 68 581 l 68 681 l 743 681 l 743 581 l 68 581 m 68 233 l 68 334 l 743 334 l 743 233 l 68 233 z "},">":{"ha":811,"x_min":68,"x_max":743,"o":"m 68 104 l 68 208 l 650 457 l 68 705 l 68 810 l 743 526 l 743 387 l 68 104 z "},"?":{"ha":772,"x_min":57,"x_max":721,"o":"m 721 700 q 706 609 721 649 q 663 535 691 569 q 572 455 635 501 l 518 415 q 446 341 469 380 q 421 256 422 302 l 302 256 q 317 338 304 302 q 351 400 330 373 q 399 449 372 427 q 452 489 425 470 q 506 528 479 509 q 552 571 532 547 q 585 625 572 595 q 597 694 597 654 q 545 817 597 772 q 397 861 492 861 q 247 814 302 861 q 182 684 191 766 l 57 692 q 163 898 75 826 q 396 970 251 970 q 634 898 547 970 q 721 700 721 827 m 297 0 l 297 136 l 429 136 l 429 0 l 297 0 z "},"@":{"ha":1410,"x_min":109,"x_max":1290,"o":"m 1290 512 q 1251 284 1290 386 q 1142 126 1212 182 q 987 71 1073 71 q 883 100 920 71 q 846 190 846 130 l 848 237 l 844 237 q 733 112 800 154 q 591 71 667 71 q 426 140 484 71 q 367 332 367 209 q 411 538 367 443 q 533 690 454 634 q 707 747 612 747 q 911 623 856 747 l 916 623 l 942 732 l 1048 732 l 969 389 q 944 217 944 277 q 999 153 944 153 q 1099 200 1053 153 q 1171 329 1145 247 q 1198 511 1198 411 q 1145 726 1198 632 q 995 870 1093 820 q 765 921 897 921 q 475 848 601 921 q 277 639 349 776 q 205 333 205 503 q 258 102 205 202 q 412 -52 311 2 q 647 -105 513 -105 q 846 -80 745 -105 q 1056 5 947 -54 l 1093 -71 q 880 -161 995 -130 q 647 -192 765 -192 q 361 -127 484 -192 q 174 57 239 -62 q 109 333 109 177 q 194 678 109 523 q 428 920 278 833 q 764 1006 578 1006 q 1046 945 927 1006 q 1227 772 1164 884 q 1290 512 1290 660 m 879 507 q 834 618 879 576 q 715 661 789 661 q 593 617 646 661 q 509 498 540 574 q 479 333 479 422 q 511 205 479 252 q 610 159 543 159 q 766 231 695 159 q 863 408 836 302 q 879 507 879 471 z "},"A":{"ha":926,"x_min":3,"x_max":924,"o":"m 791 0 l 682 279 l 247 279 l 137 0 l 3 0 l 393 956 l 540 956 l 924 0 l 791 0 m 465 858 l 458 839 q 408 694 441 783 l 286 380 l 644 380 l 521 696 q 483 802 502 743 l 465 858 z "},"B":{"ha":926,"x_min":114,"x_max":853,"o":"m 853 269 q 760 71 853 142 q 502 0 667 0 l 114 0 l 114 956 l 461 956 q 798 724 798 956 q 750 581 798 639 q 616 504 703 524 q 791 428 730 490 q 853 269 853 365 m 667 708 q 614 819 667 785 q 461 852 562 852 l 243 852 l 243 549 l 461 549 q 616 588 565 549 q 667 708 667 627 m 722 279 q 485 448 722 448 l 243 448 l 243 104 l 495 104 q 668 148 614 104 q 722 279 722 192 z "},"C":{"ha":1003,"x_min":71,"x_max":950,"o":"m 537 864 q 290 762 378 864 q 202 482 202 660 q 294 200 202 307 q 543 93 386 93 q 844 292 743 93 l 950 239 q 784 51 891 115 q 536 -14 677 -14 q 287 46 392 -14 q 126 218 181 106 q 71 482 71 330 q 194 840 71 711 q 536 970 317 970 q 791 910 688 970 q 941 733 893 850 l 819 692 q 712 820 785 776 q 537 864 638 864 z "},"D":{"ha":1003,"x_min":114,"x_max":937,"o":"m 937 488 q 879 229 937 340 q 715 59 821 118 q 471 0 610 0 l 114 0 l 114 956 l 430 956 q 805 834 673 956 q 937 488 937 712 m 806 488 q 709 759 806 665 q 427 852 612 852 l 243 852 l 243 104 l 456 104 q 641 150 562 104 q 764 283 721 196 q 806 488 806 370 z "},"E":{"ha":926,"x_min":114,"x_max":867,"o":"m 114 0 l 114 956 l 839 956 l 839 850 l 243 850 l 243 543 l 798 543 l 798 439 l 243 439 l 243 106 l 867 106 l 867 0 l 114 0 z "},"F":{"ha":848,"x_min":114,"x_max":793,"o":"m 243 850 l 243 494 l 777 494 l 777 387 l 243 387 l 243 0 l 114 0 l 114 956 l 793 956 l 793 850 l 243 850 z "},"G":{"ha":1080,"x_min":70,"x_max":977,"o":"m 70 482 q 195 842 70 715 q 545 970 319 970 q 803 916 704 970 q 956 745 902 863 l 832 708 q 720 827 791 789 q 542 864 648 864 q 289 764 376 864 q 201 482 201 664 q 294 196 201 301 q 551 92 387 92 q 726 120 645 92 q 857 197 807 149 l 857 370 l 572 370 l 572 478 l 977 478 l 977 149 q 790 29 901 71 q 551 -14 680 -14 q 293 46 401 -14 q 127 218 184 106 q 70 482 70 330 z "},"H":{"ha":1003,"x_min":114,"x_max":890,"o":"m 760 0 l 760 443 l 243 443 l 243 0 l 114 0 l 114 956 l 243 956 l 243 551 l 760 551 l 760 956 l 890 956 l 890 0 l 760 0 z "},"I":{"ha":386,"x_min":128,"x_max":258,"o":"m 128 0 l 128 956 l 258 956 l 258 0 l 128 0 z "},"J":{"ha":694,"x_min":22,"x_max":591,"o":"m 310 -14 q 22 237 67 -14 l 149 258 q 203 136 161 180 q 311 92 246 92 q 422 140 381 92 q 463 282 463 189 l 463 850 l 279 850 l 279 956 l 591 956 l 591 285 q 516 66 591 146 q 310 -14 441 -14 z "},"K":{"ha":926,"x_min":114,"x_max":911,"o":"m 750 0 l 368 461 l 243 366 l 243 0 l 114 0 l 114 956 l 243 956 l 243 477 l 704 956 l 857 956 l 450 541 l 911 0 l 750 0 z "},"L":{"ha":772,"x_min":114,"x_max":726,"o":"m 114 0 l 114 956 l 243 956 l 243 106 l 726 106 l 726 0 l 114 0 z "},"M":{"ha":1157,"x_min":114,"x_max":1043,"o":"m 926 0 l 926 637 q 932 841 926 743 q 873 651 899 720 l 626 0 l 535 0 l 285 651 l 247 766 l 224 841 l 227 766 l 229 637 l 229 0 l 114 0 l 114 956 l 284 956 l 538 293 q 565 207 552 253 q 581 141 577 161 q 604 223 587 168 q 627 293 621 279 l 877 956 l 1043 956 l 1043 0 l 926 0 z "},"N":{"ha":1003,"x_min":114,"x_max":890,"o":"m 734 0 l 222 814 l 226 748 l 229 635 l 229 0 l 114 0 l 114 956 l 264 956 l 781 136 q 773 329 773 269 l 773 956 l 890 956 l 890 0 l 734 0 z "},"O":{"ha":1080,"x_min":66,"x_max":1014,"o":"m 1014 482 q 957 220 1014 332 q 792 47 899 107 q 539 -14 685 -14 q 285 46 392 -14 q 122 219 178 106 q 66 482 66 332 q 191 841 66 711 q 541 970 317 970 q 793 912 686 970 q 957 743 901 854 q 1014 482 1014 633 m 882 482 q 792 762 882 661 q 541 864 703 864 q 287 764 376 864 q 197 482 197 663 q 288 197 197 302 q 539 92 378 92 q 793 194 705 92 q 882 482 882 296 z "},"P":{"ha":926,"x_min":114,"x_max":853,"o":"m 853 668 q 765 452 853 532 q 524 372 676 372 l 243 372 l 243 0 l 114 0 l 114 956 l 516 956 q 765 880 677 956 q 853 668 853 805 m 723 667 q 500 852 723 852 l 243 852 l 243 475 l 506 475 q 723 667 723 475 z "},"Q":{"ha":1080,"x_min":66,"x_max":1014,"o":"m 1014 482 q 912 150 1014 280 q 629 -4 810 20 q 702 -127 657 -90 q 817 -165 747 -165 q 895 -157 854 -165 l 895 -248 q 774 -262 831 -262 q 605 -204 671 -262 q 497 -11 539 -146 q 266 57 363 -4 q 117 228 168 119 q 66 482 66 338 q 191 841 66 711 q 541 970 317 970 q 793 912 686 970 q 957 743 901 854 q 1014 482 1014 633 m 882 482 q 792 762 882 661 q 541 864 703 864 q 287 764 376 864 q 197 482 197 663 q 288 197 197 302 q 539 92 378 92 q 793 194 705 92 q 882 482 882 296 z "},"R":{"ha":1003,"x_min":114,"x_max":939,"o":"m 789 0 l 541 397 l 243 397 l 243 0 l 114 0 l 114 956 l 564 956 q 813 883 725 956 q 901 682 901 811 q 839 503 901 576 q 667 412 777 431 l 939 0 l 789 0 m 770 681 q 714 808 770 764 q 551 852 657 852 l 243 852 l 243 499 l 556 499 q 714 547 659 499 q 770 681 770 595 z "},"S":{"ha":926,"x_min":63,"x_max":863,"o":"m 863 264 q 759 59 863 132 q 468 -14 656 -14 q 63 229 119 -14 l 189 254 q 281 128 210 168 q 473 87 351 87 q 666 131 598 87 q 734 257 734 174 q 713 333 734 304 q 653 381 692 362 q 561 413 614 400 q 442 441 507 426 q 270 491 329 466 q 178 547 212 516 q 126 619 144 578 q 108 714 108 661 q 202 903 108 837 q 471 970 296 970 q 720 920 633 970 q 840 750 806 870 l 713 728 q 633 838 692 804 q 469 872 574 872 q 294 834 355 872 q 234 721 234 796 q 257 648 234 677 q 325 599 281 619 q 500 550 369 579 q 588 529 545 540 q 672 504 632 519 q 747 470 712 490 q 808 422 782 450 q 848 355 833 393 q 863 264 863 316 z "},"T":{"ha":848,"x_min":31,"x_max":817,"o":"m 488 850 l 488 0 l 359 0 l 359 850 l 31 850 l 31 956 l 817 956 l 817 850 l 488 850 z "},"U":{"ha":1003,"x_min":107,"x_max":896,"o":"m 496 -14 q 291 29 378 -14 q 155 153 203 72 q 107 347 107 235 l 107 956 l 237 956 l 237 358 q 303 159 237 227 q 495 92 370 92 q 695 162 624 92 q 767 367 767 232 l 767 956 l 896 956 l 896 359 q 847 159 896 243 q 708 31 798 75 q 496 -14 618 -14 z "},"V":{"ha":926,"x_min":6,"x_max":920,"o":"m 530 0 l 396 0 l 6 956 l 142 956 l 407 283 l 464 114 l 521 283 l 784 956 l 920 956 l 530 0 z "},"W":{"ha":1311,"x_min":6,"x_max":1306,"o":"m 1025 0 l 870 0 l 705 607 q 657 811 688 664 q 627 680 640 732 q 442 0 615 627 l 288 0 l 6 956 l 141 956 l 313 349 q 369 114 343 235 q 407 277 385 189 q 595 956 428 365 l 719 956 l 885 361 q 945 114 923 215 l 951 138 q 981 265 969 216 q 1171 956 992 314 l 1306 956 l 1025 0 z "},"X":{"ha":926,"x_min":31,"x_max":897,"o":"m 754 0 l 467 418 l 174 0 l 31 0 l 395 496 l 59 956 l 202 956 l 468 581 l 726 956 l 869 956 l 543 501 l 897 0 l 754 0 z "},"Y":{"ha":926,"x_min":31,"x_max":896,"o":"m 527 396 l 527 0 l 398 0 l 398 396 l 31 956 l 173 956 l 464 500 l 753 956 l 896 956 l 527 396 z "},"Z":{"ha":848,"x_min":44,"x_max":805,"o":"m 805 0 l 44 0 l 44 97 l 626 850 l 94 850 l 94 956 l 773 956 l 773 861 l 191 106 l 805 106 l 805 0 z "},"[":{"ha":386,"x_min":99,"x_max":375,"o":"m 99 -288 l 99 1006 l 375 1006 l 375 919 l 217 919 l 217 -201 l 375 -201 l 375 -288 l 99 -288 z "},"\\":{"ha":386,"x_min":0,"x_max":386,"o":"m 276 -14 l 0 1006 l 107 1006 l 386 -14 l 276 -14 z "},"]":{"ha":386,"x_min":11,"x_max":287,"o":"m 11 -288 l 11 -201 l 169 -201 l 169 919 l 11 919 l 11 1006 l 287 1006 l 287 -288 l 11 -288 z "},"^":{"ha":652,"x_min":7,"x_max":645,"o":"m 534 456 l 324 886 l 117 456 l 7 456 l 256 956 l 394 956 l 645 456 l 534 456 z "},"_":{"ha":772,"x_min":-21,"x_max":788,"o":"m -21 -276 l -21 -188 l 788 -188 l 788 -276 l -21 -276 z "},"`":{"ha":463,"x_min":72,"x_max":359,"o":"m 296 814 l 72 1003 l 72 1023 l 212 1023 l 359 828 l 359 814 l 296 814 z "},"a":{"ha":772,"x_min":59,"x_max":772,"o":"m 281 -14 q 115 45 170 -14 q 59 205 59 103 q 134 380 59 319 q 376 445 209 441 l 541 448 l 541 488 q 503 616 541 577 q 383 654 465 654 q 264 627 301 654 q 219 538 227 599 l 92 549 q 386 747 123 747 q 594 684 524 747 q 664 500 664 621 l 664 184 q 678 103 664 130 q 732 75 692 75 q 772 80 750 75 l 772 4 q 678 -7 726 -7 q 579 29 610 -7 q 545 140 549 64 l 541 140 q 432 21 494 56 q 281 -14 370 -14 m 309 78 q 428 109 376 78 q 510 192 480 139 q 541 302 541 245 l 541 362 l 407 359 q 276 342 321 358 q 208 292 232 326 q 184 203 184 258 q 217 111 184 143 q 309 78 249 78 z "},"b":{"ha":772,"x_min":90,"x_max":714,"o":"m 714 370 q 444 -14 714 -14 q 306 17 361 -14 q 216 114 250 47 l 214 114 q 212 50 214 93 q 208 0 209 7 l 90 0 q 94 151 94 37 l 94 1006 l 216 1006 l 216 720 q 213 616 216 675 l 216 616 q 306 717 250 686 q 444 747 361 747 q 649 654 583 747 q 714 370 714 560 m 586 366 q 545 587 586 520 q 413 653 505 653 q 263 583 310 653 q 216 359 216 512 q 262 145 216 214 q 412 77 308 77 q 545 145 504 77 q 586 366 586 213 z "},"c":{"ha":694,"x_min":59,"x_max":658,"o":"m 186 370 q 233 153 186 224 q 372 83 279 83 q 480 118 437 83 q 534 227 524 153 l 658 218 q 568 50 644 113 q 375 -14 492 -14 q 140 84 221 -14 q 59 368 59 181 q 140 650 59 553 q 374 747 222 747 q 561 689 486 747 q 654 528 635 631 l 528 519 q 480 616 519 580 q 370 652 441 652 q 230 587 273 652 q 186 370 186 523 z "},"d":{"ha":772,"x_min":58,"x_max":683,"o":"m 557 118 q 467 17 523 47 q 328 -14 411 -14 q 124 80 189 -14 q 58 363 58 174 q 328 747 58 747 q 467 717 412 747 q 557 620 523 686 l 558 620 l 557 702 l 557 1006 l 679 1006 l 679 151 q 683 0 679 37 l 566 0 q 562 50 564 11 q 559 118 559 90 l 557 118 m 186 368 q 227 147 186 214 q 359 81 268 81 q 510 153 463 81 q 557 376 557 224 q 510 589 557 522 q 361 657 463 657 q 228 589 269 657 q 186 368 186 521 z "},"e":{"ha":772,"x_min":59,"x_max":711,"o":"m 187 341 q 239 146 187 215 q 392 78 292 78 q 519 110 471 78 q 584 191 567 142 l 691 160 q 392 -14 625 -14 q 144 83 229 -14 q 59 372 59 180 q 144 650 59 553 q 387 747 229 747 q 711 357 711 747 l 711 341 l 187 341 m 585 435 q 526 604 574 551 q 385 657 477 657 q 244 598 296 657 q 189 435 193 538 l 585 435 z "},"f":{"ha":386,"x_min":20,"x_max":388,"o":"m 245 645 l 245 0 l 123 0 l 123 645 l 20 645 l 20 734 l 123 734 l 123 817 q 167 961 123 917 q 302 1005 211 1005 q 388 997 353 1005 l 388 904 q 334 909 357 909 q 266 886 287 909 q 245 800 245 862 l 245 734 l 388 734 l 388 645 l 245 645 z "},"g":{"ha":772,"x_min":58,"x_max":683,"o":"m 372 -288 q 180 -241 252 -288 q 89 -107 109 -194 l 212 -90 q 266 -168 224 -140 q 375 -195 307 -195 q 557 18 557 -195 l 557 136 l 556 136 q 461 30 522 66 q 320 -5 401 -5 q 122 84 185 -5 q 58 366 58 174 q 126 653 58 560 q 334 745 195 745 q 469 710 412 745 q 557 608 526 674 l 559 608 q 562 679 559 629 q 567 734 564 729 l 683 734 q 679 582 679 697 l 679 21 q 372 -288 679 -288 m 557 367 q 533 521 557 456 q 464 620 509 586 q 363 654 420 654 q 227 587 270 654 q 184 367 184 519 q 224 151 184 216 q 361 85 264 85 q 464 119 419 85 q 533 216 509 153 q 557 367 557 279 z "},"h":{"ha":772,"x_min":96,"x_max":682,"o":"m 215 608 q 310 714 254 680 q 450 747 365 747 q 626 688 569 747 q 682 489 682 629 l 682 0 l 559 0 l 559 465 q 545 580 559 543 q 498 635 531 618 q 408 653 466 653 q 270 593 322 653 q 218 433 218 534 l 218 0 l 96 0 l 96 1006 l 218 1006 l 218 745 q 216 659 218 703 q 213 608 214 615 l 215 608 z "},"i":{"ha":309,"x_min":93,"x_max":215,"o":"m 93 890 l 93 1006 l 215 1006 l 215 890 l 93 890 m 93 0 l 93 734 l 215 734 l 215 0 l 93 0 z "},"j":{"ha":309,"x_min":-34,"x_max":215,"o":"m 93 890 l 93 1006 l 215 1006 l 215 890 l 93 890 m 215 -91 q 174 -241 215 -195 q 52 -288 134 -288 q -34 -282 0 -288 l -34 -188 l 8 -192 q 74 -168 55 -192 q 93 -73 93 -143 l 93 734 l 215 734 l 215 -91 z "},"k":{"ha":694,"x_min":94,"x_max":696,"o":"m 553 0 l 305 335 l 216 261 l 216 0 l 94 0 l 94 1006 l 216 1006 l 216 378 l 538 734 l 681 734 l 383 418 l 696 0 l 553 0 z "},"l":{"ha":309,"x_min":94,"x_max":216,"o":"m 94 0 l 94 1006 l 216 1006 l 216 0 l 94 0 z "},"m":{"ha":1157,"x_min":92,"x_max":1065,"o":"m 521 0 l 521 465 q 492 612 521 572 q 387 653 463 653 q 263 593 309 653 q 218 425 218 534 l 218 0 l 96 0 l 96 577 q 92 734 96 705 l 208 734 q 209 715 208 730 q 211 681 210 701 q 213 608 212 662 l 215 608 q 305 717 254 686 q 429 747 356 747 q 561 714 513 747 q 629 608 610 681 l 631 608 q 723 715 669 682 q 853 747 777 747 q 1015 687 964 747 q 1065 489 1065 627 l 1065 0 l 945 0 l 945 465 q 916 612 945 572 q 810 653 886 653 q 686 594 730 653 q 642 425 642 534 l 642 0 l 521 0 z "},"n":{"ha":772,"x_min":92,"x_max":682,"o":"m 559 0 l 559 465 q 545 578 559 538 q 500 635 531 618 q 408 653 469 653 q 269 593 320 653 q 218 425 218 532 l 218 0 l 96 0 l 96 577 q 92 734 96 705 l 208 734 q 209 715 208 730 q 211 681 210 701 q 213 608 212 662 l 215 608 q 312 716 257 684 q 450 747 368 747 q 626 687 570 747 q 682 489 682 627 l 682 0 l 559 0 z "},"o":{"ha":772,"x_min":58,"x_max":714,"o":"m 714 368 q 629 81 714 175 q 383 -14 545 -14 q 140 84 222 -14 q 58 368 58 182 q 387 747 58 747 q 635 655 555 747 q 714 368 714 562 m 586 368 q 541 588 586 519 q 389 657 496 657 q 234 587 282 657 q 186 368 186 517 q 234 150 186 222 q 382 77 281 77 q 539 147 492 77 q 586 368 586 218 z "},"p":{"ha":772,"x_min":90,"x_max":714,"o":"m 714 370 q 444 -14 714 -14 q 216 114 275 -14 l 213 114 q 216 -1 216 109 l 216 -288 l 94 -288 l 94 584 q 90 734 94 697 l 208 734 q 210 714 208 731 q 213 663 211 698 q 214 616 214 629 l 217 616 q 303 715 250 684 q 444 747 357 747 q 647 656 580 747 q 714 370 714 565 m 586 368 q 545 587 586 521 q 413 652 503 652 q 299 622 340 652 q 237 527 258 591 q 216 358 216 462 q 262 145 216 214 q 412 77 308 77 q 544 143 503 77 q 586 368 586 210 z "},"q":{"ha":772,"x_min":58,"x_max":684,"o":"m 328 -14 q 123 81 189 -14 q 58 363 58 175 q 328 747 58 747 q 466 718 412 747 q 557 620 520 688 l 558 620 q 561 690 558 640 q 566 743 564 740 l 684 743 q 679 543 679 703 l 679 -288 l 557 -288 l 557 9 l 559 121 l 558 121 q 468 17 522 48 q 328 -14 414 -14 m 557 376 q 510 588 557 519 q 361 657 463 657 q 227 588 268 657 q 186 368 186 519 q 228 147 186 214 q 359 81 269 81 q 510 155 463 81 q 557 376 557 229 z "},"r":{"ha":463,"x_min":92,"x_max":439,"o":"m 96 0 l 96 563 q 92 734 96 640 l 208 734 q 213 584 213 609 l 216 584 q 283 713 245 678 q 390 747 321 747 q 439 741 414 747 l 439 629 q 374 635 415 635 q 258 570 298 635 q 218 382 218 505 l 218 0 l 96 0 z "},"s":{"ha":694,"x_min":39,"x_max":644,"o":"m 644 203 q 566 43 644 99 q 347 -14 488 -14 q 135 32 210 -14 q 39 172 61 77 l 146 193 q 211 107 162 134 q 347 79 260 79 q 483 108 439 79 q 526 193 526 136 q 496 264 526 237 q 399 309 466 291 l 312 332 q 162 385 207 359 q 93 448 118 411 q 68 540 68 486 q 139 693 68 640 q 348 745 211 745 q 541 703 469 745 q 631 566 612 660 l 522 552 q 467 627 511 601 q 348 653 422 653 q 226 628 265 653 q 186 552 186 603 q 203 500 186 521 q 251 466 219 480 q 385 427 283 452 q 525 381 482 402 q 592 336 568 361 q 631 278 617 311 q 644 203 644 245 z "},"t":{"ha":386,"x_min":21,"x_max":376,"o":"m 376 5 q 252 -11 315 -11 q 106 155 106 -11 l 106 645 l 21 645 l 21 734 l 111 734 l 146 898 l 228 898 l 228 734 l 363 734 l 363 645 l 228 645 l 228 182 q 245 107 228 129 q 305 86 262 86 q 376 96 330 86 l 376 5 z "},"u":{"ha":772,"x_min":90,"x_max":680,"o":"m 213 734 l 213 269 q 227 156 213 196 q 273 98 241 116 q 364 81 304 81 q 503 141 452 81 q 554 309 554 201 l 554 734 l 676 734 l 676 157 q 680 0 676 28 l 565 0 q 564 18 564 3 q 562 53 563 33 q 559 125 561 72 l 557 125 q 460 18 515 50 q 323 -14 405 -14 q 146 46 202 -14 q 90 245 90 106 l 90 734 l 213 734 z "},"v":{"ha":694,"x_min":5,"x_max":690,"o":"m 416 0 l 271 0 l 5 734 l 135 734 l 296 256 q 343 96 305 229 l 367 175 l 393 255 l 560 734 l 690 734 l 416 0 z "},"w":{"ha":1003,"x_min":-2,"x_max":1006,"o":"m 796 0 l 654 0 l 526 519 l 502 633 q 483 546 496 603 q 345 0 470 488 l 203 0 l -2 734 l 119 734 l 243 235 q 272 101 248 219 l 283 151 l 437 734 l 568 734 l 696 230 l 727 101 l 748 195 l 887 734 l 1006 734 l 796 0 z "},"x":{"ha":694,"x_min":16,"x_max":680,"o":"m 543 0 l 346 301 l 147 0 l 16 0 l 277 377 l 28 734 l 163 734 l 346 448 l 528 734 l 664 734 l 415 378 l 680 0 l 543 0 z "},"y":{"ha":694,"x_min":3,"x_max":692,"o":"m 130 -288 q 45 -281 79 -288 l 45 -189 q 102 -193 71 -193 q 283 -26 216 -193 l 294 3 l 3 734 l 134 734 l 288 328 q 296 306 292 319 q 327 217 301 292 q 355 133 353 142 l 402 267 l 563 734 l 692 734 l 410 0 q 325 -175 364 -117 q 238 -260 286 -232 q 130 -288 190 -288 z "},"z":{"ha":694,"x_min":56,"x_max":625,"o":"m 56 0 l 56 93 l 467 640 l 79 640 l 79 734 l 611 734 l 611 641 l 200 94 l 625 94 l 625 0 l 56 0 z "},"{":{"ha":464,"x_min":23,"x_max":439,"o":"m 348 -288 q 215 -236 262 -288 q 169 -90 169 -184 l 169 155 q 133 274 169 235 q 23 316 98 313 l 23 402 q 133 444 97 405 q 169 562 169 483 l 169 808 q 214 955 169 903 q 348 1006 259 1006 l 439 1006 l 439 919 l 397 919 q 309 883 335 919 q 283 773 283 846 l 283 532 q 247 421 283 468 q 151 361 211 375 l 151 359 q 247 299 212 345 q 283 187 283 253 l 283 -55 q 309 -164 283 -127 q 397 -201 335 -201 l 439 -201 l 439 -288 l 348 -288 z "},"|":{"ha":361,"x_min":124,"x_max":237,"o":"m 124 -294 l 124 1006 l 237 1006 l 237 -294 l 124 -294 z "},"}":{"ha":464,"x_min":23,"x_max":439,"o":"m 64 -201 q 152 -164 125 -201 q 179 -55 179 -127 l 179 187 q 214 300 179 254 q 310 359 250 346 l 310 361 q 215 420 252 374 q 179 532 179 466 l 179 773 q 152 883 179 846 q 64 919 125 919 l 23 919 l 23 1006 l 113 1006 q 247 955 201 1006 q 292 808 292 903 l 292 562 q 328 444 292 484 q 439 402 363 405 l 439 316 q 327 274 363 313 q 292 155 292 235 l 292 -90 q 245 -236 292 -183 q 113 -288 199 -288 l 23 -288 l 23 -201 l 64 -201 z "},"~":{"ha":811,"x_min":62,"x_max":749,"o":"m 572 375 q 476 390 526 375 q 378 422 427 405 q 231 453 290 453 q 146 439 185 453 q 62 393 106 425 l 62 490 q 241 547 138 547 q 319 538 276 547 q 450 498 362 530 q 512 479 471 490 q 583 468 553 468 q 749 530 671 468 l 749 429 q 670 388 709 401 q 572 375 630 375 z "}," ":{"ha":386,"x_min":0,"x_max":0,"o":"z "},"¡":{"ha":463,"x_min":164,"x_max":298,"o":"m 180 465 l 281 465 l 297 -222 l 164 -222 l 180 465 m 298 734 l 298 597 l 167 597 l 167 734 l 298 734 z "},"¢":{"ha":772,"x_min":92,"x_max":690,"o":"m 404 188 q 513 223 469 188 q 567 332 557 258 l 690 323 q 613 164 677 226 q 449 93 549 102 l 449 -21 l 365 -21 l 365 93 q 161 202 230 105 q 92 473 92 298 q 161 742 92 644 q 365 850 230 839 l 365 956 l 449 956 l 449 850 q 607 784 546 840 q 686 633 668 728 l 561 624 q 513 721 551 685 q 403 757 474 757 q 262 692 306 757 q 219 475 219 628 q 265 258 219 329 q 404 188 311 188 z "},"£":{"ha":772,"x_min":39,"x_max":749,"o":"m 749 211 q 677 55 737 109 q 520 0 618 0 l 47 0 l 47 104 q 136 190 107 136 q 165 326 165 244 l 165 424 l 39 424 l 39 511 l 165 511 l 165 701 q 235 902 165 833 q 438 970 305 970 q 606 929 538 970 q 696 814 673 888 l 578 775 q 527 844 564 819 q 441 869 489 869 q 326 830 363 869 q 288 707 288 791 l 288 511 l 564 511 l 564 424 l 288 424 l 288 338 q 256 195 288 258 q 173 104 225 132 l 500 104 q 638 223 618 104 l 749 211 z "},"¤":{"ha":772,"x_min":77,"x_max":696,"o":"m 93 464 q 146 635 93 557 l 78 703 l 149 772 l 216 704 q 388 760 293 760 q 558 705 481 760 l 624 771 l 694 700 l 629 635 q 684 464 684 555 q 628 293 684 370 l 696 225 l 627 154 l 558 222 q 388 170 481 170 q 217 224 291 170 l 146 153 l 77 224 l 146 293 q 93 464 93 370 m 197 465 q 254 331 197 386 q 388 275 310 275 q 522 330 465 275 q 578 465 578 385 q 521 600 578 545 q 388 656 465 656 q 254 601 311 656 q 197 465 197 545 z "},"¥":{"ha":772,"x_min":-1,"x_max":774,"o":"m 488 481 l 706 481 l 706 396 l 446 396 l 446 292 l 706 292 l 706 205 l 446 205 l 446 0 l 326 0 l 326 205 l 67 205 l 67 292 l 326 292 l 327 396 l 67 396 l 67 481 l 284 481 l -1 956 l 134 956 l 385 517 l 640 956 l 774 956 l 488 481 z "},"¦":{"ha":361,"x_min":124,"x_max":237,"o":"m 124 479 l 124 1006 l 237 1006 l 237 479 l 124 479 m 124 -294 l 124 234 l 237 234 l 237 -294 l 124 -294 z "},"§":{"ha":772,"x_min":78,"x_max":694,"o":"m 399 1006 q 588 961 516 1006 q 679 830 661 916 l 570 817 q 399 918 551 918 q 270 891 314 918 q 227 817 227 865 q 247 760 227 784 q 305 719 267 736 q 431 680 342 701 q 583 628 530 656 q 665 560 636 600 q 694 465 694 520 q 654 347 694 398 q 546 280 614 296 q 656 204 622 248 q 690 98 690 160 q 612 -59 690 -2 q 391 -117 534 -117 q 175 -72 250 -117 q 78 68 101 -26 l 187 89 q 247 0 201 28 q 391 -28 293 -28 q 533 2 484 -28 q 582 87 582 32 q 559 152 582 126 q 495 198 537 178 q 351 243 454 218 q 162 326 220 273 q 104 455 104 379 q 145 566 104 515 q 258 636 187 616 q 156 703 193 658 q 118 807 118 749 q 190 954 118 901 q 399 1006 261 1006 m 587 450 q 540 534 587 498 q 374 597 493 569 q 256 557 300 593 q 212 464 212 521 q 232 406 212 431 q 290 363 252 381 q 415 322 328 345 q 542 358 496 323 q 587 450 587 392 z "},"¨":{"ha":463,"x_min":31,"x_max":408,"o":"m 298 827 l 298 951 l 408 951 l 408 827 l 298 827 m 31 827 l 31 951 l 142 951 l 142 827 l 31 827 z "},"©":{"ha":1023,"x_min":21,"x_max":1002,"o":"m 1002 479 q 936 234 1002 349 q 756 55 871 120 q 511 -11 642 -11 q 263 57 378 -11 q 84 238 148 125 q 21 479 21 351 q 87 724 21 610 q 267 904 153 838 q 511 970 380 970 q 757 904 643 970 q 937 724 871 838 q 1002 479 1002 611 m 939 479 q 882 692 939 594 q 726 848 825 790 q 511 905 627 905 q 298 848 397 905 q 142 692 199 791 q 85 479 85 593 q 143 266 85 365 q 298 110 200 167 q 511 53 397 53 q 726 110 626 53 q 882 266 825 167 q 939 479 939 365 m 338 481 q 386 318 338 376 q 519 260 434 260 q 677 366 626 260 l 755 342 q 655 224 713 260 q 519 189 598 189 q 321 266 391 189 q 250 481 250 342 q 318 693 250 618 q 514 768 386 768 q 745 627 680 768 l 667 604 q 606 674 646 651 q 515 697 567 697 q 384 643 429 697 q 338 481 338 588 z "},"ª":{"ha":514,"x_min":18,"x_max":519,"o":"m 176 441 q 60 481 103 441 q 18 590 18 520 q 71 711 18 669 q 229 754 124 753 l 350 757 l 350 798 q 326 878 350 852 q 248 903 302 903 q 175 883 202 903 q 141 811 147 863 l 40 818 q 105 930 51 890 q 246 971 159 971 q 396 929 345 971 q 447 802 447 886 l 447 593 q 456 536 447 553 q 490 519 466 519 q 519 525 503 519 l 519 454 q 463 446 486 446 q 386 471 413 446 q 355 541 358 497 l 353 541 q 176 441 303 441 m 203 517 q 307 557 264 517 q 350 650 350 597 l 350 694 l 256 692 q 148 665 176 688 q 119 599 119 643 q 203 517 119 517 z "},"«":{"ha":772,"x_min":56,"x_max":716,"o":"m 601 96 l 372 343 l 372 386 l 601 637 l 715 637 l 715 616 l 486 364 l 716 115 l 716 96 l 601 96 m 284 96 l 56 343 l 56 386 l 284 637 l 397 637 l 397 616 l 170 364 l 399 115 l 399 96 l 284 96 z "},"¬":{"ha":811,"x_min":68,"x_max":743,"o":"m 644 122 l 644 412 l 68 412 l 68 511 l 743 511 l 743 122 l 644 122 z "},"­":{"ha":463,"x_min":62,"x_max":401,"o":"m 62 315 l 62 423 l 401 423 l 401 315 l 62 315 z "},"®":{"ha":1023,"x_min":21,"x_max":1002,"o":"m 1002 479 q 936 234 1002 349 q 756 55 871 120 q 511 -11 642 -11 q 263 57 378 -11 q 84 238 148 125 q 21 479 21 351 q 87 724 21 610 q 267 904 153 838 q 511 970 380 970 q 757 904 643 970 q 937 724 871 838 q 1002 479 1002 611 m 939 479 q 882 692 939 594 q 726 848 825 790 q 511 905 627 905 q 298 848 397 905 q 142 692 199 791 q 85 479 85 593 q 143 266 85 365 q 298 110 200 167 q 511 53 397 53 q 726 110 626 53 q 882 266 825 167 q 939 479 939 365 m 648 196 l 513 424 l 404 424 l 404 196 l 317 196 l 317 760 l 526 760 q 673 717 622 760 q 724 599 724 674 q 689 488 724 530 q 596 433 654 446 l 746 196 l 648 196 m 638 597 q 606 669 638 644 q 519 693 574 693 l 404 693 l 404 489 l 527 489 q 610 518 581 489 q 638 597 638 547 z "},"¯":{"ha":767,"x_min":-12,"x_max":779,"o":"m 779 985 l -12 985 l -12 1048 l 779 1048 l 779 985 z "},"°":{"ha":555,"x_min":83,"x_max":472,"o":"m 472 777 q 415 640 472 696 q 277 583 357 583 q 140 640 197 583 q 83 777 83 697 q 139 913 83 856 q 277 970 196 970 q 415 913 359 970 q 472 777 472 857 m 398 777 q 363 863 398 828 q 277 899 328 899 q 192 863 227 899 q 157 777 157 827 q 192 690 157 726 q 277 654 228 654 q 363 690 328 654 q 398 777 398 726 z "},"±":{"ha":762,"x_min":44,"x_max":719,"o":"m 431 461 l 431 193 l 332 193 l 332 461 l 44 461 l 44 559 l 332 559 l 332 827 l 431 827 l 431 559 l 719 559 l 719 461 l 431 461 m 44 0 l 44 98 l 719 98 l 719 0 l 44 0 z "},"²":{"ha":463,"x_min":28,"x_max":436,"o":"m 29 382 l 28 452 q 93 543 49 498 q 209 637 136 587 q 304 722 275 684 q 334 799 334 760 q 310 866 334 841 q 236 892 286 892 q 160 867 190 892 q 125 796 130 842 l 35 802 q 98 919 43 874 q 240 964 153 964 q 377 922 326 964 q 427 806 427 880 q 300 612 427 706 q 183 520 217 551 q 136 458 149 489 l 436 458 l 436 382 l 29 382 z "},"³":{"ha":463,"x_min":18,"x_max":435,"o":"m 435 539 q 383 417 435 460 q 234 374 330 374 q 18 528 40 374 l 111 536 q 234 444 123 444 q 342 545 342 444 q 214 637 342 637 l 173 637 l 173 711 l 212 711 q 297 736 266 711 q 328 804 328 760 q 303 868 328 845 q 230 892 278 892 q 155 868 184 892 q 123 800 127 844 l 31 808 q 93 923 40 882 q 233 964 146 964 q 371 923 321 964 q 421 817 421 883 q 392 728 421 766 q 302 677 363 691 l 302 676 q 399 634 363 670 q 435 539 435 599 z "},"´":{"ha":463,"x_min":49,"x_max":336,"o":"m 49 814 l 49 828 l 196 1023 l 336 1023 l 336 1003 l 113 814 l 49 814 z "},"µ":{"ha":800,"x_min":95,"x_max":768,"o":"m 95 -288 l 95 734 l 218 734 l 218 269 q 254 128 218 175 q 371 81 290 81 q 507 140 458 81 q 557 309 557 199 l 557 734 l 679 734 l 679 180 q 691 105 679 129 q 732 82 703 82 q 768 87 749 82 l 768 0 q 692 -14 724 -14 q 598 18 630 -14 q 562 118 566 50 l 560 118 q 357 -14 488 -14 q 275 0 312 -14 q 217 40 238 14 l 217 -288 l 95 -288 z "},"¶":{"ha":746,"x_min":54,"x_max":687,"o":"m 600 886 l 600 -179 l 524 -179 l 524 886 l 376 886 l 376 -179 l 300 -179 l 300 471 q 120 533 186 471 q 54 711 54 596 q 121 891 54 826 q 305 956 188 956 l 687 956 l 687 886 l 600 886 z "},"·":{"ha":463,"x_min":165,"x_max":297,"o":"m 165 302 l 165 452 l 297 452 l 297 302 l 165 302 z "},"¸":{"ha":463,"x_min":81,"x_max":328,"o":"m 328 -172 q 142 -294 328 -294 q 81 -292 103 -294 l 81 -225 q 139 -229 114 -229 q 239 -174 239 -229 q 149 -122 239 -122 q 110 -123 119 -122 l 154 0 l 227 0 l 200 -68 q 296 -97 264 -70 q 328 -172 328 -125 z "},"¹":{"ha":463,"x_min":54,"x_max":432,"o":"m 54 382 l 54 454 l 197 454 l 197 875 l 60 781 l 60 863 l 203 956 l 286 956 l 286 454 l 432 454 l 432 382 l 54 382 z "},"º":{"ha":507,"x_min":18,"x_max":490,"o":"m 490 707 q 431 510 490 579 q 252 441 371 441 q 78 510 138 441 q 18 707 18 578 q 79 903 18 835 q 255 971 139 971 q 490 707 490 971 m 389 707 q 358 856 389 811 q 257 900 328 900 q 153 854 184 900 q 121 707 121 808 q 152 561 121 608 q 252 513 183 513 q 358 559 327 513 q 389 707 389 606 z "},"»":{"ha":772,"x_min":56,"x_max":716,"o":"m 487 96 l 373 96 l 373 115 l 602 364 l 374 616 l 374 637 l 487 637 l 716 386 l 716 343 l 487 96 m 172 96 l 56 96 l 56 115 l 286 364 l 58 616 l 58 637 l 172 637 l 399 386 l 399 343 l 172 96 z "},"¼":{"ha":1158,"x_min":38,"x_max":1095,"o":"m 38 382 l 38 454 l 181 454 l 181 875 l 44 781 l 44 863 l 186 956 l 270 956 l 270 454 l 416 454 l 416 382 l 38 382 m 334 0 l 234 0 l 831 956 l 930 956 l 334 0 m 1019 122 l 1019 1 l 930 1 l 930 122 l 655 122 l 655 197 l 917 575 l 1019 575 l 1019 199 l 1095 199 l 1095 122 l 1019 122 m 932 485 q 876 393 918 458 l 741 199 l 930 199 l 930 443 l 932 485 z "},"½":{"ha":1158,"x_min":38,"x_max":1121,"o":"m 38 382 l 38 454 l 181 454 l 181 875 l 44 781 l 44 863 l 186 956 l 270 956 l 270 454 l 416 454 l 416 382 l 38 382 m 334 0 l 234 0 l 831 956 l 930 956 l 334 0 m 714 1 l 713 71 q 778 162 734 118 q 894 257 821 207 q 989 341 960 303 q 1019 418 1019 379 q 995 486 1019 460 q 921 511 971 511 q 845 487 875 511 q 810 416 815 462 l 720 421 q 783 538 728 494 q 925 583 838 583 q 1062 542 1011 583 q 1112 425 1112 500 q 985 232 1112 326 q 868 140 902 171 q 821 78 834 109 l 1121 78 l 1121 1 l 714 1 z "},"¾":{"ha":1158,"x_min":50,"x_max":1095,"o":"m 348 0 l 248 0 l 845 956 l 943 956 l 348 0 m 1019 122 l 1019 1 l 930 1 l 930 122 l 655 122 l 655 197 l 917 575 l 1019 575 l 1019 199 l 1095 199 l 1095 122 l 1019 122 m 932 485 q 876 393 918 458 l 741 199 l 930 199 l 930 443 l 932 485 m 467 539 q 414 417 467 460 q 265 374 361 374 q 50 528 71 374 l 142 536 q 265 444 154 444 q 374 545 374 444 q 245 637 374 637 l 204 637 l 204 711 l 243 711 q 328 736 297 711 q 359 804 359 760 q 334 868 359 845 q 261 892 309 892 q 186 868 215 892 q 154 800 158 844 l 62 808 q 124 923 71 882 q 264 964 178 964 q 402 923 352 964 q 452 817 452 883 q 423 728 452 766 q 333 677 394 691 l 333 676 q 431 634 395 670 q 467 539 467 599 z "},"¿":{"ha":848,"x_min":89,"x_max":753,"o":"m 89 34 q 104 125 89 85 q 146 199 119 165 q 237 279 174 233 l 292 319 q 364 393 340 354 q 389 478 388 432 l 507 478 q 493 396 506 431 q 458 334 479 361 q 411 285 437 307 q 357 244 385 264 q 304 206 330 225 q 258 163 278 186 q 225 109 237 139 q 212 39 212 79 q 265 -83 212 -38 q 412 -127 317 -127 q 563 -80 507 -127 q 628 50 618 -33 l 753 42 q 647 -164 735 -92 q 414 -236 559 -236 q 176 -164 262 -236 q 89 34 89 -93 m 513 734 l 513 597 l 380 597 l 380 734 l 513 734 z "},"À":{"ha":926,"x_min":3,"x_max":924,"o":"m 791 0 l 682 279 l 247 279 l 137 0 l 3 0 l 393 956 l 540 956 l 924 0 l 791 0 m 465 858 l 458 839 q 408 694 441 783 l 286 380 l 644 380 l 521 696 q 483 802 502 743 l 465 858 m 509 1038 l 298 1185 l 298 1204 l 439 1204 l 586 1051 l 586 1038 l 509 1038 z "},"Á":{"ha":926,"x_min":3,"x_max":924,"o":"m 791 0 l 682 279 l 247 279 l 137 0 l 3 0 l 393 956 l 540 956 l 924 0 l 791 0 m 465 858 l 458 839 q 408 694 441 783 l 286 380 l 644 380 l 521 696 q 483 802 502 743 l 465 858 m 371 1038 l 371 1051 l 518 1204 l 659 1204 l 659 1185 l 448 1038 l 371 1038 z "},"Â":{"ha":926,"x_min":3,"x_max":924,"o":"m 791 0 l 682 279 l 247 279 l 137 0 l 3 0 l 393 956 l 540 956 l 924 0 l 791 0 m 465 858 l 458 839 q 408 694 441 783 l 286 380 l 644 380 l 521 696 q 483 802 502 743 l 465 858 m 688 1051 l 688 1038 l 616 1038 l 468 1132 l 467 1132 l 309 1038 l 239 1038 l 239 1051 l 397 1214 l 536 1214 l 688 1051 z "},"Ã":{"ha":926,"x_min":3,"x_max":924,"o":"m 791 0 l 682 279 l 247 279 l 137 0 l 3 0 l 393 956 l 540 956 l 924 0 l 791 0 m 465 858 l 458 839 q 408 694 441 783 l 286 380 l 644 380 l 521 696 q 483 802 502 743 l 465 858 m 571 1038 q 514 1050 543 1038 q 459 1078 486 1063 q 409 1106 433 1093 q 363 1118 385 1118 q 308 1097 326 1118 q 283 1038 290 1076 l 222 1038 q 245 1142 229 1107 q 289 1199 262 1178 q 359 1219 317 1219 q 418 1207 389 1219 q 473 1179 446 1194 q 523 1151 499 1164 q 566 1139 546 1139 q 646 1219 634 1139 l 708 1219 q 663 1078 696 1119 q 571 1038 629 1038 z "},"Ä":{"ha":926,"x_min":3,"x_max":924,"o":"m 791 0 l 682 279 l 247 279 l 137 0 l 3 0 l 393 956 l 540 956 l 924 0 l 791 0 m 465 858 l 458 839 q 408 694 441 783 l 286 380 l 644 380 l 521 696 q 483 802 502 743 l 465 858 m 545 1038 l 545 1162 l 655 1162 l 655 1038 l 545 1038 m 277 1038 l 277 1162 l 389 1162 l 389 1038 l 277 1038 z "},"Å":{"ha":926,"x_min":3,"x_max":924,"o":"m 791 0 l 682 279 l 247 279 l 137 0 l 3 0 l 393 956 l 540 956 l 924 0 l 791 0 m 465 858 l 458 839 q 408 694 441 783 l 286 380 l 644 380 l 521 696 q 483 802 502 743 l 465 858 m 629 1048 q 581 932 629 981 q 465 884 533 884 q 349 932 397 884 q 301 1048 301 981 q 349 1164 301 1117 q 465 1212 397 1212 q 581 1164 532 1212 q 629 1048 629 1116 m 556 1048 q 530 1113 556 1086 q 465 1139 503 1139 q 400 1113 427 1139 q 374 1048 374 1086 q 399 983 374 1011 q 465 956 425 956 q 530 983 505 956 q 556 1048 556 1010 z "},"Æ":{"ha":1389,"x_min":16,"x_max":1329,"o":"m 657 0 l 657 279 l 286 279 l 151 0 l 16 0 l 481 956 l 1301 956 l 1301 850 l 787 850 l 787 543 l 1261 543 l 1261 439 l 787 439 l 787 106 l 1329 106 l 1329 0 l 657 0 m 657 856 l 555 856 l 536 813 l 333 380 l 657 380 l 657 856 z "},"Ç":{"ha":1003,"x_min":71,"x_max":950,"o":"m 537 864 q 290 762 378 864 q 202 482 202 660 q 294 200 202 307 q 543 93 386 93 q 844 292 743 93 l 950 239 q 784 51 891 115 q 536 -14 677 -14 q 287 46 392 -14 q 126 218 181 106 q 71 482 71 330 q 194 840 71 711 q 536 970 317 970 q 791 910 688 970 q 941 733 893 850 l 819 692 q 712 820 785 776 q 537 864 638 864 m 673 -172 q 488 -294 673 -294 q 427 -292 449 -294 l 427 -225 q 485 -229 460 -229 q 585 -174 585 -229 q 494 -122 585 -122 q 456 -123 465 -122 l 500 0 l 572 0 l 546 -68 q 642 -97 610 -70 q 673 -172 673 -125 z "},"È":{"ha":926,"x_min":114,"x_max":867,"o":"m 114 0 l 114 956 l 839 956 l 839 850 l 243 850 l 243 543 l 798 543 l 798 439 l 243 439 l 243 106 l 867 106 l 867 0 l 114 0 m 498 1038 l 288 1185 l 288 1204 l 429 1204 l 576 1051 l 576 1038 l 498 1038 z "},"É":{"ha":926,"x_min":114,"x_max":867,"o":"m 114 0 l 114 956 l 839 956 l 839 850 l 243 850 l 243 543 l 798 543 l 798 439 l 243 439 l 243 106 l 867 106 l 867 0 l 114 0 m 374 1038 l 374 1051 l 521 1204 l 661 1204 l 661 1185 l 451 1038 l 374 1038 z "},"Ê":{"ha":926,"x_min":114,"x_max":867,"o":"m 114 0 l 114 956 l 839 956 l 839 850 l 243 850 l 243 543 l 798 543 l 798 439 l 243 439 l 243 106 l 867 106 l 867 0 l 114 0 m 703 1051 l 703 1038 l 632 1038 l 484 1132 l 482 1132 l 325 1038 l 254 1038 l 254 1051 l 413 1214 l 551 1214 l 703 1051 z "},"Ë":{"ha":926,"x_min":114,"x_max":867,"o":"m 114 0 l 114 956 l 839 956 l 839 850 l 243 850 l 243 543 l 798 543 l 798 439 l 243 439 l 243 106 l 867 106 l 867 0 l 114 0 m 553 1038 l 553 1162 l 664 1162 l 664 1038 l 553 1038 m 286 1038 l 286 1162 l 398 1162 l 398 1038 l 286 1038 z "},"Ì":{"ha":386,"x_min":6,"x_max":294,"o":"m 128 0 l 128 956 l 258 956 l 258 0 l 128 0 m 216 1038 l 6 1185 l 6 1204 l 146 1204 l 294 1051 l 294 1038 l 216 1038 z "},"Í":{"ha":386,"x_min":96,"x_max":384,"o":"m 128 0 l 128 956 l 258 956 l 258 0 l 128 0 m 96 1038 l 96 1051 l 243 1204 l 384 1204 l 384 1185 l 174 1038 l 96 1038 z "},"Î":{"ha":386,"x_min":-31,"x_max":418,"o":"m 128 0 l 128 956 l 258 956 l 258 0 l 128 0 m 418 1051 l 418 1038 l 347 1038 l 198 1132 l 197 1132 l 39 1038 l -31 1038 l -31 1051 l 127 1214 l 266 1214 l 418 1051 z "},"Ï":{"ha":386,"x_min":5,"x_max":382,"o":"m 128 0 l 128 956 l 258 956 l 258 0 l 128 0 m 272 1038 l 272 1162 l 382 1162 l 382 1038 l 272 1038 m 5 1038 l 5 1162 l 117 1162 l 117 1038 l 5 1038 z "},"Ð":{"ha":1003,"x_min":9,"x_max":937,"o":"m 9 543 l 114 543 l 114 956 l 430 956 q 805 834 673 956 q 937 488 937 712 q 879 229 937 340 q 715 59 821 118 q 471 0 610 0 l 114 0 l 114 439 l 9 439 l 9 543 m 806 488 q 709 759 806 665 q 427 852 612 852 l 243 852 l 243 543 l 519 543 l 519 439 l 243 439 l 243 104 l 456 104 q 641 150 562 104 q 764 283 721 196 q 806 488 806 370 z "},"Ñ":{"ha":1003,"x_min":114,"x_max":890,"o":"m 734 0 l 222 814 l 226 748 l 229 635 l 229 0 l 114 0 l 114 956 l 264 956 l 781 136 q 773 329 773 269 l 773 956 l 890 956 l 890 0 l 734 0 m 616 1038 q 559 1050 588 1038 q 505 1078 531 1063 q 454 1106 478 1093 q 409 1118 430 1118 q 353 1097 372 1118 q 329 1038 335 1076 l 267 1038 q 291 1142 275 1107 q 335 1199 307 1178 q 405 1219 362 1219 q 463 1207 435 1219 q 518 1179 492 1194 q 568 1151 545 1164 q 612 1139 591 1139 q 691 1219 680 1139 l 753 1219 q 708 1078 742 1119 q 616 1038 674 1038 z "},"Ò":{"ha":1080,"x_min":66,"x_max":1014,"o":"m 1014 482 q 957 220 1014 332 q 792 47 899 107 q 539 -14 685 -14 q 285 46 392 -14 q 122 219 178 106 q 66 482 66 332 q 191 841 66 711 q 541 970 317 970 q 793 912 686 970 q 957 743 901 854 q 1014 482 1014 633 m 882 482 q 792 762 882 661 q 541 864 703 864 q 287 764 376 864 q 197 482 197 663 q 288 197 197 302 q 539 92 378 92 q 793 194 705 92 q 882 482 882 296 m 579 1038 l 369 1185 l 369 1204 l 509 1204 l 656 1051 l 656 1038 l 579 1038 z "},"Ó":{"ha":1080,"x_min":66,"x_max":1014,"o":"m 1014 482 q 957 220 1014 332 q 792 47 899 107 q 539 -14 685 -14 q 285 46 392 -14 q 122 219 178 106 q 66 482 66 332 q 191 841 66 711 q 541 970 317 970 q 793 912 686 970 q 957 743 901 854 q 1014 482 1014 633 m 882 482 q 792 762 882 661 q 541 864 703 864 q 287 764 376 864 q 197 482 197 663 q 288 197 197 302 q 539 92 378 92 q 793 194 705 92 q 882 482 882 296 m 421 1038 l 421 1051 l 568 1204 l 709 1204 l 709 1185 l 498 1038 l 421 1038 z "},"Ô":{"ha":1080,"x_min":66,"x_max":1014,"o":"m 1014 482 q 957 220 1014 332 q 792 47 899 107 q 539 -14 685 -14 q 285 46 392 -14 q 122 219 178 106 q 66 482 66 332 q 191 841 66 711 q 541 970 317 970 q 793 912 686 970 q 957 743 901 854 q 1014 482 1014 633 m 882 482 q 792 762 882 661 q 541 864 703 864 q 287 764 376 864 q 197 482 197 663 q 288 197 197 302 q 539 92 378 92 q 793 194 705 92 q 882 482 882 296 m 767 1051 l 767 1038 l 696 1038 l 547 1132 l 546 1132 l 389 1038 l 318 1038 l 318 1051 l 477 1214 l 615 1214 l 767 1051 z "},"Õ":{"ha":1080,"x_min":66,"x_max":1014,"o":"m 1014 482 q 957 220 1014 332 q 792 47 899 107 q 539 -14 685 -14 q 285 46 392 -14 q 122 219 178 106 q 66 482 66 332 q 191 841 66 711 q 541 970 317 970 q 793 912 686 970 q 957 743 901 854 q 1014 482 1014 633 m 882 482 q 792 762 882 661 q 541 864 703 864 q 287 764 376 864 q 197 482 197 663 q 288 197 197 302 q 539 92 378 92 q 793 194 705 92 q 882 482 882 296 m 638 1038 q 581 1050 610 1038 q 526 1078 553 1063 q 476 1106 500 1093 q 431 1118 452 1118 q 375 1097 393 1118 q 351 1038 357 1076 l 289 1038 q 313 1142 296 1107 q 356 1199 329 1178 q 427 1219 384 1219 q 485 1207 456 1219 q 540 1179 513 1194 q 590 1151 566 1164 q 633 1139 613 1139 q 713 1219 701 1139 l 775 1219 q 730 1078 764 1119 q 638 1038 696 1038 z "},"Ö":{"ha":1080,"x_min":66,"x_max":1014,"o":"m 1014 482 q 957 220 1014 332 q 792 47 899 107 q 539 -14 685 -14 q 285 46 392 -14 q 122 219 178 106 q 66 482 66 332 q 191 841 66 711 q 541 970 317 970 q 793 912 686 970 q 957 743 901 854 q 1014 482 1014 633 m 882 482 q 792 762 882 661 q 541 864 703 864 q 287 764 376 864 q 197 482 197 663 q 288 197 197 302 q 539 92 378 92 q 793 194 705 92 q 882 482 882 296 m 617 1038 l 617 1162 l 728 1162 l 728 1038 l 617 1038 m 350 1038 l 350 1162 l 462 1162 l 462 1038 l 350 1038 z "},"×":{"ha":811,"x_min":96,"x_max":715,"o":"m 96 224 l 336 464 l 98 703 l 168 772 l 406 533 l 643 771 l 714 700 l 477 464 l 715 225 l 646 154 l 407 393 l 165 153 l 96 224 z "},"Ø":{"ha":1080,"x_min":48,"x_max":1034,"o":"m 1014 482 q 957 220 1014 332 q 792 47 899 107 q 539 -14 685 -14 q 258 62 372 -14 l 177 -36 l 48 -36 l 184 127 q 66 482 66 258 q 191 841 66 711 q 541 970 317 970 q 821 895 708 970 l 903 994 l 1034 994 l 897 830 q 1014 482 1014 701 m 882 482 q 815 732 882 634 l 334 153 q 539 92 417 92 q 793 194 705 92 q 882 482 882 296 m 197 482 q 266 226 197 327 l 745 804 q 541 864 661 864 q 287 764 376 864 q 197 482 197 663 z "},"Ù":{"ha":1003,"x_min":107,"x_max":896,"o":"m 496 -14 q 291 29 378 -14 q 155 153 203 72 q 107 347 107 235 l 107 956 l 237 956 l 237 358 q 303 159 237 227 q 495 92 370 92 q 695 162 624 92 q 767 367 767 232 l 767 956 l 896 956 l 896 359 q 847 159 896 243 q 708 31 798 75 q 496 -14 618 -14 m 551 1038 l 341 1185 l 341 1204 l 481 1204 l 629 1051 l 629 1038 l 551 1038 z "},"Ú":{"ha":1003,"x_min":107,"x_max":896,"o":"m 496 -14 q 291 29 378 -14 q 155 153 203 72 q 107 347 107 235 l 107 956 l 237 956 l 237 358 q 303 159 237 227 q 495 92 370 92 q 695 162 624 92 q 767 367 767 232 l 767 956 l 896 956 l 896 359 q 847 159 896 243 q 708 31 798 75 q 496 -14 618 -14 m 383 1038 l 383 1051 l 530 1204 l 671 1204 l 671 1185 l 460 1038 l 383 1038 z "},"Û":{"ha":1003,"x_min":107,"x_max":896,"o":"m 496 -14 q 291 29 378 -14 q 155 153 203 72 q 107 347 107 235 l 107 956 l 237 956 l 237 358 q 303 159 237 227 q 495 92 370 92 q 695 162 624 92 q 767 367 767 232 l 767 956 l 896 956 l 896 359 q 847 159 896 243 q 708 31 798 75 q 496 -14 618 -14 m 726 1051 l 726 1038 l 654 1038 l 506 1132 l 505 1132 l 347 1038 l 277 1038 l 277 1051 l 435 1214 l 574 1214 l 726 1051 z "},"Ü":{"ha":1003,"x_min":107,"x_max":896,"o":"m 496 -14 q 291 29 378 -14 q 155 153 203 72 q 107 347 107 235 l 107 956 l 237 956 l 237 358 q 303 159 237 227 q 495 92 370 92 q 695 162 624 92 q 767 367 767 232 l 767 956 l 896 956 l 896 359 q 847 159 896 243 q 708 31 798 75 q 496 -14 618 -14 m 578 1038 l 578 1162 l 689 1162 l 689 1038 l 578 1038 m 311 1038 l 311 1162 l 423 1162 l 423 1038 l 311 1038 z "},"Ý":{"ha":926,"x_min":31,"x_max":896,"o":"m 527 396 l 527 0 l 398 0 l 398 396 l 31 956 l 173 956 l 464 500 l 753 956 l 896 956 l 527 396 m 363 1038 l 363 1051 l 511 1204 l 651 1204 l 651 1185 l 441 1038 l 363 1038 z "},"Þ":{"ha":926,"x_min":114,"x_max":853,"o":"m 853 498 q 814 344 853 412 q 700 239 774 277 q 524 201 626 201 l 243 201 l 243 0 l 114 0 l 114 956 l 243 956 l 243 785 l 516 785 q 766 709 678 785 q 853 498 853 634 m 723 496 q 667 637 723 587 q 500 688 612 688 l 243 688 l 243 297 l 506 297 q 666 350 610 297 q 723 496 723 402 z "},"ß":{"ha":848,"x_min":96,"x_max":791,"o":"m 791 200 q 728 42 791 98 q 549 -14 664 -14 q 357 20 433 -14 l 355 131 q 445 98 391 111 q 546 84 499 84 q 642 113 608 84 q 675 196 675 142 q 646 274 675 239 q 551 348 617 309 q 458 429 489 385 q 427 532 427 474 q 447 608 427 574 q 503 672 466 642 q 560 733 542 705 q 578 795 578 762 q 532 879 578 848 q 413 911 487 911 q 266 857 313 911 q 218 692 218 802 l 218 0 l 96 0 l 96 696 q 176 928 96 850 q 413 1006 256 1006 q 618 952 542 1006 q 694 805 694 897 q 618 638 694 708 q 553 573 564 589 q 541 536 541 556 q 560 491 541 511 q 606 451 578 471 q 667 410 634 432 q 791 200 791 326 z "},"à":{"ha":772,"x_min":59,"x_max":772,"o":"m 281 -14 q 115 45 170 -14 q 59 205 59 103 q 134 380 59 319 q 376 445 209 441 l 541 448 l 541 488 q 503 616 541 577 q 383 654 465 654 q 264 627 301 654 q 219 538 227 599 l 92 549 q 386 747 123 747 q 594 684 524 747 q 664 500 664 621 l 664 184 q 678 103 664 130 q 732 75 692 75 q 772 80 750 75 l 772 4 q 678 -7 726 -7 q 579 29 610 -7 q 545 140 549 64 l 541 140 q 432 21 494 56 q 281 -14 370 -14 m 309 78 q 428 109 376 78 q 510 192 480 139 q 541 302 541 245 l 541 362 l 407 359 q 276 342 321 358 q 208 292 232 326 q 184 203 184 258 q 217 111 184 143 q 309 78 249 78 m 423 814 l 199 1003 l 199 1023 l 340 1023 l 487 828 l 487 814 l 423 814 z "},"á":{"ha":772,"x_min":59,"x_max":772,"o":"m 281 -14 q 115 45 170 -14 q 59 205 59 103 q 134 380 59 319 q 376 445 209 441 l 541 448 l 541 488 q 503 616 541 577 q 383 654 465 654 q 264 627 301 654 q 219 538 227 599 l 92 549 q 386 747 123 747 q 594 684 524 747 q 664 500 664 621 l 664 184 q 678 103 664 130 q 732 75 692 75 q 772 80 750 75 l 772 4 q 678 -7 726 -7 q 579 29 610 -7 q 545 140 549 64 l 541 140 q 432 21 494 56 q 281 -14 370 -14 m 309 78 q 428 109 376 78 q 510 192 480 139 q 541 302 541 245 l 541 362 l 407 359 q 276 342 321 358 q 208 292 232 326 q 184 203 184 258 q 217 111 184 143 q 309 78 249 78 m 279 814 l 279 828 l 427 1023 l 567 1023 l 567 1003 l 343 814 l 279 814 z "},"â":{"ha":772,"x_min":59,"x_max":772,"o":"m 281 -14 q 115 45 170 -14 q 59 205 59 103 q 134 380 59 319 q 376 445 209 441 l 541 448 l 541 488 q 503 616 541 577 q 383 654 465 654 q 264 627 301 654 q 219 538 227 599 l 92 549 q 386 747 123 747 q 594 684 524 747 q 664 500 664 621 l 664 184 q 678 103 664 130 q 732 75 692 75 q 772 80 750 75 l 772 4 q 678 -7 726 -7 q 579 29 610 -7 q 545 140 549 64 l 541 140 q 432 21 494 56 q 281 -14 370 -14 m 309 78 q 428 109 376 78 q 510 192 480 139 q 541 302 541 245 l 541 362 l 407 359 q 276 342 321 358 q 208 292 232 326 q 184 203 184 258 q 217 111 184 143 q 309 78 249 78 m 597 828 l 597 814 l 526 814 l 377 929 l 376 929 l 218 814 l 148 814 l 148 828 l 307 1011 l 445 1011 l 597 828 z "},"ã":{"ha":772,"x_min":59,"x_max":772,"o":"m 281 -14 q 115 45 170 -14 q 59 205 59 103 q 134 380 59 319 q 376 445 209 441 l 541 448 l 541 488 q 503 616 541 577 q 383 654 465 654 q 264 627 301 654 q 219 538 227 599 l 92 549 q 386 747 123 747 q 594 684 524 747 q 664 500 664 621 l 664 184 q 678 103 664 130 q 732 75 692 75 q 772 80 750 75 l 772 4 q 678 -7 726 -7 q 579 29 610 -7 q 545 140 549 64 l 541 140 q 432 21 494 56 q 281 -14 370 -14 m 309 78 q 428 109 376 78 q 510 192 480 139 q 541 302 541 245 l 541 362 l 407 359 q 276 342 321 358 q 208 292 232 326 q 184 203 184 258 q 217 111 184 143 q 309 78 249 78 m 500 814 q 443 827 471 814 q 388 855 414 840 q 337 883 361 870 q 292 895 313 895 q 237 874 255 895 q 212 814 218 853 l 151 814 q 174 919 158 884 q 218 976 191 955 q 288 996 245 996 q 347 984 318 996 q 401 956 375 971 q 451 928 428 941 q 495 916 475 916 q 574 996 563 916 l 637 996 q 591 855 625 896 q 500 814 557 814 z "},"ä":{"ha":772,"x_min":59,"x_max":772,"o":"m 281 -14 q 115 45 170 -14 q 59 205 59 103 q 134 380 59 319 q 376 445 209 441 l 541 448 l 541 488 q 503 616 541 577 q 383 654 465 654 q 264 627 301 654 q 219 538 227 599 l 92 549 q 386 747 123 747 q 594 684 524 747 q 664 500 664 621 l 664 184 q 678 103 664 130 q 732 75 692 75 q 772 80 750 75 l 772 4 q 678 -7 726 -7 q 579 29 610 -7 q 545 140 549 64 l 541 140 q 432 21 494 56 q 281 -14 370 -14 m 309 78 q 428 109 376 78 q 510 192 480 139 q 541 302 541 245 l 541 362 l 407 359 q 276 342 321 358 q 208 292 232 326 q 184 203 184 258 q 217 111 184 143 q 309 78 249 78 m 457 827 l 457 951 l 568 951 l 568 827 l 457 827 m 190 827 l 190 951 l 302 951 l 302 827 l 190 827 z "},"å":{"ha":772,"x_min":59,"x_max":772,"o":"m 281 -14 q 115 45 170 -14 q 59 205 59 103 q 134 380 59 319 q 376 445 209 441 l 541 448 l 541 488 q 503 616 541 577 q 383 654 465 654 q 264 627 301 654 q 219 538 227 599 l 92 549 q 386 747 123 747 q 594 684 524 747 q 664 500 664 621 l 664 184 q 678 103 664 130 q 732 75 692 75 q 772 80 750 75 l 772 4 q 678 -7 726 -7 q 579 29 610 -7 q 545 140 549 64 l 541 140 q 432 21 494 56 q 281 -14 370 -14 m 309 78 q 428 109 376 78 q 510 192 480 139 q 541 302 541 245 l 541 362 l 407 359 q 276 342 321 358 q 208 292 232 326 q 184 203 184 258 q 217 111 184 143 q 309 78 249 78 m 542 956 q 494 840 542 888 q 378 792 446 792 q 262 840 310 792 q 214 956 214 888 q 262 1072 214 1025 q 378 1120 310 1120 q 493 1072 445 1120 q 542 956 542 1024 m 469 956 q 442 1021 469 994 q 378 1047 416 1047 q 313 1021 339 1047 q 286 956 286 994 q 312 891 286 919 q 378 863 338 863 q 443 891 417 863 q 469 956 469 918 z "},"æ":{"ha":1235,"x_min":45,"x_max":1173,"o":"m 656 341 l 656 330 q 709 142 658 207 q 854 78 760 78 q 982 110 934 78 q 1046 191 1029 142 l 1154 160 q 854 -14 1088 -14 q 568 161 637 -14 q 443 26 514 66 q 273 -14 372 -14 q 102 45 159 -14 q 45 205 45 103 q 125 382 45 323 q 370 445 206 442 l 533 448 l 533 488 q 495 617 533 579 q 376 654 458 654 q 252 627 290 654 q 205 538 214 600 l 77 549 q 378 747 109 747 q 615 653 548 747 q 850 747 695 747 q 1173 357 1173 747 l 1173 341 l 656 341 m 533 362 l 401 359 q 263 339 311 357 q 193 287 215 321 q 170 203 170 253 q 204 111 170 144 q 301 78 238 78 q 422 108 370 78 q 504 191 474 138 q 533 302 533 243 l 533 362 m 1047 435 q 988 604 1037 551 q 848 657 939 657 q 712 599 762 657 q 658 435 662 541 l 1047 435 z "},"ç":{"ha":694,"x_min":59,"x_max":658,"o":"m 186 370 q 233 153 186 224 q 372 83 279 83 q 480 118 437 83 q 534 227 524 153 l 658 218 q 568 50 644 113 q 375 -14 492 -14 q 140 84 221 -14 q 59 368 59 181 q 140 650 59 553 q 374 747 222 747 q 561 689 486 747 q 654 528 635 631 l 528 519 q 480 616 519 580 q 370 652 441 652 q 230 587 273 652 q 186 370 186 523 m 509 -172 q 323 -294 509 -294 q 262 -292 285 -294 l 262 -225 q 321 -229 296 -229 q 420 -174 420 -229 q 330 -122 420 -122 q 292 -123 301 -122 l 336 0 l 408 0 l 382 -68 q 477 -97 446 -70 q 509 -172 509 -125 z "},"è":{"ha":772,"x_min":59,"x_max":711,"o":"m 187 341 q 239 146 187 215 q 392 78 292 78 q 519 110 471 78 q 584 191 567 142 l 691 160 q 392 -14 625 -14 q 144 83 229 -14 q 59 372 59 180 q 144 650 59 553 q 387 747 229 747 q 711 357 711 747 l 711 341 l 187 341 m 585 435 q 526 604 574 551 q 385 657 477 657 q 244 598 296 657 q 189 435 193 538 l 585 435 m 446 814 l 222 1003 l 222 1023 l 362 1023 l 509 828 l 509 814 l 446 814 z "},"é":{"ha":772,"x_min":59,"x_max":711,"o":"m 187 341 q 239 146 187 215 q 392 78 292 78 q 519 110 471 78 q 584 191 567 142 l 691 160 q 392 -14 625 -14 q 144 83 229 -14 q 59 372 59 180 q 144 650 59 553 q 387 747 229 747 q 711 357 711 747 l 711 341 l 187 341 m 585 435 q 526 604 574 551 q 385 657 477 657 q 244 598 296 657 q 189 435 193 538 l 585 435 m 298 814 l 298 828 l 446 1023 l 586 1023 l 586 1003 l 362 814 l 298 814 z "},"ê":{"ha":772,"x_min":59,"x_max":711,"o":"m 187 341 q 239 146 187 215 q 392 78 292 78 q 519 110 471 78 q 584 191 567 142 l 691 160 q 392 -14 625 -14 q 144 83 229 -14 q 59 372 59 180 q 144 650 59 553 q 387 747 229 747 q 711 357 711 747 l 711 341 l 187 341 m 585 435 q 526 604 574 551 q 385 657 477 657 q 244 598 296 657 q 189 435 193 538 l 585 435 m 615 828 l 615 814 l 544 814 l 395 929 l 394 929 l 237 814 l 166 814 l 166 828 l 325 1011 l 463 1011 l 615 828 z "},"ë":{"ha":772,"x_min":59,"x_max":711,"o":"m 187 341 q 239 146 187 215 q 392 78 292 78 q 519 110 471 78 q 584 191 567 142 l 691 160 q 392 -14 625 -14 q 144 83 229 -14 q 59 372 59 180 q 144 650 59 553 q 387 747 229 747 q 711 357 711 747 l 711 341 l 187 341 m 585 435 q 526 604 574 551 q 385 657 477 657 q 244 598 296 657 q 189 435 193 538 l 585 435 m 466 827 l 466 951 l 576 951 l 576 827 l 466 827 m 199 827 l 199 951 l 311 951 l 311 827 l 199 827 z "},"ì":{"ha":386,"x_min":7,"x_max":294,"o":"m 132 0 l 132 734 l 254 734 l 254 0 l 132 0 m 231 814 l 7 1003 l 7 1023 l 147 1023 l 294 828 l 294 814 l 231 814 z "},"í":{"ha":386,"x_min":92,"x_max":379,"o":"m 132 0 l 132 734 l 254 734 l 254 0 l 132 0 m 92 814 l 92 828 l 239 1023 l 379 1023 l 379 1003 l 155 814 l 92 814 z "},"î":{"ha":386,"x_min":-31,"x_max":418,"o":"m 132 0 l 132 734 l 254 734 l 254 0 l 132 0 m 418 828 l 418 814 l 347 814 l 199 929 l 197 929 l 40 814 l -31 814 l -31 828 l 128 1011 l 267 1011 l 418 828 z "},"ï":{"ha":386,"x_min":5,"x_max":383,"o":"m 132 0 l 132 734 l 254 734 l 254 0 l 132 0 m 273 827 l 273 951 l 383 951 l 383 827 l 273 827 m 5 827 l 5 951 l 117 951 l 117 827 l 5 827 z "},"ð":{"ha":772,"x_min":58,"x_max":721,"o":"m 384 -14 q 142 74 227 -14 q 58 326 58 161 q 142 578 58 492 q 389 664 227 664 q 545 624 481 664 q 387 848 471 771 l 182 758 l 182 836 l 330 899 q 166 1006 256 958 l 308 1006 q 423 937 362 982 l 631 1027 l 630 951 l 487 888 q 662 645 603 783 q 721 350 721 507 l 721 346 q 636 78 721 169 q 384 -14 552 -14 m 593 326 q 545 515 593 456 q 391 574 497 574 q 236 515 285 574 q 186 326 186 456 q 235 137 186 197 q 382 77 284 77 q 542 136 492 77 q 593 326 593 195 z "},"ñ":{"ha":772,"x_min":95,"x_max":685,"o":"m 562 0 l 562 465 q 548 578 562 538 q 503 635 534 618 q 411 653 471 653 q 272 593 323 653 q 221 425 221 532 l 221 0 l 99 0 l 99 577 q 95 734 99 705 l 210 734 q 212 715 211 730 q 213 681 212 701 q 216 608 214 662 l 218 608 q 315 716 260 684 q 452 747 370 747 q 629 687 573 747 q 685 489 685 627 l 685 0 l 562 0 m 500 814 q 443 827 471 814 q 388 855 414 840 q 337 883 361 870 q 292 895 313 895 q 237 874 255 895 q 212 814 218 853 l 151 814 q 174 919 158 884 q 218 976 191 955 q 288 996 245 996 q 347 984 318 996 q 401 956 375 971 q 451 928 428 941 q 495 916 475 916 q 574 996 563 916 l 637 996 q 591 855 625 896 q 500 814 557 814 z "},"ò":{"ha":772,"x_min":58,"x_max":714,"o":"m 714 368 q 629 81 714 175 q 383 -14 545 -14 q 140 84 222 -14 q 58 368 58 182 q 387 747 58 747 q 635 655 555 747 q 714 368 714 562 m 586 368 q 541 588 586 519 q 389 657 496 657 q 234 587 282 657 q 186 368 186 517 q 234 150 186 222 q 382 77 281 77 q 539 147 492 77 q 586 368 586 218 m 447 814 l 223 1003 l 223 1023 l 363 1023 l 511 828 l 511 814 l 447 814 z "},"ó":{"ha":772,"x_min":58,"x_max":714,"o":"m 714 368 q 629 81 714 175 q 383 -14 545 -14 q 140 84 222 -14 q 58 368 58 182 q 387 747 58 747 q 635 655 555 747 q 714 368 714 562 m 586 368 q 541 588 586 519 q 389 657 496 657 q 234 587 282 657 q 186 368 186 517 q 234 150 186 222 q 382 77 281 77 q 539 147 492 77 q 586 368 586 218 m 292 814 l 292 828 l 439 1023 l 580 1023 l 580 1003 l 356 814 l 292 814 z "},"ô":{"ha":772,"x_min":58,"x_max":714,"o":"m 714 368 q 629 81 714 175 q 383 -14 545 -14 q 140 84 222 -14 q 58 368 58 182 q 387 747 58 747 q 635 655 555 747 q 714 368 714 562 m 586 368 q 541 588 586 519 q 389 657 496 657 q 234 587 282 657 q 186 368 186 517 q 234 150 186 222 q 382 77 281 77 q 539 147 492 77 q 586 368 586 218 m 612 828 l 612 814 l 541 814 l 392 929 l 391 929 l 233 814 l 163 814 l 163 828 l 321 1011 l 460 1011 l 612 828 z "},"õ":{"ha":772,"x_min":58,"x_max":714,"o":"m 714 368 q 629 81 714 175 q 383 -14 545 -14 q 140 84 222 -14 q 58 368 58 182 q 387 747 58 747 q 635 655 555 747 q 714 368 714 562 m 586 368 q 541 588 586 519 q 389 657 496 657 q 234 587 282 657 q 186 368 186 517 q 234 150 186 222 q 382 77 281 77 q 539 147 492 77 q 586 368 586 218 m 501 814 q 444 827 473 814 q 389 855 416 840 q 339 883 363 870 q 294 895 315 895 q 238 874 256 895 q 214 814 220 853 l 152 814 q 176 919 159 884 q 219 976 192 955 q 290 996 247 996 q 348 984 319 996 q 403 956 376 971 q 453 928 429 941 q 496 916 476 916 q 576 996 564 916 l 638 996 q 593 855 627 896 q 501 814 559 814 z "},"ö":{"ha":772,"x_min":58,"x_max":714,"o":"m 714 368 q 629 81 714 175 q 383 -14 545 -14 q 140 84 222 -14 q 58 368 58 182 q 387 747 58 747 q 635 655 555 747 q 714 368 714 562 m 586 368 q 541 588 586 519 q 389 657 496 657 q 234 587 282 657 q 186 368 186 517 q 234 150 186 222 q 382 77 281 77 q 539 147 492 77 q 586 368 586 218 m 467 827 l 467 951 l 578 951 l 578 827 l 467 827 m 200 827 l 200 951 l 312 951 l 312 827 l 200 827 z "},"÷":{"ha":762,"x_min":44,"x_max":719,"o":"m 324 650 l 324 774 l 438 774 l 438 650 l 324 650 m 44 412 l 44 511 l 719 511 l 719 412 l 44 412 m 324 151 l 324 275 l 438 275 l 438 151 l 324 151 z "},"ø":{"ha":848,"x_min":30,"x_max":817,"o":"m 754 368 q 669 81 754 175 q 423 -14 585 -14 q 211 53 291 -14 l 143 -26 l 30 -26 l 155 119 q 98 368 98 213 q 427 747 98 747 q 642 686 564 747 l 703 757 l 817 757 l 699 621 q 754 368 754 530 m 626 368 q 610 517 626 455 l 283 136 q 422 77 329 77 q 579 147 532 77 q 626 368 626 218 m 227 368 q 243 222 227 279 l 570 602 q 429 657 524 657 q 274 587 322 657 q 227 368 227 517 z "},"ù":{"ha":772,"x_min":94,"x_max":684,"o":"m 217 734 l 217 269 q 231 156 217 196 q 277 98 245 116 q 368 81 308 81 q 507 141 456 81 q 558 309 558 201 l 558 734 l 680 734 l 680 157 q 684 0 680 28 l 569 0 q 568 18 568 3 q 566 53 567 33 q 564 125 565 72 l 562 125 q 464 18 519 50 q 327 -14 409 -14 q 150 46 206 -14 q 94 245 94 106 l 94 734 l 217 734 m 456 814 l 232 1003 l 232 1023 l 372 1023 l 519 828 l 519 814 l 456 814 z "},"ú":{"ha":772,"x_min":94,"x_max":684,"o":"m 217 734 l 217 269 q 231 156 217 196 q 277 98 245 116 q 368 81 308 81 q 507 141 456 81 q 558 309 558 201 l 558 734 l 680 734 l 680 157 q 684 0 680 28 l 569 0 q 568 18 568 3 q 566 53 567 33 q 564 125 565 72 l 562 125 q 464 18 519 50 q 327 -14 409 -14 q 150 46 206 -14 q 94 245 94 106 l 94 734 l 217 734 m 281 814 l 281 828 l 429 1023 l 569 1023 l 569 1003 l 345 814 l 281 814 z "},"û":{"ha":772,"x_min":94,"x_max":684,"o":"m 217 734 l 217 269 q 231 156 217 196 q 277 98 245 116 q 368 81 308 81 q 507 141 456 81 q 558 309 558 201 l 558 734 l 680 734 l 680 157 q 684 0 680 28 l 569 0 q 568 18 568 3 q 566 53 567 33 q 564 125 565 72 l 562 125 q 464 18 519 50 q 327 -14 409 -14 q 150 46 206 -14 q 94 245 94 106 l 94 734 l 217 734 m 611 828 l 611 814 l 540 814 l 391 929 l 390 929 l 233 814 l 162 814 l 162 828 l 321 1011 l 459 1011 l 611 828 z "},"ü":{"ha":772,"x_min":94,"x_max":684,"o":"m 217 734 l 217 269 q 231 156 217 196 q 277 98 245 116 q 368 81 308 81 q 507 141 456 81 q 558 309 558 201 l 558 734 l 680 734 l 680 157 q 684 0 680 28 l 569 0 q 568 18 568 3 q 566 53 567 33 q 564 125 565 72 l 562 125 q 464 18 519 50 q 327 -14 409 -14 q 150 46 206 -14 q 94 245 94 106 l 94 734 l 217 734 m 458 827 l 458 951 l 569 951 l 569 827 l 458 827 m 191 827 l 191 951 l 303 951 l 303 827 l 191 827 z "},"ý":{"ha":694,"x_min":3,"x_max":692,"o":"m 130 -288 q 45 -281 79 -288 l 45 -189 q 102 -193 71 -193 q 283 -26 216 -193 l 294 3 l 3 734 l 134 734 l 288 328 q 296 306 292 319 q 327 217 301 292 q 355 133 353 142 l 402 267 l 563 734 l 692 734 l 410 0 q 325 -175 364 -117 q 238 -260 286 -232 q 130 -288 190 -288 m 241 814 l 241 828 l 388 1023 l 528 1023 l 528 1003 l 304 814 l 241 814 z "},"þ":{"ha":772,"x_min":94,"x_max":714,"o":"m 94 1006 l 216 1006 l 216 720 q 213 616 216 675 l 217 616 q 303 715 250 684 q 444 747 357 747 q 647 656 580 747 q 714 370 714 565 q 444 -14 714 -14 q 216 114 275 -14 l 213 114 q 216 -1 216 109 l 216 -288 l 94 -288 l 94 1006 m 586 368 q 545 587 586 521 q 413 652 503 652 q 299 622 340 652 q 237 527 258 591 q 216 358 216 462 q 262 145 216 214 q 412 77 308 77 q 544 143 503 77 q 586 368 586 210 z "},"ÿ":{"ha":694,"x_min":3,"x_max":692,"o":"m 130 -288 q 45 -281 79 -288 l 45 -189 q 102 -193 71 -193 q 283 -26 216 -193 l 294 3 l 3 734 l 134 734 l 288 328 q 296 306 292 319 q 327 217 301 292 q 355 133 353 142 l 402 267 l 563 734 l 692 734 l 410 0 q 325 -175 364 -117 q 238 -260 286 -232 q 130 -288 190 -288 m 425 827 l 425 951 l 535 951 l 535 827 l 425 827 m 157 827 l 157 951 l 269 951 l 269 827 l 157 827 z "},"Ā":{"ha":926,"x_min":3,"x_max":924,"o":"m 791 0 l 682 279 l 247 279 l 137 0 l 3 0 l 393 956 l 540 956 l 924 0 l 791 0 m 465 858 l 458 839 q 408 694 441 783 l 286 380 l 644 380 l 521 696 q 483 802 502 743 l 465 858 m 651 1061 l 279 1061 l 279 1147 l 651 1147 l 651 1061 z "},"ā":{"ha":772,"x_min":59,"x_max":772,"o":"m 281 -14 q 115 45 170 -14 q 59 205 59 103 q 134 380 59 319 q 376 445 209 441 l 541 448 l 541 488 q 503 616 541 577 q 383 654 465 654 q 264 627 301 654 q 219 538 227 599 l 92 549 q 386 747 123 747 q 594 684 524 747 q 664 500 664 621 l 664 184 q 678 103 664 130 q 732 75 692 75 q 772 80 750 75 l 772 4 q 678 -7 726 -7 q 579 29 610 -7 q 545 140 549 64 l 541 140 q 432 21 494 56 q 281 -14 370 -14 m 309 78 q 428 109 376 78 q 510 192 480 139 q 541 302 541 245 l 541 362 l 407 359 q 276 342 321 358 q 208 292 232 326 q 184 203 184 258 q 217 111 184 143 q 309 78 249 78 m 565 838 l 193 838 l 193 924 l 565 924 l 565 838 z "},"Ă":{"ha":926,"x_min":3,"x_max":924,"o":"m 791 0 l 682 279 l 247 279 l 137 0 l 3 0 l 393 956 l 540 956 l 924 0 l 791 0 m 465 858 l 458 839 q 408 694 441 783 l 286 380 l 644 380 l 521 696 q 483 802 502 743 l 465 858 m 465 1038 q 313 1084 374 1038 q 239 1206 252 1131 l 319 1206 q 367 1150 330 1171 q 466 1130 404 1130 q 564 1151 528 1130 q 612 1206 600 1171 l 691 1206 q 616 1083 677 1129 q 465 1038 555 1038 z "},"ă":{"ha":772,"x_min":59,"x_max":772,"o":"m 281 -14 q 115 45 170 -14 q 59 205 59 103 q 134 380 59 319 q 376 445 209 441 l 541 448 l 541 488 q 503 616 541 577 q 383 654 465 654 q 264 627 301 654 q 219 538 227 599 l 92 549 q 386 747 123 747 q 594 684 524 747 q 664 500 664 621 l 664 184 q 678 103 664 130 q 732 75 692 75 q 772 80 750 75 l 772 4 q 678 -7 726 -7 q 579 29 610 -7 q 545 140 549 64 l 541 140 q 432 21 494 56 q 281 -14 370 -14 m 309 78 q 428 109 376 78 q 510 192 480 139 q 541 302 541 245 l 541 362 l 407 359 q 276 342 321 358 q 208 292 232 326 q 184 203 184 258 q 217 111 184 143 q 309 78 249 78 m 380 814 q 229 872 290 814 q 155 1024 167 930 l 234 1024 q 381 920 253 920 q 527 1024 507 920 l 606 1024 q 531 871 592 928 q 380 814 471 814 z "},"Ą":{"ha":926,"x_min":3,"x_max":935,"o":"m 791 0 l 682 279 l 247 279 l 137 0 l 3 0 l 393 956 l 540 956 l 924 0 l 791 0 m 465 858 l 458 839 q 408 694 441 783 l 286 380 l 644 380 l 521 696 q 483 802 502 743 l 465 858 m 935 -264 q 841 -282 892 -282 q 734 -248 770 -282 q 698 -155 698 -213 q 727 -63 698 -108 q 803 7 757 -18 l 893 7 q 859 -17 876 -2 q 826 -53 841 -33 q 803 -96 812 -73 q 793 -146 793 -120 q 810 -191 793 -175 q 857 -208 827 -208 q 935 -191 894 -208 l 935 -264 z "},"ą":{"ha":772,"x_min":59,"x_max":772,"o":"m 281 -14 q 115 45 170 -14 q 59 205 59 103 q 134 380 59 319 q 376 445 209 441 l 541 448 l 541 488 q 503 616 541 577 q 383 654 465 654 q 264 627 301 654 q 219 538 227 599 l 92 549 q 386 747 123 747 q 594 684 524 747 q 664 500 664 621 l 664 184 q 678 103 664 130 q 732 75 692 75 q 772 80 750 75 l 772 4 q 678 -7 726 -7 q 579 29 610 -7 q 545 140 549 64 l 541 140 q 432 21 494 56 q 281 -14 370 -14 m 309 78 q 428 109 376 78 q 510 192 480 139 q 541 302 541 245 l 541 362 l 407 359 q 276 342 321 358 q 208 292 232 326 q 184 203 184 258 q 217 111 184 143 q 309 78 249 78 m 772 -271 q 678 -290 730 -290 q 571 -255 607 -290 q 535 -163 535 -220 q 565 -71 535 -115 q 640 0 594 -26 l 730 0 q 696 -25 713 -9 q 664 -60 678 -40 q 640 -104 649 -80 q 631 -154 631 -127 q 647 -199 631 -182 q 694 -215 664 -215 q 772 -199 731 -215 l 772 -271 z "},"Ć":{"ha":1003,"x_min":71,"x_max":950,"o":"m 537 864 q 290 762 378 864 q 202 482 202 660 q 294 200 202 307 q 543 93 386 93 q 844 292 743 93 l 950 239 q 784 51 891 115 q 536 -14 677 -14 q 287 46 392 -14 q 126 218 181 106 q 71 482 71 330 q 194 840 71 711 q 536 970 317 970 q 791 910 688 970 q 941 733 893 850 l 819 692 q 712 820 785 776 q 537 864 638 864 m 452 1038 l 452 1051 l 600 1204 l 740 1204 l 740 1185 l 530 1038 l 452 1038 z "},"ć":{"ha":694,"x_min":59,"x_max":658,"o":"m 186 370 q 233 153 186 224 q 372 83 279 83 q 480 118 437 83 q 534 227 524 153 l 658 218 q 568 50 644 113 q 375 -14 492 -14 q 140 84 221 -14 q 59 368 59 181 q 140 650 59 553 q 374 747 222 747 q 561 689 486 747 q 654 528 635 631 l 528 519 q 480 616 519 580 q 370 652 441 652 q 230 587 273 652 q 186 370 186 523 m 292 814 l 292 828 l 439 1023 l 580 1023 l 580 1003 l 356 814 l 292 814 z "},"Ĉ":{"ha":1003,"x_min":71,"x_max":950,"o":"m 537 864 q 290 762 378 864 q 202 482 202 660 q 294 200 202 307 q 543 93 386 93 q 844 292 743 93 l 950 239 q 784 51 891 115 q 536 -14 677 -14 q 287 46 392 -14 q 126 218 181 106 q 71 482 71 330 q 194 840 71 711 q 536 970 317 970 q 791 910 688 970 q 941 733 893 850 l 819 692 q 712 820 785 776 q 537 864 638 864 m 761 1051 l 761 1038 l 690 1038 l 541 1132 l 540 1132 l 382 1038 l 312 1038 l 312 1051 l 471 1214 l 609 1214 l 761 1051 z "},"ĉ":{"ha":694,"x_min":59,"x_max":658,"o":"m 186 370 q 233 153 186 224 q 372 83 279 83 q 480 118 437 83 q 534 227 524 153 l 658 218 q 568 50 644 113 q 375 -14 492 -14 q 140 84 221 -14 q 59 368 59 181 q 140 650 59 553 q 374 747 222 747 q 561 689 486 747 q 654 528 635 631 l 528 519 q 480 616 519 580 q 370 652 441 652 q 230 587 273 652 q 186 370 186 523 m 590 828 l 590 814 l 519 814 l 370 929 l 369 929 l 212 814 l 141 814 l 141 828 l 300 1011 l 438 1011 l 590 828 z "},"Ċ":{"ha":1003,"x_min":71,"x_max":950,"o":"m 537 864 q 290 762 378 864 q 202 482 202 660 q 294 200 202 307 q 543 93 386 93 q 844 292 743 93 l 950 239 q 784 51 891 115 q 536 -14 677 -14 q 287 46 392 -14 q 126 218 181 106 q 71 482 71 330 q 194 840 71 711 q 536 970 317 970 q 791 910 688 970 q 941 733 893 850 l 819 692 q 712 820 785 776 q 537 864 638 864 m 476 1088 l 476 1205 l 598 1205 l 598 1088 l 476 1088 z "},"ċ":{"ha":694,"x_min":59,"x_max":658,"o":"m 186 370 q 233 153 186 224 q 372 83 279 83 q 480 118 437 83 q 534 227 524 153 l 658 218 q 568 50 644 113 q 375 -14 492 -14 q 140 84 221 -14 q 59 368 59 181 q 140 650 59 553 q 374 747 222 747 q 561 689 486 747 q 654 528 635 631 l 528 519 q 480 616 519 580 q 370 652 441 652 q 230 587 273 652 q 186 370 186 523 m 309 890 l 309 1006 l 431 1006 l 431 890 l 309 890 z "},"Č":{"ha":1003,"x_min":71,"x_max":950,"o":"m 537 864 q 290 762 378 864 q 202 482 202 660 q 294 200 202 307 q 543 93 386 93 q 844 292 743 93 l 950 239 q 784 51 891 115 q 536 -14 677 -14 q 287 46 392 -14 q 126 218 181 106 q 71 482 71 330 q 194 840 71 711 q 536 970 317 970 q 791 910 688 970 q 941 733 893 850 l 819 692 q 712 820 785 776 q 537 864 638 864 m 609 1038 l 471 1038 l 312 1200 l 312 1214 l 382 1214 l 540 1120 l 541 1120 l 690 1214 l 761 1214 l 761 1200 l 609 1038 z "},"č":{"ha":694,"x_min":59,"x_max":658,"o":"m 186 370 q 233 153 186 224 q 372 83 279 83 q 480 118 437 83 q 534 227 524 153 l 658 218 q 568 50 644 113 q 375 -14 492 -14 q 140 84 221 -14 q 59 368 59 181 q 140 650 59 553 q 374 747 222 747 q 561 689 486 747 q 654 528 635 631 l 528 519 q 480 616 519 580 q 370 652 441 652 q 230 587 273 652 q 186 370 186 523 m 442 814 l 304 814 l 145 998 l 145 1011 l 216 1011 l 373 897 l 374 897 l 523 1011 l 594 1011 l 594 998 l 442 814 z "},"Ď":{"ha":1003,"x_min":114,"x_max":937,"o":"m 937 488 q 879 229 937 340 q 715 59 821 118 q 471 0 610 0 l 114 0 l 114 956 l 430 956 q 805 834 673 956 q 937 488 937 712 m 806 488 q 709 759 806 665 q 427 852 612 852 l 243 852 l 243 104 l 456 104 q 641 150 562 104 q 764 283 721 196 q 806 488 806 370 m 540 1038 l 401 1038 l 243 1200 l 243 1214 l 313 1214 l 471 1120 l 472 1120 l 621 1214 l 692 1214 l 692 1200 l 540 1038 z "},"ď":{"ha":854,"x_min":58,"x_max":867,"o":"m 557 118 q 467 17 523 47 q 328 -14 411 -14 q 124 80 189 -14 q 58 363 58 174 q 328 747 58 747 q 467 717 412 747 q 557 620 523 686 l 558 620 l 557 702 l 557 1006 l 679 1006 l 679 151 q 683 0 679 37 l 566 0 q 562 50 564 11 q 559 118 559 90 l 557 118 m 186 368 q 227 147 186 214 q 359 81 268 81 q 510 153 463 81 q 557 376 557 224 q 510 589 557 522 q 361 657 463 657 q 228 589 269 657 q 186 368 186 521 m 867 935 q 852 836 867 876 q 810 764 838 796 l 731 764 q 795 893 795 832 l 735 893 l 735 1006 l 867 1006 l 867 935 z "},"Đ":{"ha":1003,"x_min":9,"x_max":937,"o":"m 9 543 l 114 543 l 114 956 l 430 956 q 805 834 673 956 q 937 488 937 712 q 879 229 937 340 q 715 59 821 118 q 471 0 610 0 l 114 0 l 114 439 l 9 439 l 9 543 m 806 488 q 709 759 806 665 q 427 852 612 852 l 243 852 l 243 543 l 519 543 l 519 439 l 243 439 l 243 104 l 456 104 q 641 150 562 104 q 764 283 721 196 q 806 488 806 370 z "},"đ":{"ha":772,"x_min":58,"x_max":768,"o":"m 557 118 q 467 17 523 47 q 328 -14 411 -14 q 124 80 189 -14 q 58 363 58 174 q 328 747 58 747 q 467 717 412 747 q 557 620 523 686 l 558 620 l 557 702 l 557 818 l 353 818 l 353 907 l 557 907 l 557 1006 l 679 1006 l 679 907 l 768 907 l 768 818 l 679 818 l 679 151 q 683 0 679 37 l 566 0 q 562 50 564 11 q 559 118 559 90 l 557 118 m 186 368 q 227 147 186 214 q 359 81 268 81 q 510 153 463 81 q 557 376 557 224 q 510 589 557 522 q 361 657 463 657 q 228 589 269 657 q 186 368 186 521 z "},"Ē":{"ha":926,"x_min":114,"x_max":867,"o":"m 114 0 l 114 956 l 839 956 l 839 850 l 243 850 l 243 543 l 798 543 l 798 439 l 243 439 l 243 106 l 867 106 l 867 0 l 114 0 m 663 1061 l 291 1061 l 291 1147 l 663 1147 l 663 1061 z "},"ē":{"ha":772,"x_min":59,"x_max":711,"o":"m 187 341 q 239 146 187 215 q 392 78 292 78 q 519 110 471 78 q 584 191 567 142 l 691 160 q 392 -14 625 -14 q 144 83 229 -14 q 59 372 59 180 q 144 650 59 553 q 387 747 229 747 q 711 357 711 747 l 711 341 l 187 341 m 585 435 q 526 604 574 551 q 385 657 477 657 q 244 598 296 657 q 189 435 193 538 l 585 435 m 573 838 l 201 838 l 201 924 l 573 924 l 573 838 z "},"Ĕ":{"ha":926,"x_min":114,"x_max":867,"o":"m 114 0 l 114 956 l 839 956 l 839 850 l 243 850 l 243 543 l 798 543 l 798 439 l 243 439 l 243 106 l 867 106 l 867 0 l 114 0 m 475 1038 q 324 1084 385 1038 q 250 1206 262 1131 l 330 1206 q 378 1150 341 1171 q 477 1130 415 1130 q 575 1151 538 1130 q 623 1206 611 1171 l 702 1206 q 627 1083 688 1129 q 475 1038 566 1038 z "},"ĕ":{"ha":772,"x_min":59,"x_max":711,"o":"m 187 341 q 239 146 187 215 q 392 78 292 78 q 519 110 471 78 q 584 191 567 142 l 691 160 q 392 -14 625 -14 q 144 83 229 -14 q 59 372 59 180 q 144 650 59 553 q 387 747 229 747 q 711 357 711 747 l 711 341 l 187 341 m 585 435 q 526 604 574 551 q 385 657 477 657 q 244 598 296 657 q 189 435 193 538 l 585 435 m 386 814 q 235 872 296 814 q 161 1024 173 930 l 240 1024 q 387 920 259 920 q 533 1024 513 920 l 612 1024 q 537 871 598 928 q 386 814 477 814 z "},"Ė":{"ha":926,"x_min":114,"x_max":867,"o":"m 114 0 l 114 956 l 839 956 l 839 850 l 243 850 l 243 543 l 798 543 l 798 439 l 243 439 l 243 106 l 867 106 l 867 0 l 114 0 m 416 1088 l 416 1205 l 538 1205 l 538 1088 l 416 1088 z "},"ė":{"ha":772,"x_min":59,"x_max":711,"o":"m 187 341 q 239 146 187 215 q 392 78 292 78 q 519 110 471 78 q 584 191 567 142 l 691 160 q 392 -14 625 -14 q 144 83 229 -14 q 59 372 59 180 q 144 650 59 553 q 387 747 229 747 q 711 357 711 747 l 711 341 l 187 341 m 585 435 q 526 604 574 551 q 385 657 477 657 q 244 598 296 657 q 189 435 193 538 l 585 435 m 326 890 l 326 1006 l 448 1006 l 448 890 l 326 890 z "},"Ę":{"ha":926,"x_min":114,"x_max":867,"o":"m 114 0 l 114 956 l 839 956 l 839 850 l 243 850 l 243 543 l 798 543 l 798 439 l 243 439 l 243 106 l 867 106 l 867 0 l 114 0 m 867 -271 q 772 -290 824 -290 q 665 -255 701 -290 q 629 -163 629 -220 q 659 -71 629 -115 q 734 0 688 -26 l 825 0 q 790 -25 808 -9 q 758 -60 772 -40 q 734 -104 743 -80 q 725 -154 725 -127 q 742 -199 725 -182 q 789 -215 758 -215 q 867 -199 825 -215 l 867 -271 z "},"ę":{"ha":772,"x_min":59,"x_max":711,"o":"m 187 341 q 239 146 187 215 q 392 78 292 78 q 519 110 471 78 q 584 191 567 142 l 691 160 q 392 -14 625 -14 q 144 83 229 -14 q 59 372 59 180 q 144 650 59 553 q 387 747 229 747 q 711 357 711 747 l 711 341 l 187 341 m 585 435 q 526 604 574 551 q 385 657 477 657 q 244 598 296 657 q 189 435 193 538 l 585 435 m 550 -271 q 456 -290 507 -290 q 349 -255 385 -290 q 313 -163 313 -220 q 342 -71 313 -115 q 418 0 372 -26 l 508 0 q 473 -25 491 -9 q 441 -60 456 -40 q 417 -104 427 -80 q 408 -154 408 -127 q 425 -199 408 -182 q 472 -215 441 -215 q 550 -199 509 -215 l 550 -271 z "},"Ě":{"ha":926,"x_min":114,"x_max":867,"o":"m 114 0 l 114 956 l 839 956 l 839 850 l 243 850 l 243 543 l 798 543 l 798 439 l 243 439 l 243 106 l 867 106 l 867 0 l 114 0 m 546 1038 l 408 1038 l 249 1200 l 249 1214 l 319 1214 l 477 1120 l 478 1120 l 627 1214 l 698 1214 l 698 1200 l 546 1038 z "},"ě":{"ha":772,"x_min":59,"x_max":711,"o":"m 187 341 q 239 146 187 215 q 392 78 292 78 q 519 110 471 78 q 584 191 567 142 l 691 160 q 392 -14 625 -14 q 144 83 229 -14 q 59 372 59 180 q 144 650 59 553 q 387 747 229 747 q 711 357 711 747 l 711 341 l 187 341 m 585 435 q 526 604 574 551 q 385 657 477 657 q 244 598 296 657 q 189 435 193 538 l 585 435 m 456 814 l 317 814 l 159 998 l 159 1011 l 229 1011 l 387 897 l 388 897 l 536 1011 l 608 1011 l 608 998 l 456 814 z "},"Ĝ":{"ha":1080,"x_min":70,"x_max":977,"o":"m 70 482 q 195 842 70 715 q 545 970 319 970 q 803 916 704 970 q 956 745 902 863 l 832 708 q 720 827 791 789 q 542 864 648 864 q 289 764 376 864 q 201 482 201 664 q 294 196 201 301 q 551 92 387 92 q 726 120 645 92 q 857 197 807 149 l 857 370 l 572 370 l 572 478 l 977 478 l 977 149 q 790 29 901 71 q 551 -14 680 -14 q 293 46 401 -14 q 127 218 184 106 q 70 482 70 330 m 771 1051 l 771 1038 l 700 1038 l 551 1132 l 550 1132 l 393 1038 l 322 1038 l 322 1051 l 481 1214 l 619 1214 l 771 1051 z "},"ĝ":{"ha":772,"x_min":58,"x_max":683,"o":"m 372 -288 q 180 -241 252 -288 q 89 -107 109 -194 l 212 -90 q 266 -168 224 -140 q 375 -195 307 -195 q 557 18 557 -195 l 557 136 l 556 136 q 461 30 522 66 q 320 -5 401 -5 q 122 84 185 -5 q 58 366 58 174 q 126 653 58 560 q 334 745 195 745 q 469 710 412 745 q 557 608 526 674 l 559 608 q 562 679 559 629 q 567 734 564 729 l 683 734 q 679 582 679 697 l 679 21 q 372 -288 679 -288 m 557 367 q 533 521 557 456 q 464 620 509 586 q 363 654 420 654 q 227 587 270 654 q 184 367 184 519 q 224 151 184 216 q 361 85 264 85 q 464 119 419 85 q 533 216 509 153 q 557 367 557 279 m 595 828 l 595 814 l 524 814 l 376 929 l 374 929 l 217 814 l 146 814 l 146 828 l 305 1011 l 444 1011 l 595 828 z "},"Ğ":{"ha":1080,"x_min":70,"x_max":977,"o":"m 70 482 q 195 842 70 715 q 545 970 319 970 q 803 916 704 970 q 956 745 902 863 l 832 708 q 720 827 791 789 q 542 864 648 864 q 289 764 376 864 q 201 482 201 664 q 294 196 201 301 q 551 92 387 92 q 726 120 645 92 q 857 197 807 149 l 857 370 l 572 370 l 572 478 l 977 478 l 977 149 q 790 29 901 71 q 551 -14 680 -14 q 293 46 401 -14 q 127 218 184 106 q 70 482 70 330 m 549 1038 q 398 1084 459 1038 q 324 1206 336 1131 l 404 1206 q 452 1150 415 1171 q 551 1130 489 1130 q 649 1151 612 1130 q 696 1206 685 1171 l 776 1206 q 701 1083 762 1129 q 549 1038 640 1038 z "},"ğ":{"ha":772,"x_min":58,"x_max":683,"o":"m 372 -288 q 180 -241 252 -288 q 89 -107 109 -194 l 212 -90 q 266 -168 224 -140 q 375 -195 307 -195 q 557 18 557 -195 l 557 136 l 556 136 q 461 30 522 66 q 320 -5 401 -5 q 122 84 185 -5 q 58 366 58 174 q 126 653 58 560 q 334 745 195 745 q 469 710 412 745 q 557 608 526 674 l 559 608 q 562 679 559 629 q 567 734 564 729 l 683 734 q 679 582 679 697 l 679 21 q 372 -288 679 -288 m 557 367 q 533 521 557 456 q 464 620 509 586 q 363 654 420 654 q 227 587 270 654 q 184 367 184 519 q 224 151 184 216 q 361 85 264 85 q 464 119 419 85 q 533 216 509 153 q 557 367 557 279 m 370 814 q 219 872 281 814 q 145 1024 157 930 l 224 1024 q 372 920 243 920 q 517 1024 498 920 l 597 1024 q 522 871 583 928 q 370 814 461 814 z "},"Ġ":{"ha":1080,"x_min":70,"x_max":977,"o":"m 70 482 q 195 842 70 715 q 545 970 319 970 q 803 916 704 970 q 956 745 902 863 l 832 708 q 720 827 791 789 q 542 864 648 864 q 289 764 376 864 q 201 482 201 664 q 294 196 201 301 q 551 92 387 92 q 726 120 645 92 q 857 197 807 149 l 857 370 l 572 370 l 572 478 l 977 478 l 977 149 q 790 29 901 71 q 551 -14 680 -14 q 293 46 401 -14 q 127 218 184 106 q 70 482 70 330 m 489 1088 l 489 1205 l 611 1205 l 611 1088 l 489 1088 z "},"ġ":{"ha":772,"x_min":58,"x_max":683,"o":"m 372 -288 q 180 -241 252 -288 q 89 -107 109 -194 l 212 -90 q 266 -168 224 -140 q 375 -195 307 -195 q 557 18 557 -195 l 557 136 l 556 136 q 461 30 522 66 q 320 -5 401 -5 q 122 84 185 -5 q 58 366 58 174 q 126 653 58 560 q 334 745 195 745 q 469 710 412 745 q 557 608 526 674 l 559 608 q 562 679 559 629 q 567 734 564 729 l 683 734 q 679 582 679 697 l 679 21 q 372 -288 679 -288 m 557 367 q 533 521 557 456 q 464 620 509 586 q 363 654 420 654 q 227 587 270 654 q 184 367 184 519 q 224 151 184 216 q 361 85 264 85 q 464 119 419 85 q 533 216 509 153 q 557 367 557 279 m 310 890 l 310 1006 l 432 1006 l 432 890 l 310 890 z "},"Ģ":{"ha":1080,"x_min":70,"x_max":977,"o":"m 70 482 q 195 842 70 715 q 545 970 319 970 q 803 916 704 970 q 956 745 902 863 l 832 708 q 720 827 791 789 q 542 864 648 864 q 289 764 376 864 q 201 482 201 664 q 294 196 201 301 q 551 92 387 92 q 726 120 645 92 q 857 197 807 149 l 857 370 l 572 370 l 572 478 l 977 478 l 977 149 q 790 29 901 71 q 551 -14 680 -14 q 293 46 401 -14 q 127 218 184 106 q 70 482 70 330 m 623 -131 q 608 -226 623 -190 q 566 -294 593 -262 l 486 -294 q 533 -233 517 -262 q 550 -172 550 -203 l 490 -172 l 490 -66 l 623 -66 l 623 -131 z "},"ģ":{"ha":772,"x_min":58,"x_max":683,"o":"m 372 -288 q 180 -241 252 -288 q 89 -107 109 -194 l 212 -90 q 266 -168 224 -140 q 375 -195 307 -195 q 557 18 557 -195 l 557 136 l 556 136 q 461 30 522 66 q 320 -5 401 -5 q 122 84 185 -5 q 58 366 58 174 q 126 653 58 560 q 334 745 195 745 q 469 710 412 745 q 557 608 526 674 l 559 608 q 562 679 559 629 q 567 734 564 729 l 683 734 q 679 582 679 697 l 679 21 q 372 -288 679 -288 m 557 367 q 533 521 557 456 q 464 620 509 586 q 363 654 420 654 q 227 587 270 654 q 184 367 184 519 q 224 151 184 216 q 361 85 264 85 q 464 119 419 85 q 533 216 509 153 q 557 367 557 279 m 300 893 q 315 992 300 952 q 357 1063 330 1031 l 436 1063 q 372 935 372 996 l 432 935 l 432 821 l 300 821 l 300 893 z "},"Ĥ":{"ha":1003,"x_min":114,"x_max":890,"o":"m 760 0 l 760 443 l 243 443 l 243 0 l 114 0 l 114 956 l 243 956 l 243 551 l 760 551 l 760 956 l 890 956 l 890 0 l 760 0 m 726 1051 l 726 1038 l 655 1038 l 507 1132 l 505 1132 l 348 1038 l 277 1038 l 277 1051 l 436 1214 l 574 1214 l 726 1051 z "},"ĥ":{"ha":772,"x_min":96,"x_max":682,"o":"m 215 608 q 310 714 254 680 q 450 747 365 747 q 626 688 569 747 q 682 489 682 629 l 682 0 l 559 0 l 559 465 q 545 580 559 543 q 498 635 531 618 q 408 653 466 653 q 270 593 322 653 q 218 433 218 534 l 218 0 l 96 0 l 96 1006 l 218 1006 l 218 745 q 216 659 218 703 q 213 608 214 615 l 215 608 m 613 1095 l 613 1081 l 542 1081 l 393 1175 l 392 1175 l 235 1081 l 164 1081 l 164 1095 l 323 1257 l 461 1257 l 613 1095 z "},"Ħ":{"ha":1003,"x_min":9,"x_max":994,"o":"m 764 0 l 764 443 l 243 443 l 243 0 l 114 0 l 114 695 l 9 695 l 9 800 l 114 800 l 114 956 l 243 956 l 243 800 l 764 800 l 764 956 l 890 956 l 890 800 l 994 800 l 994 695 l 890 695 l 890 0 l 764 0 m 764 551 l 764 695 l 243 695 l 243 551 l 764 551 z "},"ħ":{"ha":772,"x_min":7,"x_max":682,"o":"m 215 581 q 310 687 254 653 q 450 720 365 720 q 626 661 569 720 q 682 462 682 602 l 682 0 l 559 0 l 559 438 q 545 553 559 515 q 498 608 531 591 q 408 626 466 626 q 270 566 322 626 q 218 406 218 507 l 218 0 l 96 0 l 96 818 l 7 818 l 7 907 l 96 907 l 96 1006 l 218 1006 l 218 907 l 422 907 l 422 818 l 218 818 l 218 718 q 216 632 218 676 q 213 581 214 588 l 215 581 z "},"Ĩ":{"ha":386,"x_min":-49,"x_max":437,"o":"m 128 0 l 128 956 l 258 956 l 258 0 l 128 0 m 300 1038 q 243 1050 272 1038 q 189 1078 215 1063 q 138 1106 162 1093 q 93 1118 114 1118 q 37 1097 56 1118 q 13 1038 19 1076 l -49 1038 q -25 1142 -41 1107 q 19 1199 -9 1178 q 89 1219 46 1219 q 147 1207 119 1219 q 202 1179 176 1194 q 252 1151 229 1164 q 296 1139 275 1139 q 375 1219 363 1139 l 437 1219 q 392 1078 426 1119 q 300 1038 358 1038 z "},"ĩ":{"ha":386,"x_min":-49,"x_max":437,"o":"m 132 0 l 132 734 l 254 734 l 254 0 l 132 0 m 300 814 q 243 827 272 814 q 189 855 215 840 q 138 883 162 870 q 93 895 114 895 q 37 874 56 895 q 13 814 19 853 l -49 814 q -25 919 -41 884 q 19 976 -9 955 q 89 996 46 996 q 147 984 119 996 q 202 956 176 971 q 252 928 229 941 q 296 916 275 916 q 375 996 363 916 l 437 996 q 392 855 426 896 q 300 814 358 814 z "},"Ī":{"ha":386,"x_min":8,"x_max":380,"o":"m 128 0 l 128 956 l 258 956 l 258 0 l 128 0 m 380 1061 l 8 1061 l 8 1147 l 380 1147 l 380 1061 z "},"ī":{"ha":386,"x_min":8,"x_max":380,"o":"m 132 0 l 132 734 l 254 734 l 254 0 l 132 0 m 380 838 l 8 838 l 8 924 l 380 924 l 380 838 z "},"Ĭ":{"ha":386,"x_min":-31,"x_max":420,"o":"m 128 0 l 128 956 l 258 956 l 258 0 l 128 0 m 194 1038 q 42 1084 104 1038 q -31 1206 -19 1131 l 48 1206 q 97 1150 60 1171 q 195 1130 134 1130 q 293 1151 257 1130 q 341 1206 330 1171 l 420 1206 q 345 1083 406 1129 q 194 1038 284 1038 z "},"ĭ":{"ha":386,"x_min":-31,"x_max":420,"o":"m 132 0 l 132 734 l 254 734 l 254 0 l 132 0 m 194 814 q 43 872 104 814 q -31 1024 -19 930 l 48 1024 q 195 920 67 920 q 341 1024 321 920 l 420 1024 q 346 871 406 928 q 194 814 285 814 z "},"Į":{"ha":386,"x_min":62,"x_max":300,"o":"m 128 0 l 128 956 l 258 956 l 258 0 l 128 0 m 300 -271 q 205 -290 257 -290 q 98 -255 134 -290 q 62 -163 62 -220 q 92 -71 62 -115 q 168 0 121 -26 l 258 0 q 223 -25 241 -9 q 191 -60 205 -40 q 167 -104 176 -80 q 158 -154 158 -127 q 175 -199 158 -182 q 222 -215 191 -215 q 300 -199 258 -215 l 300 -271 z "},"į":{"ha":309,"x_min":21,"x_max":258,"o":"m 93 890 l 93 1006 l 215 1006 l 215 890 l 93 890 m 93 0 l 93 734 l 215 734 l 215 0 l 93 0 m 258 -271 q 164 -290 216 -290 q 57 -255 93 -290 q 21 -163 21 -220 q 51 -71 21 -115 q 126 0 80 -26 l 216 0 q 182 -25 199 -9 q 150 -60 164 -40 q 126 -104 135 -80 q 117 -154 117 -127 q 133 -199 117 -182 q 180 -215 150 -215 q 258 -199 217 -215 l 258 -271 z "},"İ":{"ha":386,"x_min":128,"x_max":258,"o":"m 128 0 l 128 956 l 258 956 l 258 0 l 128 0 m 132 1088 l 132 1205 l 254 1205 l 254 1088 l 132 1088 z "},"ı":{"ha":386,"x_min":132,"x_max":254,"o":"m 132 0 l 132 734 l 254 734 l 254 0 l 132 0 z "},"Ĳ":{"ha":1021,"x_min":115,"x_max":918,"o":"m 115 0 l 115 956 l 245 956 l 245 0 l 115 0 m 636 -14 q 348 237 393 -14 l 475 258 q 530 136 487 180 q 637 92 572 92 q 748 140 707 92 q 789 282 789 189 l 789 850 l 605 850 l 605 956 l 918 956 l 918 285 q 842 66 918 146 q 636 -14 767 -14 z "},"ĳ":{"ha":616,"x_min":93,"x_max":523,"o":"m 93 890 l 93 1006 l 215 1006 l 215 890 l 93 890 m 93 0 l 93 734 l 215 734 l 215 0 l 93 0 m 401 890 l 401 1006 l 523 1006 l 523 890 l 401 890 m 523 -91 q 482 -241 523 -195 q 360 -288 441 -288 q 274 -282 308 -288 l 274 -188 l 316 -192 q 382 -168 363 -192 q 401 -73 401 -143 l 401 734 l 523 734 l 523 -91 z "},"Ĵ":{"ha":694,"x_min":22,"x_max":660,"o":"m 310 -14 q 22 237 67 -14 l 149 258 q 203 136 161 180 q 311 92 246 92 q 422 140 381 92 q 463 282 463 189 l 463 850 l 279 850 l 279 956 l 591 956 l 591 285 q 516 66 591 146 q 310 -14 441 -14 m 660 1051 l 660 1038 l 589 1038 l 440 1132 l 439 1132 l 281 1038 l 211 1038 l 211 1051 l 370 1214 l 508 1214 l 660 1051 z "},"ĵ":{"ha":309,"x_min":-70,"x_max":379,"o":"m 52 -288 q -34 -282 0 -288 l -34 -188 l 8 -192 q 74 -168 55 -192 q 93 -73 93 -143 l 93 734 l 215 734 l 215 -91 q 174 -241 215 -195 q 52 -288 134 -288 m 379 828 l 379 814 l 308 814 l 159 929 l 158 929 l 1 814 l -70 814 l -70 828 l 89 1011 l 227 1011 l 379 828 z "},"Ķ":{"ha":926,"x_min":114,"x_max":911,"o":"m 750 0 l 368 461 l 243 366 l 243 0 l 114 0 l 114 956 l 243 956 l 243 477 l 704 956 l 857 956 l 450 541 l 911 0 l 750 0 m 546 -131 q 531 -226 546 -190 q 489 -294 516 -262 l 410 -294 q 457 -233 440 -262 q 473 -172 473 -203 l 414 -172 l 414 -66 l 546 -66 l 546 -131 z "},"ķ":{"ha":694,"x_min":94,"x_max":696,"o":"m 553 0 l 305 335 l 216 261 l 216 0 l 94 0 l 94 1006 l 216 1006 l 216 378 l 538 734 l 681 734 l 383 418 l 696 0 l 553 0 m 449 -131 q 434 -226 449 -190 q 392 -294 419 -262 l 313 -294 q 360 -233 343 -262 q 376 -172 376 -203 l 317 -172 l 317 -66 l 449 -66 l 449 -131 z "},"ĸ":{"ha":694,"x_min":94,"x_max":696,"o":"m 553 0 l 305 335 l 216 262 l 216 0 l 94 0 l 94 734 l 216 734 l 216 378 l 538 734 l 681 734 l 383 418 l 696 0 l 553 0 z "},"Ĺ":{"ha":772,"x_min":114,"x_max":726,"o":"m 114 0 l 114 956 l 243 956 l 243 106 l 726 106 l 726 0 l 114 0 m 166 1038 l 166 1051 l 313 1204 l 454 1204 l 454 1185 l 243 1038 l 166 1038 z "},"ĺ":{"ha":309,"x_min":62,"x_max":349,"o":"m 94 0 l 94 1006 l 216 1006 l 216 0 l 94 0 m 62 1090 l 62 1104 l 209 1257 l 349 1257 l 349 1238 l 139 1090 l 62 1090 z "},"Ļ":{"ha":772,"x_min":114,"x_max":726,"o":"m 114 0 l 114 956 l 243 956 l 243 106 l 726 106 l 726 0 l 114 0 m 486 -131 q 471 -226 486 -190 q 429 -294 456 -262 l 350 -294 q 397 -233 380 -262 q 414 -172 414 -203 l 354 -172 l 354 -66 l 486 -66 l 486 -131 z "},"ļ":{"ha":309,"x_min":85,"x_max":222,"o":"m 94 0 l 94 1006 l 216 1006 l 216 0 l 94 0 m 222 -131 q 207 -226 222 -190 q 165 -294 192 -262 l 85 -294 q 133 -233 116 -262 q 149 -172 149 -203 l 90 -172 l 90 -66 l 222 -66 l 222 -131 z "},"Ľ":{"ha":772,"x_min":114,"x_max":726,"o":"m 114 0 l 114 956 l 243 956 l 243 106 l 726 106 l 726 0 l 114 0 m 582 884 q 567 785 582 825 q 525 713 552 745 l 446 713 q 509 842 509 781 l 450 842 l 450 956 l 582 956 l 582 884 z "},"ľ":{"ha":405,"x_min":94,"x_max":418,"o":"m 94 0 l 94 1006 l 216 1006 l 216 0 l 94 0 m 418 935 q 404 836 418 876 q 361 764 389 796 l 282 764 q 346 893 346 832 l 286 893 l 286 1006 l 418 1006 l 418 935 z "},"Ŀ":{"ha":772,"x_min":114,"x_max":726,"o":"m 114 0 l 114 956 l 243 956 l 243 106 l 726 106 l 726 0 l 114 0 m 424 466 l 424 583 l 546 583 l 546 466 l 424 466 z "},"ŀ":{"ha":464,"x_min":94,"x_max":446,"o":"m 94 0 l 94 1006 l 216 1006 l 216 0 l 94 0 m 324 466 l 324 583 l 446 583 l 446 466 l 324 466 z "},"Ł":{"ha":772,"x_min":14,"x_max":726,"o":"m 418 541 l 243 439 l 243 106 l 726 106 l 726 0 l 114 0 l 114 365 l 14 307 l 14 414 l 114 472 l 114 956 l 243 956 l 243 547 l 418 647 l 418 541 z "},"ł":{"ha":309,"x_min":11,"x_max":300,"o":"m 94 0 l 94 368 l 11 321 l 11 429 l 94 475 l 94 1006 l 216 1006 l 216 545 l 300 594 l 300 486 l 216 438 l 216 0 l 94 0 z "},"Ń":{"ha":1003,"x_min":114,"x_max":890,"o":"m 734 0 l 222 814 l 226 748 l 229 635 l 229 0 l 114 0 l 114 956 l 264 956 l 781 136 q 773 329 773 269 l 773 956 l 890 956 l 890 0 l 734 0 m 408 1038 l 408 1051 l 555 1204 l 695 1204 l 695 1185 l 485 1038 l 408 1038 z "},"ń":{"ha":772,"x_min":95,"x_max":685,"o":"m 562 0 l 562 465 q 548 578 562 538 q 503 635 534 618 q 411 653 471 653 q 272 593 323 653 q 221 425 221 532 l 221 0 l 99 0 l 99 577 q 95 734 99 705 l 210 734 q 212 715 211 730 q 213 681 212 701 q 216 608 214 662 l 218 608 q 315 716 260 684 q 452 747 370 747 q 629 687 573 747 q 685 489 685 627 l 685 0 l 562 0 m 312 814 l 312 828 l 459 1023 l 600 1023 l 600 1003 l 376 814 l 312 814 z "},"Ņ":{"ha":1003,"x_min":114,"x_max":890,"o":"m 734 0 l 222 814 l 226 748 l 229 635 l 229 0 l 114 0 l 114 956 l 264 956 l 781 136 q 773 329 773 269 l 773 956 l 890 956 l 890 0 l 734 0 m 567 -131 q 552 -226 567 -190 q 510 -294 537 -262 l 431 -294 q 478 -233 461 -262 q 494 -172 494 -203 l 435 -172 l 435 -66 l 567 -66 l 567 -131 z "},"ņ":{"ha":772,"x_min":95,"x_max":685,"o":"m 562 0 l 562 465 q 548 578 562 538 q 503 635 534 618 q 411 653 471 653 q 272 593 323 653 q 221 425 221 532 l 221 0 l 99 0 l 99 577 q 95 734 99 705 l 210 734 q 212 715 211 730 q 213 681 212 701 q 216 608 214 662 l 218 608 q 315 716 260 684 q 452 747 370 747 q 629 687 573 747 q 685 489 685 627 l 685 0 l 562 0 m 458 -131 q 443 -226 458 -190 q 401 -294 428 -262 l 321 -294 q 369 -233 352 -262 q 385 -172 385 -203 l 326 -172 l 326 -66 l 458 -66 l 458 -131 z "},"Ň":{"ha":1003,"x_min":114,"x_max":890,"o":"m 734 0 l 222 814 l 226 748 l 229 635 l 229 0 l 114 0 l 114 956 l 264 956 l 781 136 q 773 329 773 269 l 773 956 l 890 956 l 890 0 l 734 0 m 570 1038 l 432 1038 l 273 1200 l 273 1214 l 344 1214 l 501 1120 l 503 1120 l 651 1214 l 722 1214 l 722 1200 l 570 1038 z "},"ň":{"ha":772,"x_min":95,"x_max":685,"o":"m 562 0 l 562 465 q 548 578 562 538 q 503 635 534 618 q 411 653 471 653 q 272 593 323 653 q 221 425 221 532 l 221 0 l 99 0 l 99 577 q 95 734 99 705 l 210 734 q 212 715 211 730 q 213 681 212 701 q 216 608 214 662 l 218 608 q 315 716 260 684 q 452 747 370 747 q 629 687 573 747 q 685 489 685 627 l 685 0 l 562 0 m 461 814 l 323 814 l 164 998 l 164 1011 l 235 1011 l 392 897 l 393 897 l 542 1011 l 613 1011 l 613 998 l 461 814 z "},"ŉ":{"ha":839,"x_min":-1,"x_max":749,"o":"m 626 0 l 626 465 q 612 578 626 538 q 566 635 597 618 q 475 653 535 653 q 336 593 387 653 q 285 425 285 532 l 285 0 l 163 0 l 163 577 q 159 734 163 705 l 274 734 q 275 715 275 730 q 277 681 276 701 q 279 608 278 662 l 281 608 q 379 716 323 684 q 516 747 434 747 q 693 687 637 747 q 749 489 749 627 l 749 0 l 626 0 m 135 857 q 122 738 135 786 q 82 646 109 689 l -1 646 q 62 822 62 738 l 3 822 l 3 956 l 135 956 l 135 857 z "},"Ŋ":{"ha":1004,"x_min":112,"x_max":903,"o":"m 638 -14 q 518 12 574 -14 q 422 87 463 37 l 509 165 q 642 90 570 90 q 720 117 691 90 q 762 199 749 144 q 774 370 774 254 l 774 589 q 721 799 774 733 q 548 864 668 864 q 397 829 467 864 q 285 733 326 793 q 244 604 244 673 l 244 0 l 115 0 l 115 741 l 112 956 l 237 956 q 241 785 241 851 l 244 785 q 385 921 293 873 q 587 969 477 969 q 829 882 754 969 q 903 603 903 794 l 903 368 q 877 140 903 217 q 793 25 851 63 q 638 -14 736 -14 z "},"ŋ":{"ha":772,"x_min":95,"x_max":685,"o":"m 522 -288 q 435 -282 469 -288 l 435 -188 l 477 -192 q 543 -168 524 -192 q 562 -73 562 -143 l 562 465 q 548 578 562 538 q 503 635 534 618 q 411 653 471 653 q 272 593 323 653 q 221 425 221 532 l 221 0 l 99 0 l 99 577 q 95 734 99 705 l 210 734 q 212 715 211 730 q 213 681 212 701 q 216 608 214 662 l 218 608 q 315 716 260 684 q 452 747 370 747 q 629 687 573 747 q 685 489 685 627 l 685 -91 q 644 -241 685 -193 q 522 -288 604 -288 z "},"Ō":{"ha":1080,"x_min":66,"x_max":1014,"o":"m 1014 482 q 957 220 1014 332 q 792 47 899 107 q 539 -14 685 -14 q 285 46 392 -14 q 122 219 178 106 q 66 482 66 332 q 191 841 66 711 q 541 970 317 970 q 793 912 686 970 q 957 743 901 854 q 1014 482 1014 633 m 882 482 q 792 762 882 661 q 541 864 703 864 q 287 764 376 864 q 197 482 197 663 q 288 197 197 302 q 539 92 378 92 q 793 194 705 92 q 882 482 882 296 m 726 1061 l 353 1061 l 353 1147 l 726 1147 l 726 1061 z "},"ō":{"ha":772,"x_min":58,"x_max":714,"o":"m 714 368 q 629 81 714 175 q 383 -14 545 -14 q 140 84 222 -14 q 58 368 58 182 q 387 747 58 747 q 635 655 555 747 q 714 368 714 562 m 586 368 q 541 588 586 519 q 389 657 496 657 q 234 587 282 657 q 186 368 186 517 q 234 150 186 222 q 382 77 281 77 q 539 147 492 77 q 586 368 586 218 m 572 838 l 200 838 l 200 924 l 572 924 l 572 838 z "},"Ŏ":{"ha":1080,"x_min":66,"x_max":1014,"o":"m 1014 482 q 957 220 1014 332 q 792 47 899 107 q 539 -14 685 -14 q 285 46 392 -14 q 122 219 178 106 q 66 482 66 332 q 191 841 66 711 q 541 970 317 970 q 793 912 686 970 q 957 743 901 854 q 1014 482 1014 633 m 882 482 q 792 762 882 661 q 541 864 703 864 q 287 764 376 864 q 197 482 197 663 q 288 197 197 302 q 539 92 378 92 q 793 194 705 92 q 882 482 882 296 m 539 1038 q 388 1084 449 1038 q 314 1206 326 1131 l 393 1206 q 442 1150 405 1171 q 541 1130 479 1130 q 638 1151 602 1130 q 686 1206 675 1171 l 766 1206 q 690 1083 751 1129 q 539 1038 629 1038 z "},"ŏ":{"ha":772,"x_min":58,"x_max":714,"o":"m 714 368 q 629 81 714 175 q 383 -14 545 -14 q 140 84 222 -14 q 58 368 58 182 q 387 747 58 747 q 635 655 555 747 q 714 368 714 562 m 586 368 q 541 588 586 519 q 389 657 496 657 q 234 587 282 657 q 186 368 186 517 q 234 150 186 222 q 382 77 281 77 q 539 147 492 77 q 586 368 586 218 m 386 814 q 235 872 296 814 q 161 1024 173 930 l 240 1024 q 387 920 259 920 q 533 1024 513 920 l 612 1024 q 537 871 598 928 q 386 814 477 814 z "},"Ő":{"ha":1080,"x_min":66,"x_max":1014,"o":"m 1014 482 q 957 220 1014 332 q 792 47 899 107 q 539 -14 685 -14 q 285 46 392 -14 q 122 219 178 106 q 66 482 66 332 q 191 841 66 711 q 541 970 317 970 q 793 912 686 970 q 957 743 901 854 q 1014 482 1014 633 m 882 482 q 792 762 882 661 q 541 864 703 864 q 287 764 376 864 q 197 482 197 663 q 288 197 197 302 q 539 92 378 92 q 793 194 705 92 q 882 482 882 296 m 349 1038 l 349 1051 l 482 1205 l 623 1205 l 623 1185 l 412 1038 l 349 1038 m 584 1038 l 584 1051 l 718 1205 l 858 1205 l 858 1185 l 648 1038 l 584 1038 z "},"ő":{"ha":772,"x_min":58,"x_max":718,"o":"m 714 368 q 629 81 714 175 q 383 -14 545 -14 q 140 84 222 -14 q 58 368 58 182 q 387 747 58 747 q 635 655 555 747 q 714 368 714 562 m 586 368 q 541 588 586 519 q 389 657 496 657 q 234 587 282 657 q 186 368 186 517 q 234 150 186 222 q 382 77 281 77 q 539 147 492 77 q 586 368 586 218 m 195 814 l 195 828 l 342 1023 l 482 1023 l 482 1003 l 258 814 l 195 814 m 430 814 l 430 828 l 577 1023 l 718 1023 l 718 1003 l 494 814 l 430 814 z "},"Œ":{"ha":1389,"x_min":66,"x_max":1328,"o":"m 677 0 q 535 -7 632 -7 q 191 124 316 -7 q 66 482 66 255 q 191 835 66 707 q 536 963 315 963 q 680 956 609 963 l 1300 956 l 1300 850 l 755 850 l 755 543 l 1259 543 l 1259 439 l 755 439 l 755 106 l 1328 106 l 1328 0 l 677 0 m 535 98 q 626 101 591 98 l 626 854 q 571 857 596 857 q 536 857 547 857 q 284 760 370 857 q 197 482 197 663 q 287 199 197 300 q 535 98 376 98 z "},"œ":{"ha":1311,"x_min":58,"x_max":1249,"o":"m 726 341 q 778 146 726 215 q 930 78 830 78 q 1058 110 1010 78 q 1122 191 1105 142 l 1230 160 q 930 -14 1164 -14 q 662 111 744 -14 q 390 -14 578 -14 q 143 84 229 -14 q 58 368 58 182 q 144 652 58 557 q 394 747 230 747 q 664 627 585 747 q 926 747 749 747 q 1249 357 1249 747 l 1249 341 l 726 341 m 597 368 q 551 587 597 516 q 396 657 504 657 q 236 585 286 657 q 186 368 186 513 q 389 77 186 77 q 549 147 500 77 q 597 368 597 218 m 1123 435 q 1064 604 1113 551 q 924 657 1015 657 q 783 598 835 657 q 727 435 731 538 l 1123 435 z "},"Ŕ":{"ha":1003,"x_min":114,"x_max":939,"o":"m 789 0 l 541 397 l 243 397 l 243 0 l 114 0 l 114 956 l 564 956 q 813 883 725 956 q 901 682 901 811 q 839 503 901 576 q 667 412 777 431 l 939 0 l 789 0 m 770 681 q 714 808 770 764 q 551 852 657 852 l 243 852 l 243 499 l 556 499 q 714 547 659 499 q 770 681 770 595 m 375 1038 l 375 1051 l 522 1204 l 663 1204 l 663 1185 l 452 1038 l 375 1038 z "},"ŕ":{"ha":463,"x_min":92,"x_max":460,"o":"m 96 0 l 96 563 q 92 734 96 640 l 208 734 q 213 584 213 609 l 216 584 q 283 713 245 678 q 390 747 321 747 q 439 741 414 747 l 439 629 q 374 635 415 635 q 258 570 298 635 q 218 382 218 505 l 218 0 l 96 0 m 172 814 l 172 828 l 319 1023 l 460 1023 l 460 1003 l 236 814 l 172 814 z "},"Ŗ":{"ha":1003,"x_min":114,"x_max":939,"o":"m 789 0 l 541 397 l 243 397 l 243 0 l 114 0 l 114 956 l 564 956 q 813 883 725 956 q 901 682 901 811 q 839 503 901 576 q 667 412 777 431 l 939 0 l 789 0 m 770 681 q 714 808 770 764 q 551 852 657 852 l 243 852 l 243 499 l 556 499 q 714 547 659 499 q 770 681 770 595 m 573 -131 q 558 -226 573 -190 q 516 -294 543 -262 l 437 -294 q 484 -233 467 -262 q 500 -172 500 -203 l 441 -172 l 441 -66 l 573 -66 l 573 -131 z "},"ŗ":{"ha":463,"x_min":87,"x_max":439,"o":"m 96 0 l 96 563 q 92 734 96 640 l 208 734 q 213 584 213 609 l 216 584 q 283 713 245 678 q 390 747 321 747 q 439 741 414 747 l 439 629 q 374 635 415 635 q 258 570 298 635 q 218 382 218 505 l 218 0 l 96 0 m 224 -131 q 209 -226 224 -190 q 167 -294 194 -262 l 87 -294 q 135 -233 118 -262 q 151 -172 151 -203 l 92 -172 l 92 -66 l 224 -66 l 224 -131 z "},"Ř":{"ha":1003,"x_min":114,"x_max":939,"o":"m 789 0 l 541 397 l 243 397 l 243 0 l 114 0 l 114 956 l 564 956 q 813 883 725 956 q 901 682 901 811 q 839 503 901 576 q 667 412 777 431 l 939 0 l 789 0 m 770 681 q 714 808 770 764 q 551 852 657 852 l 243 852 l 243 499 l 556 499 q 714 547 659 499 q 770 681 770 595 m 540 1038 l 401 1038 l 243 1200 l 243 1214 l 313 1214 l 471 1120 l 472 1120 l 621 1214 l 692 1214 l 692 1200 l 540 1038 z "},"ř":{"ha":463,"x_min":38,"x_max":487,"o":"m 96 0 l 96 563 q 92 734 96 640 l 208 734 q 213 584 213 609 l 216 584 q 283 713 245 678 q 390 747 321 747 q 439 741 414 747 l 439 629 q 374 635 415 635 q 258 570 298 635 q 218 382 218 505 l 218 0 l 96 0 m 335 814 l 197 814 l 38 998 l 38 1011 l 109 1011 l 266 897 l 267 897 l 416 1011 l 487 1011 l 487 998 l 335 814 z "},"Ś":{"ha":926,"x_min":63,"x_max":863,"o":"m 863 264 q 759 59 863 132 q 468 -14 656 -14 q 63 229 119 -14 l 189 254 q 281 128 210 168 q 473 87 351 87 q 666 131 598 87 q 734 257 734 174 q 713 333 734 304 q 653 381 692 362 q 561 413 614 400 q 442 441 507 426 q 270 491 329 466 q 178 547 212 516 q 126 619 144 578 q 108 714 108 661 q 202 903 108 837 q 471 970 296 970 q 720 920 633 970 q 840 750 806 870 l 713 728 q 633 838 692 804 q 469 872 574 872 q 294 834 355 872 q 234 721 234 796 q 257 648 234 677 q 325 599 281 619 q 500 550 369 579 q 588 529 545 540 q 672 504 632 519 q 747 470 712 490 q 808 422 782 450 q 848 355 833 393 q 863 264 863 316 m 381 1038 l 381 1051 l 528 1246 l 669 1246 l 669 1226 l 445 1038 l 381 1038 z "},"ś":{"ha":694,"x_min":39,"x_max":644,"o":"m 644 203 q 566 43 644 99 q 347 -14 488 -14 q 135 32 210 -14 q 39 172 61 77 l 146 193 q 211 107 162 134 q 347 79 260 79 q 483 108 439 79 q 526 193 526 136 q 496 264 526 237 q 399 309 466 291 l 312 332 q 162 385 207 359 q 93 448 118 411 q 68 540 68 486 q 139 693 68 640 q 348 745 211 745 q 541 703 469 745 q 631 566 612 660 l 522 552 q 467 627 511 601 q 348 653 422 653 q 226 628 265 653 q 186 552 186 603 q 203 500 186 521 q 251 466 219 480 q 385 427 283 452 q 525 381 482 402 q 592 336 568 361 q 631 278 617 311 q 644 203 644 245 m 261 814 l 261 828 l 408 1023 l 549 1023 l 549 1003 l 325 814 l 261 814 z "},"Ŝ":{"ha":926,"x_min":63,"x_max":863,"o":"m 863 264 q 759 59 863 132 q 468 -14 656 -14 q 63 229 119 -14 l 189 254 q 281 128 210 168 q 473 87 351 87 q 666 131 598 87 q 734 257 734 174 q 713 333 734 304 q 653 381 692 362 q 561 413 614 400 q 442 441 507 426 q 270 491 329 466 q 178 547 212 516 q 126 619 144 578 q 108 714 108 661 q 202 903 108 837 q 471 970 296 970 q 720 920 633 970 q 840 750 806 870 l 713 728 q 633 838 692 804 q 469 872 574 872 q 294 834 355 872 q 234 721 234 796 q 257 648 234 677 q 325 599 281 619 q 500 550 369 579 q 588 529 545 540 q 672 504 632 519 q 747 470 712 490 q 808 422 782 450 q 848 355 833 393 q 863 264 863 316 m 700 1051 l 700 1038 l 629 1038 l 480 1132 l 479 1132 l 321 1038 l 251 1038 l 251 1051 l 410 1214 l 548 1214 l 700 1051 z "},"ŝ":{"ha":694,"x_min":39,"x_max":644,"o":"m 644 203 q 566 43 644 99 q 347 -14 488 -14 q 135 32 210 -14 q 39 172 61 77 l 146 193 q 211 107 162 134 q 347 79 260 79 q 483 108 439 79 q 526 193 526 136 q 496 264 526 237 q 399 309 466 291 l 312 332 q 162 385 207 359 q 93 448 118 411 q 68 540 68 486 q 139 693 68 640 q 348 745 211 745 q 541 703 469 745 q 631 566 612 660 l 522 552 q 467 627 511 601 q 348 653 422 653 q 226 628 265 653 q 186 552 186 603 q 203 500 186 521 q 251 466 219 480 q 385 427 283 452 q 525 381 482 402 q 592 336 568 361 q 631 278 617 311 q 644 203 644 245 m 566 828 l 566 814 l 494 814 l 346 929 l 345 929 l 187 814 l 117 814 l 117 828 l 275 1011 l 414 1011 l 566 828 z "},"Ş":{"ha":926,"x_min":63,"x_max":863,"o":"m 863 264 q 759 59 863 132 q 468 -14 656 -14 q 63 229 119 -14 l 189 254 q 281 128 210 168 q 473 87 351 87 q 666 131 598 87 q 734 257 734 174 q 713 333 734 304 q 653 381 692 362 q 561 413 614 400 q 442 441 507 426 q 270 491 329 466 q 178 547 212 516 q 126 619 144 578 q 108 714 108 661 q 202 903 108 837 q 471 970 296 970 q 720 920 633 970 q 840 750 806 870 l 713 728 q 633 838 692 804 q 469 872 574 872 q 294 834 355 872 q 234 721 234 796 q 257 648 234 677 q 325 599 281 619 q 500 550 369 579 q 588 529 545 540 q 672 504 632 519 q 747 470 712 490 q 808 422 782 450 q 848 355 833 393 q 863 264 863 316 m 614 -172 q 428 -294 614 -294 q 367 -292 389 -294 l 367 -225 q 425 -229 400 -229 q 525 -174 525 -229 q 435 -122 525 -122 q 396 -123 406 -122 l 440 0 l 513 0 l 486 -68 q 582 -97 550 -70 q 614 -172 614 -125 z "},"ş":{"ha":694,"x_min":39,"x_max":644,"o":"m 644 203 q 566 43 644 99 q 347 -14 488 -14 q 135 32 210 -14 q 39 172 61 77 l 146 193 q 211 107 162 134 q 347 79 260 79 q 483 108 439 79 q 526 193 526 136 q 496 264 526 237 q 399 309 466 291 l 312 332 q 162 385 207 359 q 93 448 118 411 q 68 540 68 486 q 139 693 68 640 q 348 745 211 745 q 541 703 469 745 q 631 566 612 660 l 522 552 q 467 627 511 601 q 348 653 422 653 q 226 628 265 653 q 186 552 186 603 q 203 500 186 521 q 251 466 219 480 q 385 427 283 452 q 525 381 482 402 q 592 336 568 361 q 631 278 617 311 q 644 203 644 245 m 475 -172 q 290 -294 475 -294 q 229 -292 251 -294 l 229 -225 q 287 -229 262 -229 q 387 -174 387 -229 q 296 -122 387 -122 q 258 -123 267 -122 l 302 0 l 374 0 l 348 -68 q 444 -97 412 -70 q 475 -172 475 -125 z "},"Š":{"ha":926,"x_min":63,"x_max":863,"o":"m 863 264 q 759 59 863 132 q 468 -14 656 -14 q 63 229 119 -14 l 189 254 q 281 128 210 168 q 473 87 351 87 q 666 131 598 87 q 734 257 734 174 q 713 333 734 304 q 653 381 692 362 q 561 413 614 400 q 442 441 507 426 q 270 491 329 466 q 178 547 212 516 q 126 619 144 578 q 108 714 108 661 q 202 903 108 837 q 471 970 296 970 q 720 920 633 970 q 840 750 806 870 l 713 728 q 633 838 692 804 q 469 872 574 872 q 294 834 355 872 q 234 721 234 796 q 257 648 234 677 q 325 599 281 619 q 500 550 369 579 q 588 529 545 540 q 672 504 632 519 q 747 470 712 490 q 808 422 782 450 q 848 355 833 393 q 863 264 863 316 m 549 1038 l 410 1038 l 252 1200 l 252 1214 l 322 1214 l 479 1120 l 481 1120 l 629 1214 l 701 1214 l 701 1200 l 549 1038 z "},"š":{"ha":694,"x_min":39,"x_max":644,"o":"m 644 203 q 566 43 644 99 q 347 -14 488 -14 q 135 32 210 -14 q 39 172 61 77 l 146 193 q 211 107 162 134 q 347 79 260 79 q 483 108 439 79 q 526 193 526 136 q 496 264 526 237 q 399 309 466 291 l 312 332 q 162 385 207 359 q 93 448 118 411 q 68 540 68 486 q 139 693 68 640 q 348 745 211 745 q 541 703 469 745 q 631 566 612 660 l 522 552 q 467 627 511 601 q 348 653 422 653 q 226 628 265 653 q 186 552 186 603 q 203 500 186 521 q 251 466 219 480 q 385 427 283 452 q 525 381 482 402 q 592 336 568 361 q 631 278 617 311 q 644 203 644 245 m 414 814 l 276 814 l 117 998 l 117 1011 l 188 1011 l 345 897 l 347 897 l 495 1011 l 566 1011 l 566 998 l 414 814 z "},"Ţ":{"ha":848,"x_min":31,"x_max":817,"o":"m 488 850 l 488 0 l 359 0 l 359 850 l 31 850 l 31 956 l 817 956 l 817 850 l 488 850 m 565 -172 q 379 -294 565 -294 q 318 -292 340 -294 l 318 -225 q 376 -229 351 -229 q 476 -174 476 -229 q 386 -122 476 -122 q 347 -123 357 -122 l 391 0 l 464 0 l 437 -68 q 533 -97 501 -70 q 565 -172 565 -125 z "},"ţ":{"ha":386,"x_min":21,"x_max":382,"o":"m 376 5 q 252 -11 315 -11 q 106 155 106 -11 l 106 645 l 21 645 l 21 734 l 111 734 l 146 898 l 228 898 l 228 734 l 363 734 l 363 645 l 228 645 l 228 182 q 245 107 228 129 q 305 86 262 86 q 376 96 330 86 l 376 5 m 382 -172 q 196 -294 382 -294 q 135 -292 157 -294 l 135 -225 q 193 -229 168 -229 q 293 -174 293 -229 q 203 -122 293 -122 q 164 -123 174 -122 l 208 0 l 281 0 l 254 -68 q 350 -97 318 -70 q 382 -172 382 -125 z "},"Ť":{"ha":848,"x_min":31,"x_max":817,"o":"m 488 850 l 488 0 l 359 0 l 359 850 l 31 850 l 31 956 l 817 956 l 817 850 l 488 850 m 493 1038 l 355 1038 l 196 1200 l 196 1214 l 267 1214 l 424 1120 l 425 1120 l 574 1214 l 645 1214 l 645 1200 l 493 1038 z "},"ť":{"ha":521,"x_min":21,"x_max":532,"o":"m 376 5 q 252 -11 315 -11 q 106 155 106 -11 l 106 645 l 21 645 l 21 734 l 111 734 l 146 898 l 228 898 l 228 734 l 363 734 l 363 645 l 228 645 l 228 182 q 245 107 228 129 q 305 86 262 86 q 376 96 330 86 l 376 5 m 532 935 q 517 836 532 876 q 475 764 503 796 l 396 764 q 460 893 460 832 l 400 893 l 400 1006 l 532 1006 l 532 935 z "},"Ŧ":{"ha":848,"x_min":31,"x_max":817,"o":"m 488 850 l 488 543 l 679 543 l 679 439 l 488 439 l 488 0 l 359 0 l 359 439 l 170 439 l 170 543 l 359 543 l 359 850 l 31 850 l 31 956 l 817 956 l 817 850 l 488 850 z "},"ŧ":{"ha":386,"x_min":21,"x_max":376,"o":"m 228 350 l 228 182 q 245 107 228 129 q 305 86 262 86 q 376 96 330 86 l 376 5 q 252 -11 315 -11 q 106 155 106 -11 l 106 350 l 21 350 l 21 439 l 106 439 l 106 645 l 21 645 l 21 734 l 111 734 l 146 898 l 228 898 l 228 734 l 363 734 l 363 645 l 228 645 l 228 439 l 363 439 l 363 350 l 228 350 z "},"Ũ":{"ha":1003,"x_min":107,"x_max":896,"o":"m 496 -14 q 291 29 378 -14 q 155 153 203 72 q 107 347 107 235 l 107 956 l 237 956 l 237 358 q 303 159 237 227 q 495 92 370 92 q 695 162 624 92 q 767 367 767 232 l 767 956 l 896 956 l 896 359 q 847 159 896 243 q 708 31 798 75 q 496 -14 618 -14 m 608 1038 q 551 1050 579 1038 q 496 1078 522 1063 q 445 1106 469 1093 q 400 1118 421 1118 q 345 1097 363 1118 q 320 1038 326 1076 l 258 1038 q 282 1142 266 1107 q 326 1199 298 1178 q 396 1219 353 1219 q 454 1207 426 1219 q 509 1179 483 1194 q 559 1151 536 1164 q 603 1139 583 1139 q 682 1219 671 1139 l 745 1219 q 699 1078 733 1119 q 608 1038 665 1038 z "},"ũ":{"ha":772,"x_min":90,"x_max":680,"o":"m 213 734 l 213 269 q 227 156 213 196 q 273 98 241 116 q 364 81 304 81 q 503 141 452 81 q 554 309 554 201 l 554 734 l 676 734 l 676 157 q 680 0 676 28 l 565 0 q 564 18 564 3 q 562 53 563 33 q 559 125 561 72 l 557 125 q 460 18 515 50 q 323 -14 405 -14 q 146 46 202 -14 q 90 245 90 106 l 90 734 l 213 734 m 500 814 q 444 827 472 814 q 389 855 415 840 q 338 883 362 870 q 293 895 314 895 q 237 874 256 895 q 213 814 219 853 l 151 814 q 175 919 159 884 q 219 976 191 955 q 289 996 246 996 q 347 984 319 996 q 402 956 376 971 q 452 928 429 941 q 496 916 475 916 q 575 996 564 916 l 637 996 q 592 855 626 896 q 500 814 558 814 z "},"Ū":{"ha":1003,"x_min":107,"x_max":896,"o":"m 496 -14 q 291 29 378 -14 q 155 153 203 72 q 107 347 107 235 l 107 956 l 237 956 l 237 358 q 303 159 237 227 q 495 92 370 92 q 695 162 624 92 q 767 367 767 232 l 767 956 l 896 956 l 896 359 q 847 159 896 243 q 708 31 798 75 q 496 -14 618 -14 m 688 1061 l 316 1061 l 316 1147 l 688 1147 l 688 1061 z "},"ū":{"ha":772,"x_min":90,"x_max":680,"o":"m 213 734 l 213 269 q 227 156 213 196 q 273 98 241 116 q 364 81 304 81 q 503 141 452 81 q 554 309 554 201 l 554 734 l 676 734 l 676 157 q 680 0 676 28 l 565 0 q 564 18 564 3 q 562 53 563 33 q 559 125 561 72 l 557 125 q 460 18 515 50 q 323 -14 405 -14 q 146 46 202 -14 q 90 245 90 106 l 90 734 l 213 734 m 570 838 l 197 838 l 197 924 l 570 924 l 570 838 z "},"Ŭ":{"ha":1003,"x_min":107,"x_max":896,"o":"m 496 -14 q 291 29 378 -14 q 155 153 203 72 q 107 347 107 235 l 107 956 l 237 956 l 237 358 q 303 159 237 227 q 495 92 370 92 q 695 162 624 92 q 767 367 767 232 l 767 956 l 896 956 l 896 359 q 847 159 896 243 q 708 31 798 75 q 496 -14 618 -14 m 500 1038 q 349 1084 410 1038 q 275 1206 288 1131 l 355 1206 q 403 1150 366 1171 q 502 1130 440 1130 q 600 1151 564 1130 q 648 1206 636 1171 l 727 1206 q 652 1083 713 1129 q 500 1038 591 1038 z "},"ŭ":{"ha":772,"x_min":90,"x_max":680,"o":"m 213 734 l 213 269 q 227 156 213 196 q 273 98 241 116 q 364 81 304 81 q 503 141 452 81 q 554 309 554 201 l 554 734 l 676 734 l 676 157 q 680 0 676 28 l 565 0 q 564 18 564 3 q 562 53 563 33 q 559 125 561 72 l 557 125 q 460 18 515 50 q 323 -14 405 -14 q 146 46 202 -14 q 90 245 90 106 l 90 734 l 213 734 m 382 814 q 231 872 293 814 q 157 1024 170 930 l 237 1024 q 384 920 256 920 q 530 1024 510 920 l 609 1024 q 534 871 595 928 q 382 814 473 814 z "},"Ů":{"ha":1003,"x_min":107,"x_max":896,"o":"m 496 -14 q 291 29 378 -14 q 155 153 203 72 q 107 347 107 235 l 107 956 l 237 956 l 237 358 q 303 159 237 227 q 495 92 370 92 q 695 162 624 92 q 767 367 767 232 l 767 956 l 896 956 l 896 359 q 847 159 896 243 q 708 31 798 75 q 496 -14 618 -14 m 666 1094 q 618 978 666 1026 q 502 930 570 930 q 386 978 434 930 q 338 1094 338 1026 q 386 1210 338 1162 q 502 1257 434 1257 q 617 1210 569 1257 q 666 1094 666 1162 m 593 1094 q 566 1158 593 1132 q 502 1185 540 1185 q 437 1158 463 1185 q 410 1094 410 1132 q 436 1029 410 1057 q 502 1001 462 1001 q 567 1028 541 1001 q 593 1094 593 1056 z "},"ů":{"ha":772,"x_min":90,"x_max":680,"o":"m 213 734 l 213 269 q 227 156 213 196 q 273 98 241 116 q 364 81 304 81 q 503 141 452 81 q 554 309 554 201 l 554 734 l 676 734 l 676 157 q 680 0 676 28 l 565 0 q 564 18 564 3 q 562 53 563 33 q 559 125 561 72 l 557 125 q 460 18 515 50 q 323 -14 405 -14 q 146 46 202 -14 q 90 245 90 106 l 90 734 l 213 734 m 550 956 q 502 840 550 888 q 386 792 454 792 q 270 840 318 792 q 222 956 222 888 q 270 1072 222 1025 q 386 1120 318 1120 q 502 1072 453 1120 q 550 956 550 1024 m 477 956 q 450 1021 477 994 q 386 1047 424 1047 q 321 1021 347 1047 q 294 956 294 994 q 320 891 294 919 q 386 863 346 863 q 451 891 425 863 q 477 956 477 918 z "},"Ű":{"ha":1003,"x_min":107,"x_max":896,"o":"m 496 -14 q 291 29 378 -14 q 155 153 203 72 q 107 347 107 235 l 107 956 l 237 956 l 237 358 q 303 159 237 227 q 495 92 370 92 q 695 162 624 92 q 767 367 767 232 l 767 956 l 896 956 l 896 359 q 847 159 896 243 q 708 31 798 75 q 496 -14 618 -14 m 302 1038 l 302 1051 l 435 1205 l 576 1205 l 576 1185 l 366 1038 l 302 1038 m 537 1038 l 537 1051 l 671 1205 l 811 1205 l 811 1185 l 601 1038 l 537 1038 z "},"ű":{"ha":772,"x_min":90,"x_max":715,"o":"m 213 734 l 213 269 q 227 156 213 196 q 273 98 241 116 q 364 81 304 81 q 503 141 452 81 q 554 309 554 201 l 554 734 l 676 734 l 676 157 q 680 0 676 28 l 565 0 q 564 18 564 3 q 562 53 563 33 q 559 125 561 72 l 557 125 q 460 18 515 50 q 323 -14 405 -14 q 146 46 202 -14 q 90 245 90 106 l 90 734 l 213 734 m 192 814 l 192 828 l 339 1023 l 479 1023 l 479 1003 l 256 814 l 192 814 m 427 814 l 427 828 l 574 1023 l 715 1023 l 715 1003 l 491 814 l 427 814 z "},"Ų":{"ha":1003,"x_min":107,"x_max":896,"o":"m 496 -14 q 291 29 378 -14 q 155 153 203 72 q 107 347 107 235 l 107 956 l 237 956 l 237 358 q 303 159 237 227 q 495 92 370 92 q 695 162 624 92 q 767 367 767 232 l 767 956 l 896 956 l 896 359 q 847 159 896 243 q 708 31 798 75 q 496 -14 618 -14 m 661 -271 q 566 -290 618 -290 q 459 -255 495 -290 q 423 -163 423 -220 q 453 -71 423 -115 q 528 0 482 -26 l 618 0 q 584 -25 602 -9 q 552 -60 566 -40 q 528 -104 537 -80 q 519 -154 519 -127 q 535 -199 519 -182 q 583 -215 552 -215 q 661 -199 619 -215 l 661 -271 z "},"ų":{"ha":772,"x_min":90,"x_max":698,"o":"m 213 734 l 213 269 q 227 156 213 196 q 273 98 241 116 q 364 81 304 81 q 503 141 452 81 q 554 309 554 201 l 554 734 l 676 734 l 676 157 q 680 0 676 28 l 565 0 q 564 18 564 3 q 562 53 563 33 q 559 125 561 72 l 557 125 q 460 18 515 50 q 323 -14 405 -14 q 146 46 202 -14 q 90 245 90 106 l 90 734 l 213 734 m 698 -271 q 604 -290 655 -290 q 496 -255 532 -290 q 460 -163 460 -220 q 490 -71 460 -115 q 566 0 519 -26 l 656 0 q 621 -25 639 -9 q 589 -60 604 -40 q 565 -104 574 -80 q 556 -154 556 -127 q 573 -199 556 -182 q 620 -215 589 -215 q 698 -199 656 -215 l 698 -271 z "},"Ŵ":{"ha":1311,"x_min":6,"x_max":1306,"o":"m 1025 0 l 870 0 l 705 607 q 657 811 688 664 q 627 680 640 732 q 442 0 615 627 l 288 0 l 6 956 l 141 956 l 313 349 q 369 114 343 235 q 407 277 385 189 q 595 956 428 365 l 719 956 l 885 361 q 945 114 923 215 l 951 138 q 981 265 969 216 q 1171 956 992 314 l 1306 956 l 1025 0 m 878 1051 l 878 1038 l 807 1038 l 659 1132 l 657 1132 l 500 1038 l 429 1038 l 429 1051 l 588 1214 l 726 1214 l 878 1051 z "},"ŵ":{"ha":1003,"x_min":-2,"x_max":1006,"o":"m 796 0 l 654 0 l 526 519 l 502 633 q 483 546 496 603 q 345 0 470 488 l 203 0 l -2 734 l 119 734 l 243 235 q 272 101 248 219 l 283 151 l 437 734 l 568 734 l 696 230 l 727 101 l 748 195 l 887 734 l 1006 734 l 796 0 m 723 828 l 723 814 l 652 814 l 503 929 l 502 929 l 345 814 l 274 814 l 274 828 l 433 1011 l 571 1011 l 723 828 z "},"Ŷ":{"ha":926,"x_min":31,"x_max":896,"o":"m 527 396 l 527 0 l 398 0 l 398 396 l 31 956 l 173 956 l 464 500 l 753 956 l 896 956 l 527 396 m 684 1051 l 684 1038 l 613 1038 l 465 1132 l 463 1132 l 306 1038 l 235 1038 l 235 1051 l 394 1214 l 532 1214 l 684 1051 z "},"ŷ":{"ha":694,"x_min":3,"x_max":692,"o":"m 130 -288 q 45 -281 79 -288 l 45 -189 q 102 -193 71 -193 q 283 -26 216 -193 l 294 3 l 3 734 l 134 734 l 288 328 q 296 306 292 319 q 327 217 301 292 q 355 133 353 142 l 402 267 l 563 734 l 692 734 l 410 0 q 325 -175 364 -117 q 238 -260 286 -232 q 130 -288 190 -288 m 572 828 l 572 814 l 501 814 l 353 929 l 351 929 l 194 814 l 123 814 l 123 828 l 282 1011 l 420 1011 l 572 828 z "},"Ÿ":{"ha":926,"x_min":31,"x_max":896,"o":"m 527 396 l 527 0 l 398 0 l 398 396 l 31 956 l 173 956 l 464 500 l 753 956 l 896 956 l 527 396 m 542 1038 l 542 1162 l 652 1162 l 652 1038 l 542 1038 m 275 1038 l 275 1162 l 387 1162 l 387 1038 l 275 1038 z "},"Ź":{"ha":848,"x_min":44,"x_max":805,"o":"m 805 0 l 44 0 l 44 97 l 626 850 l 94 850 l 94 956 l 773 956 l 773 861 l 191 106 l 805 106 l 805 0 m 331 1038 l 331 1051 l 478 1204 l 618 1204 l 618 1185 l 408 1038 l 331 1038 z "},"ź":{"ha":694,"x_min":56,"x_max":625,"o":"m 56 0 l 56 93 l 467 640 l 79 640 l 79 734 l 611 734 l 611 641 l 200 94 l 625 94 l 625 0 l 56 0 m 258 814 l 258 828 l 406 1023 l 546 1023 l 546 1003 l 322 814 l 258 814 z "},"Ż":{"ha":848,"x_min":44,"x_max":805,"o":"m 805 0 l 44 0 l 44 97 l 626 850 l 94 850 l 94 956 l 773 956 l 773 861 l 191 106 l 805 106 l 805 0 m 363 1088 l 363 1205 l 486 1205 l 486 1088 l 363 1088 z "},"ż":{"ha":694,"x_min":56,"x_max":625,"o":"m 56 0 l 56 93 l 467 640 l 79 640 l 79 734 l 611 734 l 611 641 l 200 94 l 625 94 l 625 0 l 56 0 m 277 890 l 277 1006 l 399 1006 l 399 890 l 277 890 z "},"Ž":{"ha":848,"x_min":44,"x_max":805,"o":"m 805 0 l 44 0 l 44 97 l 626 850 l 94 850 l 94 956 l 773 956 l 773 861 l 191 106 l 805 106 l 805 0 m 509 1038 l 370 1038 l 212 1200 l 212 1214 l 282 1214 l 439 1120 l 441 1120 l 589 1214 l 661 1214 l 661 1200 l 509 1038 z "},"ž":{"ha":694,"x_min":56,"x_max":625,"o":"m 56 0 l 56 93 l 467 640 l 79 640 l 79 734 l 611 734 l 611 641 l 200 94 l 625 94 l 625 0 l 56 0 m 403 814 l 264 814 l 106 998 l 106 1011 l 176 1011 l 334 897 l 335 897 l 484 1011 l 555 1011 l 555 998 l 403 814 z "},"ſ":{"ha":309,"x_min":94,"x_max":359,"o":"m 216 0 l 94 0 l 94 817 q 138 961 94 917 q 273 1005 182 1005 q 359 997 323 1005 l 359 904 q 304 909 328 909 q 237 886 258 909 q 216 800 216 862 l 216 0 z "},"ƀ":{"ha":772,"x_min":7,"x_max":714,"o":"m 7 907 l 94 907 l 94 1006 l 216 1006 l 216 907 l 422 907 l 422 818 l 216 818 l 216 720 q 213 616 216 675 l 216 616 q 306 717 250 686 q 444 747 361 747 q 649 654 583 747 q 714 370 714 560 q 444 -14 714 -14 q 306 17 361 -14 q 216 114 250 47 l 214 114 q 212 50 214 93 q 208 0 209 7 l 90 0 q 94 151 94 37 l 94 818 l 7 818 l 7 907 m 586 366 q 545 587 586 520 q 413 653 505 653 q 263 583 310 653 q 216 359 216 512 q 262 145 216 214 q 412 77 308 77 q 545 145 504 77 q 586 366 586 213 z "},"Ɓ":{"ha":1053,"x_min":14,"x_max":974,"o":"m 974 269 q 881 71 974 142 q 623 0 788 0 l 235 0 l 235 855 l 215 855 q 140 832 163 855 q 118 761 118 809 q 130 690 118 728 l 25 678 q 14 770 14 728 q 72 907 14 858 q 235 956 130 956 l 582 956 q 918 724 918 956 q 871 581 918 639 q 736 504 823 524 q 912 428 850 490 q 974 269 974 365 m 843 279 q 606 448 843 448 l 364 448 l 364 104 l 616 104 q 789 148 734 104 q 843 279 843 192 m 788 708 q 735 819 788 785 q 582 852 682 852 l 364 852 l 364 549 l 582 549 q 737 588 686 549 q 788 708 788 627 z "},"Ƃ":{"ha":911,"x_min":114,"x_max":857,"o":"m 857 280 q 769 77 857 153 q 528 0 682 0 l 114 0 l 114 956 l 759 956 l 759 850 l 243 850 l 243 551 l 519 551 q 768 480 680 551 q 857 280 857 409 m 726 279 q 671 405 726 361 q 504 448 615 448 l 243 448 l 243 102 l 509 102 q 673 149 621 102 q 726 279 726 195 z "},"ƃ":{"ha":772,"x_min":90,"x_max":714,"o":"m 714 370 q 444 -14 714 -14 q 306 17 361 -14 q 216 114 250 47 l 214 114 q 212 50 214 93 q 208 0 209 7 l 90 0 q 94 151 94 37 l 94 1006 l 598 1006 l 598 899 l 216 899 l 216 720 q 213 616 216 675 l 216 616 q 306 717 250 686 q 444 747 361 747 q 649 654 583 747 q 714 370 714 560 m 586 366 q 545 587 586 520 q 413 653 505 653 q 263 583 310 653 q 216 359 216 512 q 262 145 216 214 q 412 77 308 77 q 545 145 504 77 q 586 366 586 213 z "},"Ƅ":{"ha":911,"x_min":7,"x_max":857,"o":"m 857 283 q 817 136 857 200 q 703 36 777 71 q 528 0 629 0 l 114 0 l 114 686 l 7 798 l 7 820 l 205 956 l 243 956 l 243 558 l 519 558 q 768 485 680 558 q 857 283 857 412 m 726 282 q 670 409 726 363 q 504 455 614 455 l 243 455 l 243 102 l 509 102 q 673 150 621 102 q 726 282 726 198 z "},"ƅ":{"ha":772,"x_min":7,"x_max":714,"o":"m 7 859 l 7 881 l 181 1006 l 216 1006 l 216 720 q 213 616 216 675 l 216 616 q 306 717 250 686 q 444 747 361 747 q 649 654 583 747 q 714 370 714 560 q 444 -14 714 -14 q 306 17 361 -14 q 216 114 250 47 l 214 114 q 212 50 214 93 q 208 0 209 7 l 90 0 q 94 151 94 37 l 94 736 l 7 859 m 586 366 q 545 587 586 520 q 413 653 505 653 q 263 583 310 653 q 216 359 216 512 q 262 145 216 214 q 412 77 308 77 q 545 145 504 77 q 586 366 586 213 z "},"Ɔ":{"ha":1003,"x_min":62,"x_max":937,"o":"m 473 92 q 718 193 631 92 q 806 474 806 294 q 714 757 806 650 q 467 863 623 863 q 168 665 270 863 l 62 718 q 227 905 121 841 q 473 970 332 970 q 814 837 692 970 q 937 474 937 704 q 814 116 937 245 q 474 -14 692 -14 q 71 223 168 -14 l 193 264 q 297 137 224 182 q 473 92 370 92 z "},"Ƈ":{"ha":1003,"x_min":71,"x_max":1091,"o":"m 537 864 q 290 762 378 864 q 202 482 202 660 q 294 200 202 307 q 543 93 386 93 q 844 292 743 93 l 950 239 q 784 51 891 115 q 536 -14 677 -14 q 287 46 392 -14 q 126 218 181 106 q 71 482 71 330 q 194 840 71 711 q 536 970 317 970 q 834 880 722 970 l 834 895 q 881 1042 834 989 q 1010 1096 927 1096 q 1091 1086 1046 1096 l 1091 979 q 1031 991 1053 991 q 962 967 983 991 q 941 891 941 943 l 941 733 l 819 692 q 712 820 785 776 q 537 864 638 864 z "},"ƈ":{"ha":694,"x_min":59,"x_max":789,"o":"m 186 370 q 233 153 186 224 q 372 83 279 83 q 480 118 437 83 q 534 227 524 153 l 658 218 q 568 50 644 113 q 375 -14 492 -14 q 140 84 221 -14 q 59 368 59 181 q 140 650 59 553 q 374 747 222 747 q 547 699 475 747 q 598 825 553 781 q 722 870 642 870 q 789 862 754 870 l 789 760 q 736 771 765 771 q 672 747 691 771 q 654 671 654 723 l 654 528 l 528 519 q 480 616 519 580 q 370 652 441 652 q 230 587 273 652 q 186 370 186 523 z "},"Ɖ":{"ha":1003,"x_min":9,"x_max":937,"o":"m 9 543 l 114 543 l 114 956 l 430 956 q 805 834 673 956 q 937 488 937 712 q 879 229 937 340 q 715 59 821 118 q 471 0 610 0 l 114 0 l 114 439 l 9 439 l 9 543 m 806 488 q 709 759 806 665 q 427 852 612 852 l 243 852 l 243 543 l 519 543 l 519 439 l 243 439 l 243 104 l 456 104 q 641 150 562 104 q 764 283 721 196 q 806 488 806 370 z "},"Ɗ":{"ha":1124,"x_min":14,"x_max":1057,"o":"m 1057 488 q 1000 229 1057 340 q 836 59 942 118 q 592 0 730 0 l 235 0 l 235 855 l 215 855 q 140 832 163 855 q 118 761 118 809 q 130 690 118 728 l 25 678 q 14 770 14 728 q 72 907 14 858 q 235 956 130 956 l 551 956 q 925 834 793 956 q 1057 488 1057 712 m 927 488 q 830 759 927 665 q 548 852 732 852 l 364 852 l 364 104 l 577 104 q 762 150 682 104 q 884 283 842 196 q 927 488 927 370 z "},"Ƌ":{"ha":911,"x_min":55,"x_max":798,"o":"m 55 280 q 143 480 55 409 q 392 551 232 551 l 668 551 l 668 850 l 153 850 l 153 956 l 798 956 l 798 0 l 384 0 q 143 77 231 0 q 55 280 55 153 m 185 279 q 238 149 185 195 q 402 102 291 102 l 668 102 l 668 448 l 408 448 q 241 405 296 448 q 185 279 185 361 z "},"ƌ":{"ha":772,"x_min":56,"x_max":680,"o":"m 56 370 q 121 654 56 560 q 326 747 186 747 q 464 717 408 747 q 554 616 520 686 l 557 616 q 554 720 554 675 l 554 899 l 172 899 l 172 1006 l 676 1006 l 676 151 q 680 0 676 37 l 562 0 q 558 50 561 6 q 555 114 555 93 l 554 114 q 464 17 519 47 q 326 -14 409 -14 q 56 370 56 -14 m 184 366 q 225 145 184 214 q 358 77 266 77 q 507 145 460 77 q 554 359 554 214 q 507 582 554 511 q 357 653 460 653 q 224 586 265 653 q 184 366 184 519 z "},"ƍ":{"ha":773,"x_min":58,"x_max":714,"o":"m 128 -190 l 480 -190 q 338 -71 412 -130 l 191 48 q 89 186 119 108 q 58 378 58 264 q 141 657 58 567 q 387 747 223 747 q 636 659 557 747 q 714 378 714 570 q 413 3 714 20 l 654 -199 l 654 -288 l 128 -288 l 128 -190 m 586 378 q 542 592 586 527 q 389 657 498 657 q 233 591 280 657 q 186 378 186 524 q 233 163 186 234 q 382 93 279 93 q 501 122 458 93 q 565 213 543 151 q 586 378 586 276 z "},"Ǝ":{"ha":926,"x_min":60,"x_max":813,"o":"m 60 0 l 60 106 l 684 106 l 684 439 l 129 439 l 129 543 l 684 543 l 684 850 l 88 850 l 88 956 l 813 956 l 813 0 l 60 0 z "},"Ə":{"ha":1045,"x_min":64,"x_max":981,"o":"m 524 85 q 763 179 677 85 q 855 442 848 272 l 187 442 q 287 180 199 275 q 524 85 375 85 m 850 549 q 747 781 833 697 q 525 864 660 864 q 348 819 420 864 q 237 692 275 774 l 113 730 q 270 907 166 844 q 525 970 374 970 q 769 911 666 970 q 927 741 872 852 q 981 482 981 630 q 926 221 981 334 q 766 47 870 108 q 524 -14 663 -14 q 278 47 382 -14 q 119 220 174 107 q 64 482 64 333 q 67 549 64 507 l 850 549 z "},"Ɛ":{"ha":839,"x_min":60,"x_max":788,"o":"m 412 -14 q 228 21 309 -14 q 104 120 148 56 q 60 265 60 184 q 115 422 60 361 q 278 499 171 483 q 88 713 88 536 q 176 899 88 828 q 406 969 264 969 q 631 912 541 969 q 768 738 721 855 l 648 696 q 555 824 614 784 q 411 864 496 864 q 270 825 323 864 q 218 717 218 785 q 458 544 218 544 l 506 544 l 506 444 l 458 444 q 256 404 321 444 q 191 273 191 363 q 251 138 191 186 q 417 90 312 90 q 676 275 595 90 l 788 222 q 640 41 730 96 q 412 -14 550 -14 z "},"Ƒ":{"ha":848,"x_min":-39,"x_max":793,"o":"m 243 850 l 243 494 l 777 494 l 777 387 l 243 387 l 243 -88 q 195 -237 243 -185 q 58 -288 146 -288 q -39 -275 16 -288 l -16 -169 q 43 -180 19 -180 q 114 -74 114 -180 l 114 956 l 793 956 l 793 850 l 243 850 z "},"ƒ":{"ha":772,"x_min":130,"x_max":653,"o":"m 632 890 q 557 900 597 900 q 495 875 517 900 q 460 786 473 850 l 443 693 l 586 693 l 569 604 l 425 604 l 252 -294 l 130 -294 l 302 604 l 199 604 l 218 693 l 320 693 l 340 796 q 411 943 361 900 q 552 986 462 986 q 653 972 606 986 l 632 890 z "},"Ɠ":{"ha":1080,"x_min":70,"x_max":1105,"o":"m 832 708 q 720 827 791 789 q 542 864 648 864 q 289 764 376 864 q 201 482 201 664 q 294 196 201 301 q 551 92 387 92 q 726 120 645 92 q 857 197 807 149 l 857 370 l 572 370 l 572 478 l 977 478 l 977 149 q 790 29 901 71 q 551 -14 680 -14 q 293 46 401 -14 q 127 218 184 106 q 70 482 70 330 q 195 842 70 715 q 545 970 319 970 q 848 886 741 970 l 848 907 q 895 1054 848 1000 q 1024 1107 941 1107 q 1105 1097 1061 1107 l 1105 991 q 1046 1003 1067 1003 q 977 979 998 1003 q 956 903 956 955 l 956 745 l 832 708 z "},"Ɣ":{"ha":867,"x_min":7,"x_max":860,"o":"m 435 -288 q 311 -240 357 -288 q 266 -109 266 -191 q 275 -42 266 -78 q 298 29 284 -7 q 366 168 313 64 l 7 956 l 143 956 l 434 277 l 724 956 l 860 956 l 500 168 q 582 -3 561 58 q 604 -109 604 -64 q 558 -239 604 -191 q 435 -288 513 -288 m 493 -111 q 475 -16 493 -72 q 435 88 458 40 q 394 -16 412 40 q 376 -111 376 -71 q 392 -166 376 -146 q 435 -186 408 -186 q 477 -167 462 -186 q 493 -111 493 -147 z "},"ƕ":{"ha":1223,"x_min":96,"x_max":1131,"o":"m 852 -14 q 645 55 717 -14 q 573 245 573 123 l 573 465 q 534 611 573 569 q 408 653 495 653 q 270 593 322 653 q 218 433 218 534 l 218 0 l 96 0 l 96 1006 l 218 1006 l 218 745 q 216 659 218 703 q 213 608 214 615 l 215 608 q 450 747 282 747 q 635 684 574 747 q 696 489 696 621 l 696 267 q 733 120 696 161 q 852 79 770 79 q 972 120 935 79 q 1008 267 1008 161 l 1008 734 l 1131 734 l 1131 248 q 1059 56 1131 125 q 852 -14 987 -14 z "},"Ɩ":{"ha":309,"x_min":94,"x_max":216,"o":"m 94 0 l 94 1006 l 216 1006 l 216 0 l 94 0 z "},"Ɨ":{"ha":386,"x_min":20,"x_max":370,"o":"m 133 0 l 133 456 l 20 456 l 20 551 l 133 551 l 133 1006 l 255 1006 l 255 551 l 370 551 l 370 456 l 255 456 l 255 0 l 133 0 z "},"Ƙ":{"ha":926,"x_min":114,"x_max":911,"o":"m 750 0 l 368 461 l 243 366 l 243 0 l 114 0 l 114 766 q 165 915 114 863 q 312 966 217 966 q 401 956 357 966 l 401 844 q 329 857 368 857 q 243 756 243 857 l 243 477 l 704 956 l 857 956 l 450 541 l 911 0 l 750 0 z "},"ƙ":{"ha":694,"x_min":94,"x_max":696,"o":"m 538 734 l 681 734 l 383 418 l 696 0 l 553 0 l 305 335 l 216 261 l 216 0 l 94 0 l 94 815 q 145 964 94 912 q 292 1016 197 1016 q 381 1006 336 1016 l 381 894 q 302 906 347 906 q 216 806 216 906 l 216 378 l 538 734 z "},"ƚ":{"ha":309,"x_min":14,"x_max":286,"o":"m 90 0 l 90 456 l 14 456 l 14 551 l 90 551 l 90 1006 l 212 1006 l 212 551 l 286 551 l 286 456 l 212 456 l 212 0 l 90 0 z "},"ƛ":{"ha":694,"x_min":9,"x_max":682,"o":"m 484 865 l 376 825 l 682 0 l 553 0 l 413 391 q 369 536 385 467 q 344 469 359 505 q 136 0 330 433 l 9 0 l 314 658 l 268 786 l 143 741 l 112 821 l 239 867 l 190 1006 l 310 1006 l 347 907 l 453 945 l 484 865 z "},"Ɯ":{"ha":1237,"x_min":107,"x_max":1129,"o":"m 810 -14 q 607 100 669 -14 q 387 -14 526 -14 q 107 320 107 -14 l 107 956 l 235 956 l 235 331 q 251 192 235 244 q 301 116 267 140 q 394 92 334 92 q 512 144 475 92 q 550 298 550 196 l 550 956 l 678 956 l 678 309 q 712 145 678 199 q 827 92 746 92 q 994 311 994 92 l 994 956 l 1122 956 l 1122 157 q 1129 0 1122 58 l 1014 0 l 1009 99 q 924 15 975 44 q 810 -14 873 -14 z "},"Ɲ":{"ha":1003,"x_min":-33,"x_max":890,"o":"m 114 956 l 264 956 l 781 136 q 773 329 773 269 l 773 956 l 890 956 l 890 0 l 734 0 l 222 814 l 226 748 l 229 635 l 229 -88 q 183 -237 229 -186 q 50 -288 138 -288 q -33 -281 1 -288 l -33 -171 q 35 -180 -3 -180 q 113 -74 113 -180 l 114 956 z "},"ƞ":{"ha":772,"x_min":92,"x_max":682,"o":"m 559 -289 l 559 465 q 545 578 559 538 q 500 635 531 618 q 408 653 469 653 q 269 593 320 653 q 218 425 218 532 l 218 0 l 96 0 l 96 577 q 92 734 96 705 l 208 734 q 209 715 208 730 q 211 681 210 701 q 213 608 212 662 l 215 608 q 312 716 257 684 q 450 747 368 747 q 626 687 570 747 q 682 489 682 627 l 682 -289 l 559 -289 z "},"Ɵ":{"ha":1080,"x_min":66,"x_max":1014,"o":"m 1014 482 q 957 220 1014 332 q 792 47 899 107 q 539 -14 685 -14 q 285 46 392 -14 q 122 219 178 106 q 66 482 66 332 q 191 841 66 711 q 541 970 317 970 q 793 912 686 970 q 957 743 901 854 q 1014 482 1014 633 m 539 92 q 784 183 696 92 q 880 442 871 275 l 199 442 q 298 186 209 280 q 539 92 387 92 m 541 864 q 306 783 393 864 q 201 551 218 701 l 878 551 q 772 782 861 700 q 541 864 684 864 z "},"Ơ":{"ha":1191,"x_min":66,"x_max":1159,"o":"m 1014 482 q 957 220 1014 332 q 792 47 899 107 q 539 -14 685 -14 q 285 46 392 -14 q 122 219 178 106 q 66 482 66 332 q 191 841 66 711 q 541 970 317 970 q 819 897 706 970 q 980 691 931 824 q 1063 757 1040 721 q 1086 842 1086 793 l 1027 842 l 1027 956 l 1159 956 l 1159 884 q 1120 738 1159 800 q 996 635 1081 676 q 1014 482 1014 563 m 882 482 q 792 762 882 661 q 541 864 703 864 q 287 764 376 864 q 197 482 197 663 q 288 197 197 302 q 539 92 378 92 q 793 194 705 92 q 882 482 882 296 z "},"ơ":{"ha":911,"x_min":58,"x_max":870,"o":"m 714 368 q 629 81 714 175 q 383 -14 545 -14 q 140 84 222 -14 q 58 368 58 182 q 387 747 58 747 q 609 680 532 747 q 707 476 687 612 q 798 625 798 520 l 738 625 l 738 738 l 870 738 l 870 666 q 829 513 870 578 q 713 416 789 448 l 714 368 m 586 368 q 541 588 586 519 q 389 657 496 657 q 234 587 282 657 q 186 368 186 517 q 234 150 186 222 q 382 77 281 77 q 539 147 492 77 q 586 368 586 218 z "},"Ƣ":{"ha":1206,"x_min":66,"x_max":1093,"o":"m 818 58 q 679 4 744 22 q 534 -14 614 -14 q 283 47 389 -14 q 122 220 178 107 q 66 482 66 332 q 122 742 66 631 q 285 911 178 853 q 535 970 391 970 q 783 922 646 970 l 1064 965 l 1093 965 l 1093 -288 l 971 -288 l 971 828 l 818 829 l 818 58 m 696 833 q 535 864 628 864 q 286 762 375 864 q 197 482 197 661 q 287 197 197 303 q 534 92 377 92 q 696 123 627 92 l 696 833 z "},"ƣ":{"ha":927,"x_min":58,"x_max":827,"o":"m 709 -288 l 709 623 l 581 623 l 581 43 q 490 1 542 16 q 383 -14 438 -14 q 140 84 222 -14 q 58 368 58 182 q 387 747 58 747 q 493 733 443 747 q 578 697 544 718 l 798 741 l 827 741 l 827 -288 l 709 -288 m 389 657 q 234 587 282 657 q 186 368 186 517 q 234 150 186 222 q 382 77 281 77 q 463 92 425 77 l 463 644 q 389 657 427 657 z "},"Ƥ":{"ha":1048,"x_min":14,"x_max":969,"o":"m 632 956 q 881 880 793 956 q 969 668 969 805 q 881 452 969 532 q 640 372 792 372 l 359 372 l 359 0 l 230 0 l 230 855 l 215 855 q 140 832 163 855 q 118 761 118 809 q 130 690 118 728 l 25 678 q 14 770 14 728 q 72 907 14 858 q 235 956 130 956 l 632 956 m 839 667 q 616 852 839 852 l 359 852 l 359 475 l 622 475 q 839 667 839 475 z "},"ƥ":{"ha":772,"x_min":94,"x_max":714,"o":"m 714 370 q 444 -14 714 -14 q 216 114 275 -14 l 213 114 q 216 -1 216 109 l 216 -288 l 94 -288 l 94 815 q 143 965 94 913 q 290 1016 193 1016 q 353 1010 326 1016 l 378 1005 l 378 892 q 299 906 340 906 q 214 806 214 906 l 214 616 l 217 616 q 303 715 250 684 q 444 747 357 747 q 647 656 580 747 q 714 370 714 565 m 586 368 q 545 587 586 521 q 413 652 503 652 q 299 622 340 652 q 237 527 258 591 q 216 358 216 462 q 262 145 216 214 q 412 77 308 77 q 544 143 503 77 q 586 368 586 210 z "},"Ʀ":{"ha":926,"x_min":114,"x_max":913,"o":"m 764 -216 l 502 292 l 243 292 l 243 0 l 114 0 l 114 956 l 241 956 l 241 851 l 524 851 q 773 779 686 851 q 861 578 861 707 q 799 399 861 471 q 628 307 737 326 l 913 -216 l 764 -216 m 731 576 q 674 704 731 660 q 511 747 618 747 l 243 747 l 243 395 l 517 395 q 675 443 619 395 q 731 576 731 490 z "},"Ƨ":{"ha":926,"x_min":66,"x_max":865,"o":"m 66 259 q 87 367 66 320 q 149 449 109 414 q 254 510 190 484 q 425 555 319 535 q 585 596 532 575 q 664 647 637 617 q 691 721 691 677 q 460 872 691 872 q 295 832 355 872 q 213 704 234 791 l 85 726 q 206 913 120 856 q 459 970 292 970 q 726 903 634 970 q 817 714 817 837 q 800 622 817 662 q 751 554 783 583 q 664 502 720 525 q 483 452 609 479 q 300 399 355 424 q 220 339 245 374 q 195 252 195 304 q 448 87 195 87 q 593 110 535 87 q 685 176 650 132 q 740 306 720 220 l 865 281 q 728 57 830 127 q 453 -14 627 -14 q 166 57 265 -14 q 66 259 66 127 z "},"ƨ":{"ha":694,"x_min":54,"x_max":653,"o":"m 54 203 q 81 306 54 264 q 158 375 109 348 q 311 427 208 403 q 446 465 414 450 q 493 500 477 479 q 510 552 510 521 q 365 653 510 653 q 245 624 290 653 q 188 530 201 595 l 78 543 q 170 695 99 646 q 366 745 241 745 q 559 692 490 745 q 629 540 629 640 q 603 446 629 484 q 530 381 577 408 q 385 332 483 355 q 241 289 275 305 q 190 251 207 273 q 172 193 172 228 q 338 79 172 79 q 545 220 506 79 l 653 199 q 338 -14 602 -14 q 130 43 206 -14 q 54 203 54 100 z "},"Ʃ":{"ha":859,"x_min":73,"x_max":804,"o":"m 73 0 l 73 110 l 438 503 l 85 846 l 85 956 l 762 956 l 762 850 l 231 850 l 541 548 l 541 464 l 209 106 l 804 106 l 804 0 l 73 0 z "},"ƪ":{"ha":528,"x_min":45,"x_max":516,"o":"m 45 883 q 83 978 45 944 q 184 1013 121 1013 q 320 961 275 1013 q 365 817 365 909 l 365 -84 q 385 -156 365 -130 q 444 -181 405 -181 q 516 -172 481 -181 l 516 -279 q 425 -288 469 -288 q 291 -236 338 -288 q 243 -87 243 -184 l 243 779 q 212 765 233 771 q 173 759 191 759 q 81 794 116 759 q 45 883 45 829 m 98 886 q 118 833 98 853 q 171 812 138 812 q 224 833 204 812 q 245 886 245 853 q 225 939 245 919 q 171 960 205 960 q 118 939 138 960 q 98 886 98 919 z "},"ƫ":{"ha":386,"x_min":21,"x_max":376,"o":"m 376 -97 q 204 -288 376 -288 q 113 -277 159 -288 l 113 -168 q 184 -180 151 -180 q 243 -158 225 -180 q 262 -87 262 -136 l 262 -11 l 252 -11 q 106 155 106 -11 l 106 645 l 21 645 l 21 734 l 111 734 l 146 898 l 228 898 l 228 734 l 363 734 l 363 645 l 228 645 l 228 182 q 245 107 228 129 q 305 86 262 86 q 376 96 330 86 l 376 -97 z "},"Ƭ":{"ha":848,"x_min":14,"x_max":817,"o":"m 488 850 l 488 0 l 359 0 l 359 850 l 215 850 q 140 829 163 850 q 118 761 118 809 q 130 690 118 728 l 25 678 q 14 770 14 728 q 66 908 14 861 q 221 956 119 956 l 817 956 l 817 850 l 488 850 z "},"ƭ":{"ha":386,"x_min":21,"x_max":378,"o":"m 376 5 q 252 -11 315 -11 q 106 155 106 -11 l 106 645 l 21 645 l 21 734 l 111 734 l 111 808 q 158 964 111 911 q 296 1016 205 1016 q 378 1006 341 1016 l 378 892 q 309 906 340 906 q 247 881 266 906 q 228 806 228 857 l 228 734 l 363 734 l 363 645 l 228 645 l 228 182 q 245 107 228 129 q 305 86 262 86 q 376 96 330 86 l 376 5 z "},"Ʈ":{"ha":848,"x_min":31,"x_max":817,"o":"m 31 850 l 31 956 l 817 956 l 817 850 l 488 850 l 488 -74 q 505 -155 488 -129 q 556 -180 521 -180 q 631 -170 597 -180 l 631 -277 q 541 -288 583 -288 q 407 -238 454 -288 q 359 -96 359 -188 l 359 850 l 31 850 z "},"Ư":{"ha":1186,"x_min":107,"x_max":1128,"o":"m 496 -14 q 291 29 378 -14 q 155 153 203 72 q 107 347 107 235 l 107 956 l 237 956 l 237 358 q 303 159 237 227 q 495 92 370 92 q 695 162 624 92 q 767 367 767 232 l 767 956 l 896 956 l 896 682 q 1017 739 978 699 q 1056 842 1056 778 l 996 842 l 996 956 l 1128 956 l 1128 884 q 1071 706 1128 774 q 896 621 1014 638 l 896 359 q 847 159 896 243 q 708 31 798 75 q 496 -14 618 -14 z "},"ư":{"ha":930,"x_min":90,"x_max":887,"o":"m 213 734 l 213 269 q 227 156 213 196 q 273 98 241 116 q 364 81 304 81 q 503 141 452 81 q 554 309 554 201 l 554 734 l 676 734 l 676 453 q 784 514 754 477 q 814 621 814 552 l 755 621 l 755 734 l 887 734 l 887 662 q 838 489 887 554 q 676 391 789 423 l 676 157 q 680 0 676 28 l 565 0 q 564 18 564 3 q 562 53 563 33 q 559 125 561 72 l 557 125 q 460 18 515 50 q 323 -14 405 -14 q 146 46 202 -14 q 90 245 90 106 l 90 734 l 213 734 z "},"Ʊ":{"ha":1038,"x_min":59,"x_max":979,"o":"m 519 -14 q 196 99 313 -14 q 78 412 78 213 q 151 664 78 549 q 366 857 224 779 q 224 850 261 850 l 59 850 l 59 956 l 458 956 l 458 804 q 274 643 337 739 q 210 421 210 546 q 291 178 210 264 q 518 92 372 92 q 747 178 666 92 q 827 421 827 264 q 764 642 827 545 q 579 804 701 739 l 579 956 l 979 956 l 979 850 l 813 850 q 672 857 777 850 q 886 665 813 781 q 960 412 960 549 q 842 99 960 213 q 519 -14 724 -14 z "},"Ʋ":{"ha":1003,"x_min":107,"x_max":894,"o":"m 477 -14 q 282 31 365 -14 q 153 160 199 75 q 107 368 107 245 l 107 956 l 237 956 l 237 378 q 302 167 237 243 q 488 92 368 92 q 694 229 623 92 q 765 644 765 366 q 739 807 765 758 q 650 856 712 856 q 577 849 611 856 l 572 956 q 671 964 618 964 q 837 888 780 964 q 894 665 894 812 q 848 268 894 410 q 709 56 802 126 q 477 -14 616 -14 z "},"Ƴ":{"ha":1073,"x_min":31,"x_max":1040,"o":"m 869 964 q 955 948 909 964 q 1040 899 1000 933 l 983 806 q 933 838 965 823 q 876 853 901 853 q 835 843 852 853 q 797 801 819 833 l 527 396 l 527 0 l 398 0 l 398 396 l 31 956 l 176 956 l 466 500 l 696 857 q 774 940 734 916 q 869 964 815 964 z "},"ƴ":{"ha":694,"x_min":3,"x_max":962,"o":"m 130 -288 q 45 -281 79 -288 l 45 -189 q 102 -193 71 -193 q 283 -26 216 -193 l 294 3 l 3 734 l 134 734 l 288 328 q 296 306 292 319 q 327 217 301 292 q 355 133 353 142 l 402 267 l 604 847 q 652 943 626 907 q 712 996 678 979 q 800 1012 745 1012 q 962 949 888 1012 l 906 862 q 811 904 860 904 q 711 811 745 904 l 410 0 q 283 -225 347 -162 q 130 -288 220 -288 z "},"Ƶ":{"ha":848,"x_min":42,"x_max":806,"o":"m 42 552 l 396 552 l 626 850 l 94 850 l 94 956 l 773 956 l 773 861 l 535 552 l 806 552 l 806 462 l 465 462 l 191 106 l 805 106 l 805 0 l 44 0 l 44 97 l 326 462 l 42 462 l 42 552 z "},"ƶ":{"ha":694,"x_min":32,"x_max":645,"o":"m 32 418 l 300 418 l 481 640 l 60 640 l 60 734 l 619 734 l 619 641 l 436 418 l 645 418 l 645 328 l 362 328 l 170 94 l 644 94 l 644 0 l 33 0 l 33 93 l 226 328 l 32 328 l 32 418 z "},"Ʒ":{"ha":848,"x_min":31,"x_max":801,"o":"m 283 515 l 623 850 l 77 850 l 77 956 l 767 956 l 767 846 l 425 514 q 704 400 608 502 q 801 116 801 299 q 752 -95 801 -2 q 615 -238 704 -187 q 416 -289 526 -289 q 181 -233 275 -289 q 31 -53 87 -176 l 140 -4 q 411 -188 220 -188 q 604 -108 534 -188 q 673 116 673 -28 q 586 340 673 262 q 332 419 498 419 l 283 419 l 283 515 z "},"Ƹ":{"ha":848,"x_min":47,"x_max":818,"o":"m 565 419 l 517 419 q 263 341 351 419 q 175 116 175 262 q 209 -46 175 22 q 301 -151 242 -115 q 437 -188 361 -188 q 708 -4 628 -188 l 818 -53 q 667 -233 762 -176 q 433 -289 573 -289 q 153 -180 258 -289 q 47 116 47 -71 q 147 390 47 286 q 424 514 246 494 l 81 846 l 81 956 l 772 956 l 772 850 l 226 850 l 565 515 l 565 419 z "},"ƹ":{"ha":757,"x_min":63,"x_max":719,"o":"m 686 639 l 216 639 l 476 376 l 476 279 l 420 279 q 250 216 315 279 q 186 51 186 154 q 213 -70 186 -12 q 287 -161 241 -127 q 389 -194 334 -194 q 534 -153 483 -194 q 598 -24 586 -113 l 719 -33 q 617 -224 703 -159 q 385 -290 530 -290 q 216 -246 289 -290 q 103 -125 142 -202 q 63 47 63 -47 q 136 263 63 178 q 338 366 210 349 l 87 614 l 87 734 l 686 734 l 686 639 z "},"ƺ":{"ha":757,"x_min":53,"x_max":715,"o":"m 715 -68 q 597 -231 688 -174 q 363 -289 506 -289 q 197 -263 270 -289 q 89 -191 124 -237 q 53 -82 53 -144 q 82 9 53 -28 q 161 73 111 46 q 326 128 212 99 q 481 184 442 157 q 519 251 519 212 q 453 322 519 301 q 256 342 387 342 l 256 437 l 498 639 l 73 639 l 73 734 l 662 734 l 662 653 l 393 435 q 576 379 514 426 q 637 251 637 332 q 611 159 637 195 q 537 98 584 122 q 371 44 490 73 q 245 5 278 21 q 195 -32 212 -10 q 177 -87 177 -54 q 224 -164 177 -136 q 364 -192 272 -192 q 595 -56 550 -192 l 715 -68 z "},"ƻ":{"ha":772,"x_min":61,"x_max":703,"o":"m 61 509 l 463 509 q 537 603 513 555 q 562 704 562 650 q 516 826 562 783 q 388 869 470 869 q 259 827 310 869 q 200 708 209 785 l 75 720 q 173 902 89 834 q 388 970 256 970 q 610 902 532 970 q 688 708 688 833 q 604 509 688 609 l 700 509 l 700 416 l 513 416 q 421 339 469 377 q 332 263 374 301 q 256 186 290 225 q 204 104 222 146 l 703 104 l 703 0 l 70 0 l 70 86 q 132 196 95 145 q 213 293 168 247 q 354 416 258 339 l 61 416 l 61 509 z "},"Ƽ":{"ha":772,"x_min":60,"x_max":720,"o":"m 720 325 q 630 76 720 165 q 381 -14 541 -14 q 168 52 252 -14 q 60 234 83 118 l 182 248 q 256 123 205 163 q 383 83 307 83 q 538 144 484 83 q 593 322 593 205 q 535 485 593 431 q 366 539 476 539 l 210 539 l 210 850 l 94 850 l 94 956 l 665 956 l 665 850 l 335 850 l 335 644 l 388 644 q 632 559 545 644 q 720 325 720 473 z "},"ƽ":{"ha":637,"x_min":31,"x_max":585,"o":"m 463 231 q 264 373 463 373 l 151 373 l 151 639 l 34 639 l 34 734 l 563 734 l 563 639 l 260 639 l 260 467 l 297 467 q 510 405 435 467 q 585 233 585 342 q 514 51 585 115 q 316 -14 444 -14 q 125 41 196 -14 q 31 211 54 96 l 149 219 q 202 116 158 156 q 308 77 245 77 q 463 231 463 77 z "},"ƾ":{"ha":676,"x_min":24,"x_max":624,"o":"m 235 645 l 235 572 q 247 492 235 515 q 286 454 258 469 q 365 427 313 439 q 488 389 454 404 q 547 358 523 375 q 589 318 572 341 q 615 268 606 296 q 624 203 624 240 q 556 43 624 100 q 347 -14 488 -14 q 135 32 210 -14 q 39 172 61 77 l 146 193 q 211 107 162 134 q 347 79 260 79 q 469 106 433 79 q 505 193 505 134 q 493 248 505 227 q 456 283 481 269 q 396 308 432 298 q 312 332 359 319 q 157 414 200 361 q 113 560 113 467 l 113 645 l 24 645 l 24 734 l 114 734 l 114 969 l 235 1022 l 235 734 l 361 734 l 361 645 l 235 645 z "},"ƿ":{"ha":772,"x_min":94,"x_max":713,"o":"m 713 423 q 662 220 713 312 q 507 55 612 127 q 216 -86 401 -18 l 216 -289 l 94 -289 l 94 734 l 208 734 q 214 616 214 663 l 217 616 q 303 714 247 682 q 436 747 360 747 q 641 664 570 747 q 713 423 713 581 m 584 423 q 410 652 584 652 q 264 583 313 652 q 216 370 216 513 l 216 14 q 430 125 351 64 q 546 259 508 185 q 584 423 584 332 z "},"ǀ":{"ha":361,"x_min":119,"x_max":241,"o":"m 119 0 l 119 1006 l 241 1006 l 241 0 l 119 0 z "},"ǁ":{"ha":574,"x_min":121,"x_max":452,"o":"m 121 0 l 121 1006 l 233 1006 l 233 0 l 121 0 m 340 0 l 340 1006 l 452 1006 l 452 0 l 340 0 z "},"ǂ":{"ha":811,"x_min":77,"x_max":734,"o":"m 77 699 l 346 699 l 346 1006 l 464 1006 l 464 699 l 734 699 l 734 595 l 464 595 l 464 386 l 734 386 l 734 282 l 464 282 l 464 0 l 346 0 l 346 282 l 77 282 l 77 386 l 346 386 l 346 595 l 77 595 l 77 699 z "},"ǃ":{"ha":386,"x_min":125,"x_max":260,"o":"m 243 269 l 143 269 l 127 956 l 260 956 l 243 269 m 125 0 l 125 136 l 257 136 l 257 0 l 125 0 z "},"Ǆ":{"ha":1851,"x_min":114,"x_max":1808,"o":"m 937 488 q 879 229 937 340 q 715 59 821 118 q 471 0 610 0 l 114 0 l 114 956 l 430 956 q 805 834 673 956 q 937 488 937 712 m 806 488 q 709 759 806 665 q 427 852 612 852 l 243 852 l 243 104 l 456 104 q 641 150 562 104 q 764 283 721 196 q 806 488 806 370 m 1808 0 l 1047 0 l 1047 97 l 1629 850 l 1097 850 l 1097 956 l 1776 956 l 1776 861 l 1194 106 l 1808 106 l 1808 0 m 1503 1056 l 1365 1056 l 1206 1239 l 1206 1253 l 1277 1253 l 1434 1138 l 1436 1138 l 1584 1253 l 1655 1253 l 1655 1239 l 1503 1056 z "},"ǅ":{"ha":1697,"x_min":114,"x_max":1628,"o":"m 937 488 q 879 229 937 340 q 715 59 821 118 q 471 0 610 0 l 114 0 l 114 956 l 430 956 q 805 834 673 956 q 937 488 937 712 m 806 488 q 709 759 806 665 q 427 852 612 852 l 243 852 l 243 104 l 456 104 q 641 150 562 104 q 764 283 721 196 q 806 488 806 370 m 1059 0 l 1059 93 l 1470 640 l 1082 640 l 1082 734 l 1614 734 l 1614 641 l 1203 94 l 1628 94 l 1628 0 l 1059 0 m 1388 814 l 1249 814 l 1090 998 l 1090 1011 l 1161 1011 l 1318 897 l 1320 897 l 1468 1011 l 1539 1011 l 1539 998 l 1388 814 z "},"ǆ":{"ha":1457,"x_min":58,"x_max":1388,"o":"m 557 118 q 467 17 523 47 q 328 -14 411 -14 q 124 80 189 -14 q 58 363 58 174 q 328 747 58 747 q 467 717 412 747 q 557 620 523 686 l 558 620 l 557 702 l 557 1006 l 679 1006 l 679 151 q 683 0 679 37 l 566 0 q 562 50 564 11 q 559 118 559 90 l 557 118 m 186 368 q 227 147 186 214 q 359 81 268 81 q 510 153 463 81 q 557 376 557 224 q 510 589 557 522 q 361 657 463 657 q 228 589 269 657 q 186 368 186 521 m 819 0 l 819 93 l 1229 640 l 842 640 l 842 734 l 1373 734 l 1373 641 l 962 94 l 1388 94 l 1388 0 l 819 0 m 1147 814 l 1008 814 l 850 998 l 850 1011 l 920 1011 l 1078 897 l 1079 897 l 1227 1011 l 1299 1011 l 1299 998 l 1147 814 z "},"Ǉ":{"ha":1475,"x_min":114,"x_max":1372,"o":"m 114 0 l 114 956 l 243 956 l 243 106 l 726 106 l 726 0 l 114 0 m 1090 -14 q 802 237 848 -14 l 929 258 q 984 136 941 180 q 1091 92 1027 92 q 1202 140 1162 92 q 1243 282 1243 189 l 1243 850 l 1059 850 l 1059 956 l 1372 956 l 1372 285 q 1297 66 1372 146 q 1090 -14 1221 -14 z "},"ǈ":{"ha":1157,"x_min":114,"x_max":1063,"o":"m 114 0 l 114 956 l 243 956 l 243 106 l 726 106 l 726 0 l 114 0 m 941 890 l 941 1006 l 1063 1006 l 1063 890 l 941 890 m 1063 -91 q 1023 -241 1063 -195 q 901 -288 982 -288 q 814 -282 848 -288 l 814 -188 l 857 -192 q 922 -168 903 -192 q 941 -73 941 -143 l 941 734 l 1063 734 l 1063 -91 z "},"ǉ":{"ha":627,"x_min":94,"x_max":533,"o":"m 94 0 l 94 1006 l 216 1006 l 216 0 l 94 0 m 411 890 l 411 1006 l 533 1006 l 533 890 l 411 890 m 533 -91 q 492 -241 533 -195 q 370 -288 452 -288 q 284 -282 318 -288 l 284 -188 l 326 -192 q 392 -168 373 -192 q 411 -73 411 -143 l 411 734 l 533 734 l 533 -91 z "},"Ǌ":{"ha":1697,"x_min":114,"x_max":1594,"o":"m 734 0 l 222 814 l 226 748 l 229 635 l 229 0 l 114 0 l 114 956 l 264 956 l 781 136 q 773 329 773 269 l 773 956 l 890 956 l 890 0 l 734 0 m 1313 -14 q 1025 237 1070 -14 l 1152 258 q 1206 136 1164 180 q 1314 92 1249 92 q 1425 140 1384 92 q 1466 282 1466 189 l 1466 850 l 1282 850 l 1282 956 l 1594 956 l 1594 285 q 1519 66 1594 146 q 1313 -14 1444 -14 z "},"ǋ":{"ha":1312,"x_min":114,"x_max":1218,"o":"m 734 0 l 222 814 l 226 748 l 229 635 l 229 0 l 114 0 l 114 956 l 264 956 l 781 136 q 773 329 773 269 l 773 956 l 890 956 l 890 0 l 734 0 m 1096 890 l 1096 1006 l 1218 1006 l 1218 890 l 1096 890 m 1218 -91 q 1177 -241 1218 -195 q 1055 -288 1137 -288 q 969 -282 1003 -288 l 969 -188 l 1011 -192 q 1077 -168 1058 -192 q 1096 -73 1096 -143 l 1096 734 l 1218 734 l 1218 -91 z "},"ǌ":{"ha":1071,"x_min":92,"x_max":977,"o":"m 559 0 l 559 465 q 545 578 559 538 q 500 635 531 618 q 408 653 469 653 q 269 593 320 653 q 218 425 218 532 l 218 0 l 96 0 l 96 577 q 92 734 96 705 l 208 734 q 209 715 208 730 q 211 681 210 701 q 213 608 212 662 l 215 608 q 312 716 257 684 q 450 747 368 747 q 626 687 570 747 q 682 489 682 627 l 682 0 l 559 0 m 855 890 l 855 1006 l 977 1006 l 977 890 l 855 890 m 977 -91 q 937 -241 977 -195 q 814 -288 896 -288 q 728 -282 762 -288 l 728 -188 l 770 -192 q 836 -168 817 -192 q 855 -73 855 -143 l 855 734 l 977 734 l 977 -91 z "},"Ǎ":{"ha":926,"x_min":3,"x_max":924,"o":"m 791 0 l 682 279 l 247 279 l 137 0 l 3 0 l 393 956 l 540 956 l 924 0 l 791 0 m 465 858 l 458 839 q 408 694 441 783 l 286 380 l 644 380 l 521 696 q 483 802 502 743 l 465 858 m 538 1038 l 399 1038 l 241 1200 l 241 1214 l 311 1214 l 469 1120 l 470 1120 l 618 1214 l 690 1214 l 690 1200 l 538 1038 z "},"ǎ":{"ha":772,"x_min":59,"x_max":772,"o":"m 281 -14 q 115 45 170 -14 q 59 205 59 103 q 134 380 59 319 q 376 445 209 441 l 541 448 l 541 488 q 503 616 541 577 q 383 654 465 654 q 264 627 301 654 q 219 538 227 599 l 92 549 q 386 747 123 747 q 594 684 524 747 q 664 500 664 621 l 664 184 q 678 103 664 130 q 732 75 692 75 q 772 80 750 75 l 772 4 q 678 -7 726 -7 q 579 29 610 -7 q 545 140 549 64 l 541 140 q 432 21 494 56 q 281 -14 370 -14 m 309 78 q 428 109 376 78 q 510 192 480 139 q 541 302 541 245 l 541 362 l 407 359 q 276 342 321 358 q 208 292 232 326 q 184 203 184 258 q 217 111 184 143 q 309 78 249 78 m 463 814 l 325 814 l 166 998 l 166 1011 l 237 1011 l 394 897 l 395 897 l 544 1011 l 615 1011 l 615 998 l 463 814 z "},"Ǐ":{"ha":386,"x_min":-28,"x_max":420,"o":"m 128 0 l 128 956 l 258 956 l 258 0 l 128 0 m 269 1038 l 130 1038 l -28 1200 l -28 1214 l 42 1214 l 199 1120 l 201 1120 l 349 1214 l 420 1214 l 420 1200 l 269 1038 z "},"ǐ":{"ha":309,"x_min":-81,"x_max":368,"o":"m 92 0 l 92 720 l 214 720 l 214 0 l 92 0 m 216 814 l 78 814 l -81 998 l -81 1011 l -10 1011 l 147 897 l 149 897 l 297 1011 l 368 1011 l 368 998 l 216 814 z "},"Ǒ":{"ha":1080,"x_min":66,"x_max":1014,"o":"m 1014 482 q 957 220 1014 332 q 792 47 899 107 q 539 -14 685 -14 q 285 46 392 -14 q 122 219 178 106 q 66 482 66 332 q 191 841 66 711 q 541 970 317 970 q 793 912 686 970 q 957 743 901 854 q 1014 482 1014 633 m 882 482 q 792 762 882 661 q 541 864 703 864 q 287 764 376 864 q 197 482 197 663 q 288 197 197 302 q 539 92 378 92 q 793 194 705 92 q 882 482 882 296 m 607 1038 l 469 1038 l 310 1200 l 310 1214 l 380 1214 l 538 1120 l 539 1120 l 688 1214 l 759 1214 l 759 1200 l 607 1038 z "},"ǒ":{"ha":772,"x_min":58,"x_max":714,"o":"m 714 368 q 629 81 714 175 q 383 -14 545 -14 q 140 84 222 -14 q 58 368 58 182 q 387 747 58 747 q 635 655 555 747 q 714 368 714 562 m 586 368 q 541 588 586 519 q 389 657 496 657 q 234 587 282 657 q 186 368 186 517 q 234 150 186 222 q 382 77 281 77 q 539 147 492 77 q 586 368 586 218 m 463 814 l 324 814 l 165 998 l 165 1011 l 236 1011 l 393 897 l 395 897 l 543 1011 l 614 1011 l 614 998 l 463 814 z "},"Ǔ":{"ha":1003,"x_min":107,"x_max":896,"o":"m 496 -14 q 291 29 378 -14 q 155 153 203 72 q 107 347 107 235 l 107 956 l 237 956 l 237 358 q 303 159 237 227 q 495 92 370 92 q 695 162 624 92 q 767 367 767 232 l 767 956 l 896 956 l 896 359 q 847 159 896 243 q 708 31 798 75 q 496 -14 618 -14 m 570 1038 l 431 1038 l 273 1200 l 273 1214 l 343 1214 l 500 1120 l 502 1120 l 650 1214 l 722 1214 l 722 1200 l 570 1038 z "},"ǔ":{"ha":772,"x_min":90,"x_max":680,"o":"m 213 734 l 213 269 q 227 156 213 196 q 273 98 241 116 q 364 81 304 81 q 503 141 452 81 q 554 309 554 201 l 554 734 l 676 734 l 676 157 q 680 0 676 28 l 565 0 q 564 18 564 3 q 562 53 563 33 q 559 125 561 72 l 557 125 q 460 18 515 50 q 323 -14 405 -14 q 146 46 202 -14 q 90 245 90 106 l 90 734 l 213 734 m 448 814 l 310 814 l 151 998 l 151 1011 l 222 1011 l 379 897 l 380 897 l 529 1011 l 600 1011 l 600 998 l 448 814 z "},"Ǖ":{"ha":1003,"x_min":107,"x_max":896,"o":"m 496 -14 q 291 29 378 -14 q 155 153 203 72 q 107 347 107 235 l 107 956 l 237 956 l 237 358 q 303 159 237 227 q 495 92 370 92 q 695 162 624 92 q 767 367 767 232 l 767 956 l 896 956 l 896 359 q 847 159 896 243 q 708 31 798 75 q 496 -14 618 -14 m 601 989 l 601 1114 l 711 1114 l 711 989 l 601 989 m 307 989 l 307 1114 l 417 1114 l 417 989 l 307 989 m 695 1158 l 323 1158 l 323 1244 l 695 1244 l 695 1158 z "},"ǖ":{"ha":772,"x_min":90,"x_max":680,"o":"m 213 734 l 213 269 q 227 156 213 196 q 273 98 241 116 q 364 81 304 81 q 503 141 452 81 q 554 309 554 201 l 554 734 l 676 734 l 676 157 q 680 0 676 28 l 565 0 q 564 18 564 3 q 562 53 563 33 q 559 125 561 72 l 557 125 q 460 18 515 50 q 323 -14 405 -14 q 146 46 202 -14 q 90 245 90 106 l 90 734 l 213 734 m 464 827 l 464 951 l 574 951 l 574 827 l 464 827 m 197 827 l 197 951 l 309 951 l 309 827 l 197 827 m 573 1028 l 201 1028 l 201 1114 l 573 1114 l 573 1028 z "},"Ǘ":{"ha":1003,"x_min":107,"x_max":896,"o":"m 496 -14 q 291 29 378 -14 q 155 153 203 72 q 107 347 107 235 l 107 956 l 237 956 l 237 358 q 303 159 237 227 q 495 92 370 92 q 695 162 624 92 q 767 367 767 232 l 767 956 l 896 956 l 896 359 q 847 159 896 243 q 708 31 798 75 q 496 -14 618 -14 m 551 1244 l 704 1244 l 704 1236 l 527 1120 l 439 1120 l 439 1127 l 551 1244 m 601 982 l 601 1107 l 711 1107 l 711 982 l 601 982 m 307 982 l 307 1107 l 417 1107 l 417 982 l 307 982 z "},"ǘ":{"ha":772,"x_min":90,"x_max":680,"o":"m 213 734 l 213 269 q 227 156 213 196 q 273 98 241 116 q 364 81 304 81 q 503 141 452 81 q 554 309 554 201 l 554 734 l 676 734 l 676 157 q 680 0 676 28 l 565 0 q 564 18 564 3 q 562 53 563 33 q 559 125 561 72 l 557 125 q 460 18 515 50 q 323 -14 405 -14 q 146 46 202 -14 q 90 245 90 106 l 90 734 l 213 734 m 464 827 l 464 951 l 574 951 l 574 827 l 464 827 m 197 827 l 197 951 l 309 951 l 309 827 l 197 827 m 336 1004 l 336 1018 l 484 1213 l 624 1213 l 624 1193 l 400 1004 l 336 1004 z "},"Ǚ":{"ha":1003,"x_min":107,"x_max":896,"o":"m 496 -14 q 291 29 378 -14 q 155 153 203 72 q 107 347 107 235 l 107 956 l 237 956 l 237 358 q 303 159 237 227 q 495 92 370 92 q 695 162 624 92 q 767 367 767 232 l 767 956 l 896 956 l 896 359 q 847 159 896 243 q 708 31 798 75 q 496 -14 618 -14 m 612 1244 l 717 1244 l 717 1238 l 576 1120 l 444 1120 l 302 1236 l 302 1244 l 407 1244 l 509 1179 l 612 1244 m 601 982 l 601 1107 l 711 1107 l 711 982 l 601 982 m 307 982 l 307 1107 l 417 1107 l 417 982 l 307 982 z "},"ǚ":{"ha":772,"x_min":90,"x_max":680,"o":"m 213 734 l 213 269 q 227 156 213 196 q 273 98 241 116 q 364 81 304 81 q 503 141 452 81 q 554 309 554 201 l 554 734 l 676 734 l 676 157 q 680 0 676 28 l 565 0 q 564 18 564 3 q 562 53 563 33 q 559 125 561 72 l 557 125 q 460 18 515 50 q 323 -14 405 -14 q 146 46 202 -14 q 90 245 90 106 l 90 734 l 213 734 m 464 827 l 464 951 l 574 951 l 574 827 l 464 827 m 197 827 l 197 951 l 309 951 l 309 827 l 197 827 m 455 1004 l 317 1004 l 158 1187 l 158 1201 l 229 1201 l 386 1086 l 387 1086 l 536 1201 l 607 1201 l 607 1187 l 455 1004 z "},"Ǜ":{"ha":1003,"x_min":107,"x_max":896,"o":"m 496 -14 q 291 29 378 -14 q 155 153 203 72 q 107 347 107 235 l 107 956 l 237 956 l 237 358 q 303 159 237 227 q 495 92 370 92 q 695 162 624 92 q 767 367 767 232 l 767 956 l 896 956 l 896 359 q 847 159 896 243 q 708 31 798 75 q 496 -14 618 -14 m 579 1127 l 579 1120 l 491 1120 l 314 1236 l 314 1244 l 467 1244 l 579 1127 m 307 982 l 307 1107 l 417 1107 l 417 982 l 307 982 m 601 982 l 601 1107 l 711 1107 l 711 982 l 601 982 z "},"ǜ":{"ha":772,"x_min":90,"x_max":680,"o":"m 213 734 l 213 269 q 227 156 213 196 q 273 98 241 116 q 364 81 304 81 q 503 141 452 81 q 554 309 554 201 l 554 734 l 676 734 l 676 157 q 680 0 676 28 l 565 0 q 564 18 564 3 q 562 53 563 33 q 559 125 561 72 l 557 125 q 460 18 515 50 q 323 -14 405 -14 q 146 46 202 -14 q 90 245 90 106 l 90 734 l 213 734 m 464 827 l 464 951 l 574 951 l 574 827 l 464 827 m 197 827 l 197 951 l 309 951 l 309 827 l 197 827 m 372 1004 l 148 1193 l 148 1213 l 288 1213 l 435 1018 l 435 1004 l 372 1004 z "},"ǝ":{"ha":772,"x_min":58,"x_max":710,"o":"m 582 393 q 530 587 582 519 q 377 656 477 656 q 250 624 298 656 q 185 543 202 592 l 78 574 q 377 747 144 747 q 625 650 540 747 q 710 362 710 553 q 625 83 710 180 q 382 -14 540 -14 q 58 376 58 -14 l 58 393 l 582 393 m 184 299 q 243 130 195 183 q 384 77 292 77 q 525 136 473 77 q 581 299 576 195 l 184 299 z "},"Ǟ":{"ha":926,"x_min":3,"x_max":924,"o":"m 791 0 l 682 279 l 247 279 l 137 0 l 3 0 l 393 956 l 540 956 l 924 0 l 791 0 m 465 858 l 458 839 q 408 694 441 783 l 286 380 l 644 380 l 521 696 q 483 802 502 743 l 465 858 m 559 989 l 559 1114 l 669 1114 l 669 989 l 559 989 m 264 989 l 264 1114 l 375 1114 l 375 989 l 264 989 m 653 1158 l 281 1158 l 281 1244 l 653 1244 l 653 1158 z "},"ǟ":{"ha":772,"x_min":59,"x_max":772,"o":"m 281 -14 q 115 45 170 -14 q 59 205 59 103 q 134 380 59 319 q 376 445 209 441 l 541 448 l 541 488 q 503 616 541 577 q 383 654 465 654 q 264 627 301 654 q 219 538 227 599 l 92 549 q 386 747 123 747 q 594 684 524 747 q 664 500 664 621 l 664 184 q 678 103 664 130 q 732 75 692 75 q 772 80 750 75 l 772 4 q 678 -7 726 -7 q 579 29 610 -7 q 545 140 549 64 l 541 140 q 432 21 494 56 q 281 -14 370 -14 m 309 78 q 428 109 376 78 q 510 192 480 139 q 541 302 541 245 l 541 362 l 407 359 q 276 342 321 358 q 208 292 232 326 q 184 203 184 258 q 217 111 184 143 q 309 78 249 78 m 462 827 l 462 951 l 572 951 l 572 827 l 462 827 m 195 827 l 195 951 l 307 951 l 307 827 l 195 827 m 570 1028 l 197 1028 l 197 1114 l 570 1114 l 570 1028 z "},"Ǡ":{"ha":926,"x_min":3,"x_max":924,"o":"m 791 0 l 682 279 l 247 279 l 137 0 l 3 0 l 393 956 l 540 956 l 924 0 l 791 0 m 465 858 l 458 839 q 408 694 441 783 l 286 380 l 644 380 l 521 696 q 483 802 502 743 l 465 858 m 408 996 l 408 1120 l 519 1120 l 519 996 l 408 996 m 654 1158 l 281 1158 l 281 1244 l 654 1244 l 654 1158 z "},"ǡ":{"ha":772,"x_min":59,"x_max":772,"o":"m 281 -14 q 115 45 170 -14 q 59 205 59 103 q 134 380 59 319 q 376 445 209 441 l 541 448 l 541 488 q 503 616 541 577 q 383 654 465 654 q 264 627 301 654 q 219 538 227 599 l 92 549 q 386 747 123 747 q 594 684 524 747 q 664 500 664 621 l 664 184 q 678 103 664 130 q 732 75 692 75 q 772 80 750 75 l 772 4 q 678 -7 726 -7 q 579 29 610 -7 q 545 140 549 64 l 541 140 q 432 21 494 56 q 281 -14 370 -14 m 309 78 q 428 109 376 78 q 510 192 480 139 q 541 302 541 245 l 541 362 l 407 359 q 276 342 321 358 q 208 292 232 326 q 184 203 184 258 q 217 111 184 143 q 309 78 249 78 m 311 836 l 311 952 l 433 952 l 433 836 l 311 836 m 556 1028 l 184 1028 l 184 1114 l 556 1114 l 556 1028 z "},"Ǣ":{"ha":1389,"x_min":16,"x_max":1329,"o":"m 657 0 l 657 279 l 286 279 l 151 0 l 16 0 l 481 956 l 1301 956 l 1301 850 l 787 850 l 787 543 l 1261 543 l 1261 439 l 787 439 l 787 106 l 1329 106 l 1329 0 l 657 0 m 657 856 l 555 856 l 536 813 l 333 380 l 657 380 l 657 856 m 1078 1061 l 706 1061 l 706 1147 l 1078 1147 l 1078 1061 z "},"ǣ":{"ha":1235,"x_min":45,"x_max":1173,"o":"m 656 341 l 656 330 q 709 142 658 207 q 854 78 760 78 q 982 110 934 78 q 1046 191 1029 142 l 1154 160 q 854 -14 1088 -14 q 568 161 637 -14 q 443 26 514 66 q 273 -14 372 -14 q 102 45 159 -14 q 45 205 45 103 q 125 382 45 323 q 370 445 206 442 l 533 448 l 533 488 q 495 617 533 579 q 376 654 458 654 q 252 627 290 654 q 205 538 214 600 l 77 549 q 378 747 109 747 q 615 653 548 747 q 850 747 695 747 q 1173 357 1173 747 l 1173 341 l 656 341 m 533 362 l 401 359 q 263 339 311 357 q 193 287 215 321 q 170 203 170 253 q 204 111 170 144 q 301 78 238 78 q 422 108 370 78 q 504 191 474 138 q 533 302 533 243 l 533 362 m 1047 435 q 988 604 1037 551 q 848 657 939 657 q 712 599 762 657 q 658 435 662 541 l 1047 435 m 814 838 l 441 838 l 441 924 l 814 924 l 814 838 z "},"Ǥ":{"ha":1080,"x_min":70,"x_max":1063,"o":"m 572 297 l 857 297 l 857 370 l 572 370 l 572 478 l 977 478 l 977 297 l 1063 297 l 1063 209 l 977 209 l 977 149 q 790 29 901 71 q 551 -14 680 -14 q 293 46 401 -14 q 127 218 184 106 q 70 482 70 330 q 195 842 70 715 q 545 970 319 970 q 803 916 704 970 q 956 745 902 863 l 832 708 q 720 827 791 789 q 542 864 648 864 q 289 764 376 864 q 201 482 201 664 q 294 196 201 301 q 551 92 387 92 q 726 120 645 92 q 857 197 807 149 l 857 209 l 572 209 l 572 297 z "},"ǥ":{"ha":772,"x_min":58,"x_max":765,"o":"m 372 -288 q 180 -241 252 -288 q 89 -107 109 -194 l 212 -90 q 266 -168 224 -140 q 375 -195 307 -195 q 487 -165 446 -195 q 544 -73 528 -136 l 274 -73 l 274 15 l 556 15 l 557 51 l 557 197 l 556 197 q 461 91 522 127 q 320 56 401 56 q 122 137 186 56 q 58 397 58 219 q 127 661 58 576 q 334 745 196 745 q 469 710 412 745 q 557 608 526 674 l 559 608 q 562 679 559 629 q 567 734 564 729 l 683 734 q 679 582 679 697 l 679 15 l 765 15 l 765 -73 l 670 -73 q 576 -234 649 -180 q 372 -288 503 -288 m 557 397 q 533 535 557 477 q 465 624 509 593 q 363 654 420 654 q 227 593 270 654 q 184 397 184 532 q 225 204 184 262 q 361 146 265 146 q 504 213 450 146 q 557 397 557 280 z "},"Ǧ":{"ha":1080,"x_min":70,"x_max":977,"o":"m 70 482 q 195 842 70 715 q 545 970 319 970 q 803 916 704 970 q 956 745 902 863 l 832 708 q 720 827 791 789 q 542 864 648 864 q 289 764 376 864 q 201 482 201 664 q 294 196 201 301 q 551 92 387 92 q 726 120 645 92 q 857 197 807 149 l 857 370 l 572 370 l 572 478 l 977 478 l 977 149 q 790 29 901 71 q 551 -14 680 -14 q 293 46 401 -14 q 127 218 184 106 q 70 482 70 330 m 616 1038 l 478 1038 l 319 1200 l 319 1214 l 390 1214 l 547 1120 l 549 1120 l 697 1214 l 768 1214 l 768 1200 l 616 1038 z "},"ǧ":{"ha":772,"x_min":58,"x_max":683,"o":"m 372 -288 q 180 -241 252 -288 q 89 -107 109 -194 l 212 -90 q 266 -168 224 -140 q 375 -195 307 -195 q 557 18 557 -195 l 557 136 l 556 136 q 461 30 522 66 q 320 -5 401 -5 q 122 84 185 -5 q 58 366 58 174 q 126 653 58 560 q 334 745 195 745 q 469 710 412 745 q 557 608 526 674 l 559 608 q 562 679 559 629 q 567 734 564 729 l 683 734 q 679 582 679 697 l 679 21 q 372 -288 679 -288 m 557 367 q 533 521 557 456 q 464 620 509 586 q 363 654 420 654 q 227 587 270 654 q 184 367 184 519 q 224 151 184 216 q 361 85 264 85 q 464 119 419 85 q 533 216 509 153 q 557 367 557 279 m 425 814 l 286 814 l 127 998 l 127 1011 l 198 1011 l 355 897 l 357 897 l 505 1011 l 576 1011 l 576 998 l 425 814 z "},"Ǩ":{"ha":926,"x_min":114,"x_max":911,"o":"m 750 0 l 368 461 l 243 366 l 243 0 l 114 0 l 114 956 l 243 956 l 243 477 l 704 956 l 857 956 l 450 541 l 911 0 l 750 0 m 514 1038 l 376 1038 l 217 1200 l 217 1214 l 288 1214 l 445 1120 l 446 1120 l 595 1214 l 666 1214 l 666 1200 l 514 1038 z "},"ǩ":{"ha":694,"x_min":94,"x_max":696,"o":"m 553 0 l 305 335 l 216 261 l 216 0 l 94 0 l 94 1006 l 216 1006 l 216 378 l 538 734 l 681 734 l 383 418 l 696 0 l 553 0 m 433 1051 l 294 1051 l 136 1213 l 136 1227 l 206 1227 l 363 1133 l 365 1133 l 513 1227 l 585 1227 l 585 1213 l 433 1051 z "},"Ǫ":{"ha":1080,"x_min":66,"x_max":1014,"o":"m 1014 482 q 957 220 1014 332 q 792 47 899 107 q 539 -14 685 -14 q 285 46 392 -14 q 122 219 178 106 q 66 482 66 332 q 191 841 66 711 q 541 970 317 970 q 793 912 686 970 q 957 743 901 854 q 1014 482 1014 633 m 882 482 q 792 762 882 661 q 541 864 703 864 q 287 764 376 864 q 197 482 197 663 q 288 197 197 302 q 539 92 378 92 q 793 194 705 92 q 882 482 882 296 m 712 -271 q 618 -290 669 -290 q 511 -255 547 -290 q 475 -163 475 -220 q 504 -71 475 -115 q 580 0 534 -26 l 670 0 q 635 -25 653 -9 q 603 -60 618 -40 q 579 -104 589 -80 q 570 -154 570 -127 q 587 -199 570 -182 q 634 -215 604 -215 q 712 -199 671 -215 l 712 -271 z "},"ǫ":{"ha":772,"x_min":58,"x_max":714,"o":"m 714 368 q 629 81 714 175 q 383 -14 545 -14 q 140 84 222 -14 q 58 368 58 182 q 387 747 58 747 q 635 655 555 747 q 714 368 714 562 m 586 368 q 541 588 586 519 q 389 657 496 657 q 234 587 282 657 q 186 368 186 517 q 234 150 186 222 q 382 77 281 77 q 539 147 492 77 q 586 368 586 218 m 543 -271 q 448 -290 500 -290 q 341 -255 377 -290 q 305 -163 305 -220 q 335 -71 305 -115 q 410 0 364 -26 l 500 0 q 466 -25 484 -9 q 434 -60 448 -40 q 410 -104 419 -80 q 401 -154 401 -127 q 417 -199 401 -182 q 465 -215 434 -215 q 543 -199 501 -215 l 543 -271 z "},"Ǭ":{"ha":1080,"x_min":66,"x_max":1014,"o":"m 1014 482 q 957 220 1014 332 q 792 47 899 107 q 539 -14 685 -14 q 285 46 392 -14 q 122 219 178 106 q 66 482 66 332 q 191 841 66 711 q 541 970 317 970 q 793 912 686 970 q 957 743 901 854 q 1014 482 1014 633 m 882 482 q 792 762 882 661 q 541 864 703 864 q 287 764 376 864 q 197 482 197 663 q 288 197 197 302 q 539 92 378 92 q 793 194 705 92 q 882 482 882 296 m 712 -271 q 618 -290 669 -290 q 511 -255 547 -290 q 475 -163 475 -220 q 504 -71 475 -115 q 580 0 534 -26 l 670 0 q 635 -25 653 -9 q 603 -60 618 -40 q 579 -104 589 -80 q 570 -154 570 -127 q 587 -199 570 -182 q 634 -215 604 -215 q 712 -199 671 -215 l 712 -271 m 722 1061 l 350 1061 l 350 1147 l 722 1147 l 722 1061 z "},"ǭ":{"ha":772,"x_min":58,"x_max":714,"o":"m 714 368 q 629 81 714 175 q 383 -14 545 -14 q 140 84 222 -14 q 58 368 58 182 q 387 747 58 747 q 635 655 555 747 q 714 368 714 562 m 586 368 q 541 588 586 519 q 389 657 496 657 q 234 587 282 657 q 186 368 186 517 q 234 150 186 222 q 382 77 281 77 q 539 147 492 77 q 586 368 586 218 m 543 -271 q 448 -290 500 -290 q 341 -255 377 -290 q 305 -163 305 -220 q 335 -71 305 -115 q 410 0 364 -26 l 500 0 q 466 -25 484 -9 q 434 -60 448 -40 q 410 -104 419 -80 q 401 -154 401 -127 q 417 -199 401 -182 q 465 -215 434 -215 q 543 -199 501 -215 l 543 -271 m 572 838 l 199 838 l 199 924 l 572 924 l 572 838 z "},"Ǯ":{"ha":848,"x_min":31,"x_max":801,"o":"m 283 515 l 623 850 l 77 850 l 77 956 l 767 956 l 767 846 l 425 514 q 704 400 608 502 q 801 116 801 299 q 752 -95 801 -2 q 615 -238 704 -187 q 416 -289 526 -289 q 181 -233 275 -289 q 31 -53 87 -176 l 140 -4 q 411 -188 220 -188 q 604 -108 534 -188 q 673 116 673 -28 q 586 340 673 262 q 332 419 498 419 l 283 419 l 283 515 m 493 1038 l 355 1038 l 196 1200 l 196 1214 l 267 1214 l 424 1120 l 425 1120 l 574 1214 l 645 1214 l 645 1200 l 493 1038 z "},"ǯ":{"ha":757,"x_min":46,"x_max":702,"o":"m 79 734 l 677 734 l 677 613 l 418 369 q 626 267 551 352 q 702 47 702 182 q 662 -125 702 -47 q 549 -245 622 -202 q 380 -288 475 -288 q 148 -224 234 -288 q 46 -33 62 -159 l 167 -24 q 232 -155 180 -115 q 376 -195 284 -195 q 524 -128 469 -195 q 579 51 579 -60 q 517 218 579 157 q 345 279 455 279 l 289 279 l 289 376 l 555 638 l 79 638 l 79 734 m 456 814 l 317 814 l 159 998 l 159 1011 l 229 1011 l 387 897 l 388 897 l 536 1011 l 608 1011 l 608 998 l 456 814 z "},"ǰ":{"ha":309,"x_min":-75,"x_max":374,"o":"m 215 -91 q 174 -241 215 -195 q 52 -288 134 -288 q -34 -282 0 -288 l -34 -188 l 8 -192 q 74 -168 55 -192 q 93 -73 93 -143 l 93 734 l 215 734 l 215 -91 m 222 814 l 84 814 l -75 998 l -75 1011 l -4 1011 l 153 897 l 155 897 l 303 1011 l 374 1011 l 374 998 l 222 814 z "},"Ǳ":{"ha":1851,"x_min":114,"x_max":1808,"o":"m 937 488 q 879 229 937 340 q 715 59 821 118 q 471 0 610 0 l 114 0 l 114 956 l 430 956 q 805 834 673 956 q 937 488 937 712 m 806 488 q 709 759 806 665 q 427 852 612 852 l 243 852 l 243 104 l 456 104 q 641 150 562 104 q 764 283 721 196 q 806 488 806 370 m 1808 0 l 1047 0 l 1047 97 l 1629 850 l 1097 850 l 1097 956 l 1776 956 l 1776 861 l 1194 106 l 1808 106 l 1808 0 z "},"ǲ":{"ha":1697,"x_min":114,"x_max":1628,"o":"m 937 488 q 879 229 937 340 q 715 59 821 118 q 471 0 610 0 l 114 0 l 114 956 l 430 956 q 805 834 673 956 q 937 488 937 712 m 806 488 q 709 759 806 665 q 427 852 612 852 l 243 852 l 243 104 l 456 104 q 641 150 562 104 q 764 283 721 196 q 806 488 806 370 m 1059 0 l 1059 93 l 1470 640 l 1082 640 l 1082 734 l 1614 734 l 1614 641 l 1203 94 l 1628 94 l 1628 0 l 1059 0 z "},"ǳ":{"ha":1457,"x_min":58,"x_max":1388,"o":"m 557 118 q 467 17 523 47 q 328 -14 411 -14 q 124 80 189 -14 q 58 363 58 174 q 328 747 58 747 q 467 717 412 747 q 557 620 523 686 l 558 620 l 557 702 l 557 1006 l 679 1006 l 679 151 q 683 0 679 37 l 566 0 q 562 50 564 11 q 559 118 559 90 l 557 118 m 186 368 q 227 147 186 214 q 359 81 268 81 q 510 153 463 81 q 557 376 557 224 q 510 589 557 522 q 361 657 463 657 q 228 589 269 657 q 186 368 186 521 m 819 0 l 819 93 l 1229 640 l 842 640 l 842 734 l 1373 734 l 1373 641 l 962 94 l 1388 94 l 1388 0 l 819 0 z "},"Ǵ":{"ha":1080,"x_min":70,"x_max":977,"o":"m 70 482 q 195 842 70 715 q 545 970 319 970 q 803 916 704 970 q 956 745 902 863 l 832 708 q 720 827 791 789 q 542 864 648 864 q 289 764 376 864 q 201 482 201 664 q 294 196 201 301 q 551 92 387 92 q 726 120 645 92 q 857 197 807 149 l 857 370 l 572 370 l 572 478 l 977 478 l 977 149 q 790 29 901 71 q 551 -14 680 -14 q 293 46 401 -14 q 127 218 184 106 q 70 482 70 330 m 444 1038 l 444 1051 l 591 1204 l 732 1204 l 732 1185 l 522 1038 l 444 1038 z "},"ǵ":{"ha":772,"x_min":58,"x_max":683,"o":"m 372 -288 q 180 -241 252 -288 q 89 -107 109 -194 l 212 -90 q 266 -168 224 -140 q 375 -195 307 -195 q 557 18 557 -195 l 557 136 l 556 136 q 461 30 522 66 q 320 -5 401 -5 q 122 84 185 -5 q 58 366 58 174 q 126 653 58 560 q 334 745 195 745 q 469 710 412 745 q 557 608 526 674 l 559 608 q 562 679 559 629 q 567 734 564 729 l 683 734 q 679 582 679 697 l 679 21 q 372 -288 679 -288 m 557 367 q 533 521 557 456 q 464 620 509 586 q 363 654 420 654 q 227 587 270 654 q 184 367 184 519 q 224 151 184 216 q 361 85 264 85 q 464 119 419 85 q 533 216 509 153 q 557 367 557 279 m 295 814 l 295 828 l 442 1023 l 583 1023 l 583 1003 l 359 814 l 295 814 z "},"Ƕ":{"ha":1436,"x_min":114,"x_max":1345,"o":"m 890 267 q 930 123 890 168 q 1057 79 970 79 q 1183 123 1143 79 q 1223 267 1223 167 l 1223 734 l 1345 734 l 1345 248 q 1269 57 1345 127 q 1056 -14 1192 -14 q 839 56 918 -14 q 760 245 760 125 l 760 443 l 243 443 l 243 0 l 114 0 l 114 956 l 243 956 l 243 551 l 760 551 l 760 956 l 890 956 l 890 267 z "},"Ƿ":{"ha":859,"x_min":114,"x_max":798,"o":"m 798 631 q 722 331 798 484 q 516 59 646 177 q 243 -109 387 -60 l 243 -288 l 114 -288 l 114 956 l 239 956 l 239 844 q 346 937 281 904 q 486 970 410 970 q 718 885 637 970 q 798 631 798 801 m 666 632 q 617 805 666 745 q 470 865 568 865 q 354 831 406 865 q 273 741 302 798 q 243 616 243 683 l 243 1 q 452 143 353 41 q 608 377 551 245 q 666 632 666 509 z "},"Ǹ":{"ha":1003,"x_min":114,"x_max":890,"o":"m 734 0 l 222 814 l 226 748 l 229 635 l 229 0 l 114 0 l 114 956 l 264 956 l 781 136 q 773 329 773 269 l 773 956 l 890 956 l 890 0 l 734 0 m 515 1038 l 304 1185 l 304 1204 l 445 1204 l 592 1051 l 592 1038 l 515 1038 z "},"ǹ":{"ha":772,"x_min":92,"x_max":682,"o":"m 559 0 l 559 465 q 545 578 559 538 q 500 635 531 618 q 408 653 469 653 q 269 593 320 653 q 218 425 218 532 l 218 0 l 96 0 l 96 577 q 92 734 96 705 l 208 734 q 209 715 208 730 q 211 681 210 701 q 213 608 212 662 l 215 608 q 312 716 257 684 q 450 747 368 747 q 626 687 570 747 q 682 489 682 627 l 682 0 l 559 0 m 416 814 l 192 1003 l 192 1023 l 332 1023 l 479 828 l 479 814 l 416 814 z "},"Ǻ":{"ha":926,"x_min":3,"x_max":924,"o":"m 628 944 q 608 874 628 907 q 557 822 588 841 l 924 0 l 791 0 l 682 252 l 247 252 l 137 0 l 3 0 l 374 820 q 320 872 341 839 q 300 944 300 906 q 348 1048 300 1005 q 464 1091 396 1091 q 580 1048 532 1091 q 628 944 628 1004 m 465 772 l 458 755 q 430 677 448 722 q 286 342 412 632 l 644 342 l 521 626 q 483 721 503 667 l 465 772 m 555 944 q 528 1002 555 978 q 464 1026 502 1026 q 399 1002 425 1026 q 372 944 372 978 q 397 887 372 912 q 458 860 421 862 l 464 860 q 529 885 503 860 q 555 944 555 911 m 387 1124 l 387 1135 l 534 1257 l 675 1257 l 675 1242 l 465 1124 l 387 1124 z "},"ǻ":{"ha":772,"x_min":59,"x_max":772,"o":"m 281 -14 q 115 45 170 -14 q 59 205 59 103 q 134 380 59 319 q 376 445 209 441 l 541 448 l 541 488 q 503 616 541 577 q 383 654 465 654 q 264 627 301 654 q 219 538 227 599 l 92 549 q 386 747 123 747 q 594 684 524 747 q 664 500 664 621 l 664 184 q 678 103 664 130 q 732 75 692 75 q 772 80 750 75 l 772 4 q 678 -7 726 -7 q 579 29 610 -7 q 545 140 549 64 l 541 140 q 432 21 494 56 q 281 -14 370 -14 m 309 78 q 428 109 376 78 q 510 192 480 139 q 541 302 541 245 l 541 362 l 407 359 q 276 342 321 358 q 208 292 232 326 q 184 203 184 258 q 217 111 184 143 q 309 78 249 78 m 550 840 q 502 724 550 772 q 386 676 454 676 q 270 724 318 676 q 222 840 222 772 q 270 956 222 909 q 386 1004 318 1004 q 502 956 453 1004 q 550 840 550 908 m 477 840 q 450 905 477 878 q 386 931 424 931 q 321 905 347 931 q 294 840 294 878 q 320 775 294 803 q 386 747 346 747 q 451 775 425 747 q 477 840 477 802 m 290 1049 l 290 1063 l 437 1257 l 577 1257 l 577 1238 l 353 1049 l 290 1049 z "},"Ǽ":{"ha":1389,"x_min":16,"x_max":1329,"o":"m 657 0 l 657 279 l 286 279 l 151 0 l 16 0 l 481 956 l 1301 956 l 1301 850 l 787 850 l 787 543 l 1261 543 l 1261 439 l 787 439 l 787 106 l 1329 106 l 1329 0 l 657 0 m 657 856 l 555 856 l 536 813 l 333 380 l 657 380 l 657 856 m 724 1038 l 724 1051 l 871 1204 l 1012 1204 l 1012 1185 l 802 1038 l 724 1038 z "},"ǽ":{"ha":1235,"x_min":45,"x_max":1173,"o":"m 656 341 l 656 330 q 709 142 658 207 q 854 78 760 78 q 982 110 934 78 q 1046 191 1029 142 l 1154 160 q 854 -14 1088 -14 q 568 161 637 -14 q 443 26 514 66 q 273 -14 372 -14 q 102 45 159 -14 q 45 205 45 103 q 125 382 45 323 q 370 445 206 442 l 533 448 l 533 488 q 495 617 533 579 q 376 654 458 654 q 252 627 290 654 q 205 538 214 600 l 77 549 q 378 747 109 747 q 615 653 548 747 q 850 747 695 747 q 1173 357 1173 747 l 1173 341 l 656 341 m 533 362 l 401 359 q 263 339 311 357 q 193 287 215 321 q 170 203 170 253 q 204 111 170 144 q 301 78 238 78 q 422 108 370 78 q 504 191 474 138 q 533 302 533 243 l 533 362 m 1047 435 q 988 604 1037 551 q 848 657 939 657 q 712 599 762 657 q 658 435 662 541 l 1047 435 m 515 814 l 515 828 l 662 1023 l 802 1023 l 802 1003 l 578 814 l 515 814 z "},"Ǿ":{"ha":1080,"x_min":48,"x_max":1034,"o":"m 1014 482 q 957 220 1014 332 q 792 47 899 107 q 539 -14 685 -14 q 258 62 372 -14 l 177 -36 l 48 -36 l 184 127 q 66 482 66 258 q 191 841 66 711 q 541 970 317 970 q 821 895 708 970 l 903 994 l 1034 994 l 897 830 q 1014 482 1014 701 m 882 482 q 815 732 882 634 l 334 153 q 539 92 417 92 q 793 194 705 92 q 882 482 882 296 m 197 482 q 266 226 197 327 l 745 804 q 541 864 661 864 q 287 764 376 864 q 197 482 197 663 m 447 1038 l 447 1051 l 594 1204 l 734 1204 l 734 1185 l 524 1038 l 447 1038 z "},"ǿ":{"ha":848,"x_min":30,"x_max":817,"o":"m 754 368 q 669 81 754 175 q 423 -14 585 -14 q 211 53 291 -14 l 143 -26 l 30 -26 l 155 119 q 98 368 98 213 q 427 747 98 747 q 642 686 564 747 l 703 757 l 817 757 l 699 621 q 754 368 754 530 m 626 368 q 610 517 626 455 l 283 136 q 422 77 329 77 q 579 147 532 77 q 626 368 626 218 m 227 368 q 243 222 227 279 l 570 602 q 429 657 524 657 q 274 587 322 657 q 227 368 227 517 m 343 814 l 343 828 l 490 1023 l 631 1023 l 631 1003 l 407 814 l 343 814 z "},"Ȁ":{"ha":926,"x_min":3,"x_max":924,"o":"m 791 0 l 682 279 l 247 279 l 137 0 l 3 0 l 393 956 l 540 956 l 924 0 l 791 0 m 465 858 l 458 839 q 408 694 441 783 l 286 380 l 644 380 l 521 696 q 483 802 502 743 l 465 858 m 612 1060 l 388 1249 l 388 1268 l 528 1268 l 675 1074 l 675 1060 l 612 1060 m 376 1060 l 153 1249 l 153 1268 l 293 1268 l 440 1074 l 440 1060 l 376 1060 z "},"ȁ":{"ha":772,"x_min":59,"x_max":772,"o":"m 281 -14 q 115 45 170 -14 q 59 205 59 103 q 134 380 59 319 q 376 445 209 441 l 541 448 l 541 488 q 503 616 541 577 q 383 654 465 654 q 264 627 301 654 q 219 538 227 599 l 92 549 q 386 747 123 747 q 594 684 524 747 q 664 500 664 621 l 664 184 q 678 103 664 130 q 732 75 692 75 q 772 80 750 75 l 772 4 q 678 -7 726 -7 q 579 29 610 -7 q 545 140 549 64 l 541 140 q 432 21 494 56 q 281 -14 370 -14 m 309 78 q 428 109 376 78 q 510 192 480 139 q 541 302 541 245 l 541 362 l 407 359 q 276 342 321 358 q 208 292 232 326 q 184 203 184 258 q 217 111 184 143 q 309 78 249 78 m 524 814 l 300 1003 l 300 1023 l 440 1023 l 587 828 l 587 814 l 524 814 m 288 814 l 64 1003 l 64 1023 l 205 1023 l 352 828 l 352 814 l 288 814 z "},"Ȃ":{"ha":926,"x_min":3,"x_max":924,"o":"m 791 0 l 682 279 l 247 279 l 137 0 l 3 0 l 393 956 l 540 956 l 924 0 l 791 0 m 465 858 l 458 839 q 408 694 441 783 l 286 380 l 644 380 l 521 696 q 483 802 502 743 l 465 858 m 466 1240 q 599 1193 547 1240 q 664 1063 652 1147 l 593 1063 q 549 1129 583 1105 q 466 1153 516 1153 q 381 1128 414 1153 q 339 1063 347 1103 l 268 1063 q 332 1192 278 1144 q 466 1240 385 1240 z "},"ȃ":{"ha":772,"x_min":59,"x_max":772,"o":"m 281 -14 q 115 45 170 -14 q 59 205 59 103 q 134 380 59 319 q 376 445 209 441 l 541 448 l 541 488 q 503 616 541 577 q 383 654 465 654 q 264 627 301 654 q 219 538 227 599 l 92 549 q 386 747 123 747 q 594 684 524 747 q 664 500 664 621 l 664 184 q 678 103 664 130 q 732 75 692 75 q 772 80 750 75 l 772 4 q 678 -7 726 -7 q 579 29 610 -7 q 545 140 549 64 l 541 140 q 432 21 494 56 q 281 -14 370 -14 m 309 78 q 428 109 376 78 q 510 192 480 139 q 541 302 541 245 l 541 362 l 407 359 q 276 342 321 358 q 208 292 232 326 q 184 203 184 258 q 217 111 184 143 q 309 78 249 78 m 389 994 q 523 948 470 994 q 587 818 575 901 l 516 818 q 473 884 506 860 q 389 907 439 907 q 304 883 338 907 q 262 818 271 858 l 191 818 q 255 946 201 899 q 389 994 309 994 z "},"Ȅ":{"ha":926,"x_min":114,"x_max":867,"o":"m 114 0 l 114 956 l 839 956 l 839 850 l 243 850 l 243 543 l 798 543 l 798 439 l 243 439 l 243 106 l 867 106 l 867 0 l 114 0 m 624 1060 l 400 1249 l 400 1268 l 541 1268 l 688 1074 l 688 1060 l 624 1060 m 389 1060 l 165 1249 l 165 1268 l 305 1268 l 452 1074 l 452 1060 l 389 1060 z "},"ȅ":{"ha":772,"x_min":59,"x_max":711,"o":"m 187 341 q 239 146 187 215 q 392 78 292 78 q 519 110 471 78 q 584 191 567 142 l 691 160 q 392 -14 625 -14 q 144 83 229 -14 q 59 372 59 180 q 144 650 59 553 q 387 747 229 747 q 711 357 711 747 l 711 341 l 187 341 m 585 435 q 526 604 574 551 q 385 657 477 657 q 244 598 296 657 q 189 435 193 538 l 585 435 m 537 814 l 313 1003 l 313 1023 l 454 1023 l 601 828 l 601 814 l 537 814 m 302 814 l 78 1003 l 78 1023 l 218 1023 l 366 828 l 366 814 l 302 814 z "},"Ȇ":{"ha":926,"x_min":114,"x_max":867,"o":"m 114 0 l 114 956 l 839 956 l 839 850 l 243 850 l 243 543 l 798 543 l 798 439 l 243 439 l 243 106 l 867 106 l 867 0 l 114 0 m 488 1240 q 622 1193 569 1240 q 686 1063 674 1147 l 615 1063 q 572 1129 605 1105 q 488 1153 538 1153 q 403 1128 437 1153 q 361 1063 370 1103 l 290 1063 q 354 1192 300 1144 q 488 1240 408 1240 z "},"ȇ":{"ha":772,"x_min":59,"x_max":711,"o":"m 187 341 q 239 146 187 215 q 392 78 292 78 q 519 110 471 78 q 584 191 567 142 l 691 160 q 392 -14 625 -14 q 144 83 229 -14 q 59 372 59 180 q 144 650 59 553 q 387 747 229 747 q 711 357 711 747 l 711 341 l 187 341 m 585 435 q 526 604 574 551 q 385 657 477 657 q 244 598 296 657 q 189 435 193 538 l 585 435 m 387 994 q 520 948 467 994 q 585 818 572 901 l 513 818 q 470 884 503 860 q 387 907 437 907 q 301 883 335 907 q 260 818 268 858 l 189 818 q 252 946 199 899 q 387 994 306 994 z "},"Ȉ":{"ha":386,"x_min":-102,"x_max":420,"o":"m 128 0 l 128 956 l 258 956 l 258 0 l 128 0 m 357 1060 l 133 1249 l 133 1268 l 273 1268 l 420 1074 l 420 1060 l 357 1060 m 121 1060 l -102 1249 l -102 1268 l 38 1268 l 185 1074 l 185 1060 l 121 1060 z "},"ȉ":{"ha":386,"x_min":-115,"x_max":408,"o":"m 132 0 l 132 734 l 254 734 l 254 0 l 132 0 m 345 814 l 121 1003 l 121 1023 l 261 1023 l 408 828 l 408 814 l 345 814 m 109 814 l -115 1003 l -115 1023 l 26 1023 l 173 828 l 173 814 l 109 814 z "},"Ȋ":{"ha":386,"x_min":5,"x_max":401,"o":"m 128 0 l 128 956 l 258 956 l 258 0 l 128 0 m 203 1240 q 337 1193 284 1240 q 401 1063 389 1147 l 330 1063 q 287 1129 320 1105 q 203 1153 254 1153 q 118 1128 152 1153 q 77 1063 85 1103 l 5 1063 q 69 1192 16 1144 q 203 1240 123 1240 z "},"ȋ":{"ha":386,"x_min":-4,"x_max":392,"o":"m 132 0 l 132 734 l 254 734 l 254 0 l 132 0 m 194 994 q 327 948 275 994 q 392 818 380 901 l 321 818 q 277 884 311 860 q 194 907 244 907 q 109 883 142 907 q 67 818 75 858 l -4 818 q 60 946 6 899 q 194 994 113 994 z "},"Ȍ":{"ha":1080,"x_min":66,"x_max":1014,"o":"m 1014 482 q 957 220 1014 332 q 792 47 899 107 q 539 -14 685 -14 q 285 46 392 -14 q 122 219 178 106 q 66 482 66 332 q 191 841 66 711 q 541 970 317 970 q 793 912 686 970 q 957 743 901 854 q 1014 482 1014 633 m 882 482 q 792 762 882 661 q 541 864 703 864 q 287 764 376 864 q 197 482 197 663 q 288 197 197 302 q 539 92 378 92 q 793 194 705 92 q 882 482 882 296 m 680 1060 l 456 1249 l 456 1268 l 596 1268 l 743 1074 l 743 1060 l 680 1060 m 444 1060 l 220 1249 l 220 1268 l 361 1268 l 508 1074 l 508 1060 l 444 1060 z "},"ȍ":{"ha":772,"x_min":58,"x_max":714,"o":"m 714 368 q 629 81 714 175 q 383 -14 545 -14 q 140 84 222 -14 q 58 368 58 182 q 387 747 58 747 q 635 655 555 747 q 714 368 714 562 m 586 368 q 541 588 586 519 q 389 657 496 657 q 234 587 282 657 q 186 368 186 517 q 234 150 186 222 q 382 77 281 77 q 539 147 492 77 q 586 368 586 218 m 537 814 l 313 1003 l 313 1023 l 454 1023 l 601 828 l 601 814 l 537 814 m 302 814 l 78 1003 l 78 1023 l 218 1023 l 366 828 l 366 814 l 302 814 z "},"Ȏ":{"ha":1080,"x_min":66,"x_max":1014,"o":"m 1014 482 q 957 220 1014 332 q 792 47 899 107 q 539 -14 685 -14 q 285 46 392 -14 q 122 219 178 106 q 66 482 66 332 q 191 841 66 711 q 541 970 317 970 q 793 912 686 970 q 957 743 901 854 q 1014 482 1014 633 m 882 482 q 792 762 882 661 q 541 864 703 864 q 287 764 376 864 q 197 482 197 663 q 288 197 197 302 q 539 92 378 92 q 793 194 705 92 q 882 482 882 296 m 543 1240 q 676 1193 623 1240 q 741 1063 728 1147 l 669 1063 q 626 1129 659 1105 q 543 1153 593 1153 q 457 1128 491 1153 q 416 1063 424 1103 l 345 1063 q 408 1192 355 1144 q 543 1240 462 1240 z "},"ȏ":{"ha":772,"x_min":58,"x_max":714,"o":"m 714 368 q 629 81 714 175 q 383 -14 545 -14 q 140 84 222 -14 q 58 368 58 182 q 387 747 58 747 q 635 655 555 747 q 714 368 714 562 m 586 368 q 541 588 586 519 q 389 657 496 657 q 234 587 282 657 q 186 368 186 517 q 234 150 186 222 q 382 77 281 77 q 539 147 492 77 q 586 368 586 218 m 393 994 q 527 948 474 994 q 591 818 579 901 l 520 818 q 477 884 510 860 q 393 907 444 907 q 308 883 342 907 q 267 818 275 858 l 195 818 q 259 946 205 899 q 393 994 313 994 z "},"Ȑ":{"ha":1003,"x_min":114,"x_max":939,"o":"m 789 0 l 541 397 l 243 397 l 243 0 l 114 0 l 114 956 l 564 956 q 813 883 725 956 q 901 682 901 811 q 839 503 901 576 q 667 412 777 431 l 939 0 l 789 0 m 770 681 q 714 808 770 764 q 551 852 657 852 l 243 852 l 243 499 l 556 499 q 714 547 659 499 q 770 681 770 595 m 618 1060 l 395 1249 l 395 1268 l 535 1268 l 682 1074 l 682 1060 l 618 1060 m 383 1060 l 159 1249 l 159 1268 l 300 1268 l 447 1074 l 447 1060 l 383 1060 z "},"ȑ":{"ha":463,"x_min":-44,"x_max":479,"o":"m 96 0 l 96 563 q 92 734 96 640 l 208 734 q 213 584 213 609 l 216 584 q 283 713 245 678 q 390 747 321 747 q 439 741 414 747 l 439 629 q 374 635 415 635 q 258 570 298 635 q 218 382 218 505 l 218 0 l 96 0 m 415 814 l 191 1003 l 191 1023 l 332 1023 l 479 828 l 479 814 l 415 814 m 180 814 l -44 1003 l -44 1023 l 96 1023 l 243 828 l 243 814 l 180 814 z "},"Ȓ":{"ha":1003,"x_min":114,"x_max":939,"o":"m 789 0 l 541 397 l 243 397 l 243 0 l 114 0 l 114 956 l 564 956 q 813 883 725 956 q 901 682 901 811 q 839 503 901 576 q 667 412 777 431 l 939 0 l 789 0 m 770 681 q 714 808 770 764 q 551 852 657 852 l 243 852 l 243 499 l 556 499 q 714 547 659 499 q 770 681 770 595 m 481 1240 q 615 1193 562 1240 q 680 1063 667 1147 l 608 1063 q 565 1129 598 1105 q 481 1153 532 1153 q 396 1128 430 1153 q 355 1063 363 1103 l 283 1063 q 347 1192 294 1144 q 481 1240 401 1240 z "},"ȓ":{"ha":463,"x_min":73,"x_max":469,"o":"m 96 0 l 96 563 q 92 734 96 640 l 208 734 q 213 584 213 609 l 216 584 q 283 713 245 678 q 390 747 321 747 q 439 741 414 747 l 439 629 q 374 635 415 635 q 258 570 298 635 q 218 382 218 505 l 218 0 l 96 0 m 271 994 q 405 948 352 994 q 469 818 457 901 l 398 818 q 355 884 388 860 q 271 907 321 907 q 186 883 220 907 q 144 818 153 858 l 73 818 q 137 946 83 899 q 271 994 191 994 z "},"Ȕ":{"ha":1003,"x_min":107,"x_max":896,"o":"m 496 -14 q 291 29 378 -14 q 155 153 203 72 q 107 347 107 235 l 107 956 l 237 956 l 237 358 q 303 159 237 227 q 495 92 370 92 q 695 162 624 92 q 767 367 767 232 l 767 956 l 896 956 l 896 359 q 847 159 896 243 q 708 31 798 75 q 496 -14 618 -14 m 666 1060 l 442 1249 l 442 1268 l 583 1268 l 730 1074 l 730 1060 l 666 1060 m 431 1060 l 207 1249 l 207 1268 l 347 1268 l 494 1074 l 494 1060 l 431 1060 z "},"ȕ":{"ha":772,"x_min":71,"x_max":680,"o":"m 213 734 l 213 269 q 227 156 213 196 q 273 98 241 116 q 364 81 304 81 q 503 141 452 81 q 554 309 554 201 l 554 734 l 676 734 l 676 157 q 680 0 676 28 l 565 0 q 564 18 564 3 q 562 53 563 33 q 559 125 561 72 l 557 125 q 460 18 515 50 q 323 -14 405 -14 q 146 46 202 -14 q 90 245 90 106 l 90 734 l 213 734 m 530 814 l 307 1003 l 307 1023 l 447 1023 l 594 828 l 594 814 l 530 814 m 295 814 l 71 1003 l 71 1023 l 212 1023 l 359 828 l 359 814 l 295 814 z "},"Ȗ":{"ha":1003,"x_min":107,"x_max":896,"o":"m 496 -14 q 291 29 378 -14 q 155 153 203 72 q 107 347 107 235 l 107 956 l 237 956 l 237 358 q 303 159 237 227 q 495 92 370 92 q 695 162 624 92 q 767 367 767 232 l 767 956 l 896 956 l 896 359 q 847 159 896 243 q 708 31 798 75 q 496 -14 618 -14 m 512 1240 q 645 1193 593 1240 q 710 1063 698 1147 l 639 1063 q 595 1129 629 1105 q 512 1153 562 1153 q 427 1128 460 1153 q 385 1063 393 1103 l 314 1063 q 378 1192 324 1144 q 512 1240 431 1240 z "},"ȗ":{"ha":772,"x_min":90,"x_max":680,"o":"m 213 734 l 213 269 q 227 156 213 196 q 273 98 241 116 q 364 81 304 81 q 503 141 452 81 q 554 309 554 201 l 554 734 l 676 734 l 676 157 q 680 0 676 28 l 565 0 q 564 18 564 3 q 562 53 563 33 q 559 125 561 72 l 557 125 q 460 18 515 50 q 323 -14 405 -14 q 146 46 202 -14 q 90 245 90 106 l 90 734 l 213 734 m 381 994 q 514 948 462 994 q 579 818 567 901 l 508 818 q 465 884 498 860 q 381 907 431 907 q 296 883 330 907 q 254 818 262 858 l 183 818 q 247 946 193 899 q 381 994 300 994 z "},"Ș":{"ha":926,"x_min":63,"x_max":863,"o":"m 863 264 q 759 59 863 132 q 468 -14 656 -14 q 63 229 119 -14 l 189 254 q 281 128 210 168 q 473 87 351 87 q 666 131 598 87 q 734 257 734 174 q 713 333 734 304 q 653 381 692 362 q 561 413 614 400 q 442 441 507 426 q 270 491 329 466 q 178 547 212 516 q 126 619 144 578 q 108 714 108 661 q 202 903 108 837 q 471 970 296 970 q 720 920 633 970 q 840 750 806 870 l 713 728 q 633 838 692 804 q 469 872 574 872 q 294 834 355 872 q 234 721 234 796 q 257 648 234 677 q 325 599 281 619 q 500 550 369 579 q 588 529 545 540 q 672 504 632 519 q 747 470 712 490 q 808 422 782 450 q 848 355 833 393 q 863 264 863 316 m 548 -131 q 533 -226 548 -190 q 491 -294 518 -262 l 412 -294 q 459 -233 442 -262 q 475 -172 475 -203 l 416 -172 l 416 -66 l 548 -66 l 548 -131 z "},"ș":{"ha":694,"x_min":39,"x_max":644,"o":"m 644 203 q 566 43 644 99 q 347 -14 488 -14 q 135 32 210 -14 q 39 172 61 77 l 146 193 q 211 107 162 134 q 347 79 260 79 q 483 108 439 79 q 526 193 526 136 q 496 264 526 237 q 399 309 466 291 l 312 332 q 162 385 207 359 q 93 448 118 411 q 68 540 68 486 q 139 693 68 640 q 348 745 211 745 q 541 703 469 745 q 631 566 612 660 l 522 552 q 467 627 511 601 q 348 653 422 653 q 226 628 265 653 q 186 552 186 603 q 203 500 186 521 q 251 466 219 480 q 385 427 283 452 q 525 381 482 402 q 592 336 568 361 q 631 278 617 311 q 644 203 644 245 m 412 -131 q 397 -226 412 -190 q 355 -294 382 -262 l 276 -294 q 323 -233 307 -262 q 340 -172 340 -203 l 280 -172 l 280 -66 l 412 -66 l 412 -131 z "},"Ț":{"ha":848,"x_min":31,"x_max":817,"o":"m 488 850 l 488 0 l 359 0 l 359 850 l 31 850 l 31 956 l 817 956 l 817 850 l 488 850 m 492 -131 q 477 -226 492 -190 q 435 -294 462 -262 l 355 -294 q 402 -233 386 -262 q 419 -172 419 -203 l 359 -172 l 359 -66 l 492 -66 l 492 -131 z "},"ț":{"ha":386,"x_min":21,"x_max":376,"o":"m 376 5 q 252 -11 315 -11 q 106 155 106 -11 l 106 645 l 21 645 l 21 734 l 111 734 l 146 898 l 228 898 l 228 734 l 363 734 l 363 645 l 228 645 l 228 182 q 245 107 228 129 q 305 86 262 86 q 376 96 330 86 l 376 5 m 313 -131 q 298 -226 313 -190 q 256 -294 283 -262 l 177 -294 q 224 -233 208 -262 q 241 -172 241 -203 l 181 -172 l 181 -66 l 313 -66 l 313 -131 z "},"Ȝ":{"ha":757,"x_min":43,"x_max":690,"o":"m 690 244 q 92 -290 690 -115 l 92 -177 q 444 -7 325 -111 q 562 230 562 96 q 548 324 562 279 q 509 396 534 369 q 92 206 389 304 l 92 323 q 453 482 345 401 q 562 677 562 564 q 514 814 562 768 q 374 861 467 861 q 242 832 296 861 q 147 730 189 804 l 43 784 q 183 926 101 882 q 379 970 265 970 q 541 936 471 970 q 649 838 611 901 q 688 696 688 775 q 669 589 688 636 q 592 480 650 543 q 663 379 635 439 q 690 244 690 318 z "},"ȝ":{"ha":606,"x_min":22,"x_max":552,"o":"m 552 115 q 433 -126 552 -25 q 60 -289 314 -227 l 60 -184 q 247 -121 182 -151 q 349 -59 311 -92 q 409 13 387 -27 q 431 101 431 53 q 417 189 431 149 q 380 248 403 229 q 60 134 258 178 l 60 234 q 339 346 248 275 q 431 515 431 416 q 398 623 431 589 q 297 657 366 657 q 194 628 229 657 q 140 537 159 599 l 22 559 q 76 668 41 626 q 163 728 112 709 q 296 747 214 747 q 489 690 425 747 q 552 511 552 633 q 475 317 552 404 q 530 236 509 290 q 552 115 552 182 z "},"Ȟ":{"ha":1003,"x_min":114,"x_max":890,"o":"m 760 0 l 760 443 l 243 443 l 243 0 l 114 0 l 114 956 l 243 956 l 243 551 l 760 551 l 760 956 l 890 956 l 890 0 l 760 0 m 572 1038 l 433 1038 l 275 1200 l 275 1214 l 345 1214 l 503 1120 l 504 1120 l 652 1214 l 724 1214 l 724 1200 l 572 1038 z "},"ȟ":{"ha":772,"x_min":96,"x_max":682,"o":"m 215 608 q 310 714 254 680 q 450 747 365 747 q 626 688 569 747 q 682 489 682 629 l 682 0 l 559 0 l 559 465 q 545 580 559 543 q 498 635 531 618 q 408 653 466 653 q 270 593 322 653 q 218 433 218 534 l 218 0 l 96 0 l 96 1006 l 218 1006 l 218 745 q 216 659 218 703 q 213 608 214 615 l 215 608 m 480 1051 l 342 1051 l 183 1213 l 183 1227 l 254 1227 l 411 1133 l 412 1133 l 561 1227 l 632 1227 l 632 1213 l 480 1051 z "},"Ƞ":{"ha":981,"x_min":111,"x_max":870,"o":"m 741 -288 l 741 637 q 720 772 741 722 q 654 845 699 822 q 527 868 609 868 q 373 835 452 868 q 239 746 295 802 l 239 0 l 111 0 l 111 956 l 238 956 l 238 853 q 377 938 288 907 q 567 969 465 969 q 798 889 725 969 q 870 637 870 809 l 870 -288 l 741 -288 z "},"ȡ":{"ha":947,"x_min":58,"x_max":947,"o":"m 557 118 q 467 17 523 47 q 328 -14 411 -14 q 124 80 189 -14 q 58 363 58 174 q 328 747 58 747 q 467 717 412 747 q 557 620 523 686 l 558 620 l 557 702 l 557 1006 l 679 1006 l 679 151 l 680 43 q 765 59 724 59 q 899 13 852 59 q 947 -113 947 -33 q 922 -208 947 -170 q 856 -267 898 -246 q 764 -288 814 -288 q 585 -160 639 -288 l 479 -289 l 404 -210 q 559 -30 486 -95 l 559 118 l 557 118 m 186 368 q 227 147 186 214 q 359 81 268 81 q 510 153 463 81 q 557 376 557 224 q 510 589 557 522 q 361 657 463 657 q 228 589 269 657 q 186 368 186 521 m 842 -116 q 822 -61 842 -83 q 764 -39 803 -39 q 717 -49 738 -39 q 674 -73 696 -59 q 698 -159 674 -127 q 764 -191 722 -191 q 820 -171 799 -191 q 842 -116 842 -152 z "},"Ȣ":{"ha":840,"x_min":63,"x_max":775,"o":"m 433 970 q 665 900 581 966 q 749 723 749 833 q 701 579 749 639 q 568 503 653 519 l 568 500 q 721 423 666 486 q 775 265 775 361 q 681 60 775 134 q 420 -14 587 -14 q 156 60 248 -14 q 63 264 63 133 q 121 422 63 358 q 268 499 178 486 l 268 502 q 131 569 175 527 q 87 677 87 612 q 165 822 87 771 q 392 876 243 873 l 392 788 q 255 757 299 785 q 210 672 210 729 q 266 580 210 612 q 418 548 322 548 q 571 591 517 548 q 625 716 625 634 q 575 832 625 789 q 433 879 526 876 l 433 970 m 650 277 q 588 408 650 361 q 416 456 526 456 q 249 404 311 456 q 187 264 187 353 q 248 129 187 177 q 421 81 308 81 q 650 277 650 81 z "},"ȣ":{"ha":785,"x_min":64,"x_max":724,"o":"m 394 593 q 526 639 479 593 q 572 770 572 685 q 545 867 572 825 q 468 934 517 910 l 517 1010 q 653 905 612 964 q 695 770 695 846 q 652 625 695 684 q 533 545 609 566 l 533 542 q 673 453 621 521 q 724 288 724 385 q 637 65 724 143 q 393 -14 550 -14 q 151 65 237 -14 q 64 288 64 144 q 116 453 64 385 q 256 542 168 520 l 256 545 q 137 625 180 566 q 94 770 94 684 q 135 905 94 846 q 271 1010 177 964 l 321 934 q 244 867 271 910 q 216 770 216 825 q 263 638 216 684 q 394 593 309 593 m 394 504 q 243 447 300 504 q 187 298 187 391 q 240 137 187 191 q 395 82 292 82 q 549 137 497 82 q 602 298 602 192 q 577 404 602 357 q 505 477 552 451 q 394 504 458 504 z "},"Ȥ":{"ha":848,"x_min":44,"x_max":813,"o":"m 44 97 l 626 850 l 94 850 l 94 956 l 773 956 l 773 861 l 191 106 l 623 106 q 763 61 712 106 q 813 -68 813 17 q 802 -173 813 -121 l 696 -150 q 709 -90 709 -112 q 685 -21 709 -42 q 608 0 661 0 l 44 0 l 44 97 z "},"ȥ":{"ha":694,"x_min":33,"x_max":664,"o":"m 33 93 l 481 640 l 60 640 l 60 734 l 619 734 l 619 641 l 170 94 l 473 94 q 618 56 573 94 q 664 -60 664 18 q 651 -166 664 -108 l 546 -143 q 559 -83 559 -110 q 535 -20 559 -41 q 459 0 511 0 l 33 0 l 33 93 z "},"Ȧ":{"ha":926,"x_min":3,"x_max":924,"o":"m 791 0 l 682 279 l 247 279 l 137 0 l 3 0 l 393 956 l 540 956 l 924 0 l 791 0 m 465 858 l 458 839 q 408 694 441 783 l 286 380 l 644 380 l 521 696 q 483 802 502 743 l 465 858 m 406 1088 l 406 1205 l 528 1205 l 528 1088 l 406 1088 z "},"ȧ":{"ha":772,"x_min":59,"x_max":772,"o":"m 281 -14 q 115 45 170 -14 q 59 205 59 103 q 134 380 59 319 q 376 445 209 441 l 541 448 l 541 488 q 503 616 541 577 q 383 654 465 654 q 264 627 301 654 q 219 538 227 599 l 92 549 q 386 747 123 747 q 594 684 524 747 q 664 500 664 621 l 664 184 q 678 103 664 130 q 732 75 692 75 q 772 80 750 75 l 772 4 q 678 -7 726 -7 q 579 29 610 -7 q 545 140 549 64 l 541 140 q 432 21 494 56 q 281 -14 370 -14 m 309 78 q 428 109 376 78 q 510 192 480 139 q 541 302 541 245 l 541 362 l 407 359 q 276 342 321 358 q 208 292 232 326 q 184 203 184 258 q 217 111 184 143 q 309 78 249 78 m 330 890 l 330 1006 l 452 1006 l 452 890 l 330 890 z "},"Ȩ":{"ha":926,"x_min":114,"x_max":867,"o":"m 114 0 l 114 956 l 839 956 l 839 850 l 243 850 l 243 543 l 798 543 l 798 439 l 243 439 l 243 106 l 867 106 l 867 0 l 114 0 m 640 -172 q 454 -294 640 -294 q 393 -292 416 -294 l 393 -225 q 452 -229 427 -229 q 551 -174 551 -229 q 461 -122 551 -122 q 422 -123 432 -122 l 467 0 l 539 0 l 513 -68 q 608 -97 576 -70 q 640 -172 640 -125 z "},"ȩ":{"ha":772,"x_min":59,"x_max":711,"o":"m 187 341 q 239 146 187 215 q 392 78 292 78 q 519 110 471 78 q 584 191 567 142 l 691 160 q 392 -14 625 -14 q 144 83 229 -14 q 59 372 59 180 q 144 650 59 553 q 387 747 229 747 q 711 357 711 747 l 711 341 l 187 341 m 585 435 q 526 604 574 551 q 385 657 477 657 q 244 598 296 657 q 189 435 193 538 l 585 435 m 535 -172 q 349 -294 535 -294 q 288 -292 311 -294 l 288 -225 q 347 -229 321 -229 q 446 -174 446 -229 q 356 -122 446 -122 q 317 -123 327 -122 l 361 0 l 434 0 l 408 -68 q 503 -97 471 -70 q 535 -172 535 -125 z "},"Ȫ":{"ha":1080,"x_min":66,"x_max":1014,"o":"m 1014 482 q 957 220 1014 332 q 792 47 899 107 q 539 -14 685 -14 q 285 46 392 -14 q 122 219 178 106 q 66 482 66 332 q 191 841 66 711 q 541 970 317 970 q 793 912 686 970 q 957 743 901 854 q 1014 482 1014 633 m 882 482 q 792 762 882 661 q 541 864 703 864 q 287 764 376 864 q 197 482 197 663 q 288 197 197 302 q 539 92 378 92 q 793 194 705 92 q 882 482 882 296 m 635 989 l 635 1114 l 745 1114 l 745 989 l 635 989 m 340 989 l 340 1114 l 451 1114 l 451 989 l 340 989 m 729 1158 l 357 1158 l 357 1244 l 729 1244 l 729 1158 z "},"ȫ":{"ha":772,"x_min":58,"x_max":714,"o":"m 714 368 q 629 81 714 175 q 383 -14 545 -14 q 140 84 222 -14 q 58 368 58 182 q 387 747 58 747 q 635 655 555 747 q 714 368 714 562 m 586 368 q 541 588 586 519 q 389 657 496 657 q 234 587 282 657 q 186 368 186 517 q 234 150 186 222 q 382 77 281 77 q 539 147 492 77 q 586 368 586 218 m 462 827 l 462 951 l 572 951 l 572 827 l 462 827 m 195 827 l 195 951 l 307 951 l 307 827 l 195 827 m 571 1028 l 199 1028 l 199 1114 l 571 1114 l 571 1028 z "},"Ȭ":{"ha":1080,"x_min":66,"x_max":1014,"o":"m 1014 482 q 957 220 1014 332 q 792 47 899 107 q 539 -14 685 -14 q 285 46 392 -14 q 122 219 178 106 q 66 482 66 332 q 191 841 66 711 q 541 970 317 970 q 793 912 686 970 q 957 743 901 854 q 1014 482 1014 633 m 882 482 q 792 762 882 661 q 541 864 703 864 q 287 764 376 864 q 197 482 197 663 q 288 197 197 302 q 539 92 378 92 q 793 194 705 92 q 882 482 882 296 m 726 1158 l 354 1158 l 354 1244 l 726 1244 l 726 1158 m 626 1000 q 534 1026 591 1000 q 452 1051 477 1051 q 407 1039 422 1051 q 386 1000 391 1027 l 324 1000 q 346 1080 332 1056 q 387 1118 361 1105 q 455 1132 412 1132 q 549 1107 492 1132 q 628 1081 605 1081 q 675 1094 661 1081 q 694 1132 690 1107 l 756 1132 q 734 1052 748 1077 q 694 1014 720 1027 q 626 1000 669 1000 z "},"ȭ":{"ha":772,"x_min":58,"x_max":714,"o":"m 714 368 q 629 81 714 175 q 383 -14 545 -14 q 140 84 222 -14 q 58 368 58 182 q 387 747 58 747 q 635 655 555 747 q 714 368 714 562 m 586 368 q 541 588 586 519 q 389 657 496 657 q 234 587 282 657 q 186 368 186 517 q 234 150 186 222 q 382 77 281 77 q 539 147 492 77 q 586 368 586 218 m 498 814 q 441 827 469 814 q 386 855 412 840 q 335 883 359 870 q 290 895 311 895 q 235 874 253 895 q 210 814 216 853 l 149 814 q 172 919 156 884 q 216 976 189 955 q 286 996 243 996 q 345 984 316 996 q 399 956 373 971 q 449 928 426 941 q 493 916 473 916 q 572 996 561 916 l 635 996 q 589 855 623 896 q 498 814 555 814 m 571 1062 l 199 1062 l 199 1148 l 571 1148 l 571 1062 z "},"Ȯ":{"ha":1080,"x_min":66,"x_max":1014,"o":"m 1014 482 q 957 220 1014 332 q 792 47 899 107 q 539 -14 685 -14 q 285 46 392 -14 q 122 219 178 106 q 66 482 66 332 q 191 841 66 711 q 541 970 317 970 q 793 912 686 970 q 957 743 901 854 q 1014 482 1014 633 m 882 482 q 792 762 882 661 q 541 864 703 864 q 287 764 376 864 q 197 482 197 663 q 288 197 197 302 q 539 92 378 92 q 793 194 705 92 q 882 482 882 296 m 490 1088 l 490 1205 l 612 1205 l 612 1088 l 490 1088 z "},"ȯ":{"ha":772,"x_min":58,"x_max":714,"o":"m 714 368 q 629 81 714 175 q 383 -14 545 -14 q 140 84 222 -14 q 58 368 58 182 q 387 747 58 747 q 635 655 555 747 q 714 368 714 562 m 586 368 q 541 588 586 519 q 389 657 496 657 q 234 587 282 657 q 186 368 186 517 q 234 150 186 222 q 382 77 281 77 q 539 147 492 77 q 586 368 586 218 m 326 890 l 326 1006 l 448 1006 l 448 890 l 326 890 z "},"Ȱ":{"ha":1080,"x_min":66,"x_max":1014,"o":"m 1014 482 q 957 220 1014 332 q 792 47 899 107 q 539 -14 685 -14 q 285 46 392 -14 q 122 219 178 106 q 66 482 66 332 q 191 841 66 711 q 541 970 317 970 q 793 912 686 970 q 957 743 901 854 q 1014 482 1014 633 m 882 482 q 792 762 882 661 q 541 864 703 864 q 287 764 376 864 q 197 482 197 663 q 288 197 197 302 q 539 92 378 92 q 793 194 705 92 q 882 482 882 296 m 481 996 l 481 1120 l 591 1120 l 591 996 l 481 996 m 726 1158 l 354 1158 l 354 1244 l 726 1244 l 726 1158 z "},"ȱ":{"ha":772,"x_min":58,"x_max":714,"o":"m 714 368 q 629 81 714 175 q 383 -14 545 -14 q 140 84 222 -14 q 58 368 58 182 q 387 747 58 747 q 635 655 555 747 q 714 368 714 562 m 586 368 q 541 588 586 519 q 389 657 496 657 q 234 587 282 657 q 186 368 186 517 q 234 150 186 222 q 382 77 281 77 q 539 147 492 77 q 586 368 586 218 m 330 836 l 330 952 l 452 952 l 452 836 l 330 836 m 571 1028 l 199 1028 l 199 1114 l 571 1114 l 571 1028 z "},"Ȳ":{"ha":926,"x_min":31,"x_max":896,"o":"m 527 396 l 527 0 l 398 0 l 398 396 l 31 956 l 173 956 l 464 500 l 753 956 l 896 956 l 527 396 m 649 1061 l 277 1061 l 277 1147 l 649 1147 l 649 1061 z "},"ȳ":{"ha":694,"x_min":3,"x_max":692,"o":"m 130 -288 q 45 -281 79 -288 l 45 -189 q 102 -193 71 -193 q 283 -26 216 -193 l 294 3 l 3 734 l 134 734 l 288 328 q 296 306 292 319 q 327 217 301 292 q 355 133 353 142 l 402 267 l 563 734 l 692 734 l 410 0 q 325 -175 364 -117 q 238 -260 286 -232 q 130 -288 190 -288 m 544 838 l 172 838 l 172 924 l 544 924 l 544 838 z "}}}
